<?xml version="1.0" encoding="utf-8"?>
<!-- Generator: Adobe Illustrator 19.2.1, SVG Export Plug-In . SVG Version: 6.00 Build 0)  -->
<svg version="1.1" xmlns="http://www.w3.org/2000/svg" xmlns:xlink="http://www.w3.org/1999/xlink" x="0px" y="0px"
	 viewBox="0 0 200 200" style="enable-background:new 0 0 200 200;" xml:space="preserve">
<style type="text/css">
	.st0{fill:#010202;stroke:#000000;stroke-miterlimit:10;}
	.st1{fill:#FFFFFF;}
</style>
<g id="Calque_1">
	<rect class="st0" width="200" height="200"/>
</g>
<g id="Calque_2">
	<g>
		<path class="st1" d="M145.8,19.7c4,6.5,8.1,13,12.1,19.5c4,6.5,8.1,13,12,19.6l11.9,19.6L193.7,98l0.7,1.1l-0.7,1.2l-11.1,20.1
			l-11.2,20l-11.2,20l-11.3,20l-1,1.8l-2.1,0l-22.9,0.2c-7.6,0.1-15.3,0.1-22.9,0.1L54,182.7l-2.3,0l-1.2-2l-22.8-39.8L16.3,121
			L5,101l-1-1.8l1-1.8l11.6-19.8l11.7-19.7l11.7-19.7C44,31.6,48,25.1,51.9,18.5l0.7-1.2l1.3,0l22.9,0.4l22.9,0.6
			c7.6,0.2,15.3,0.4,22.9,0.6C130.5,19.2,138.1,19.5,145.8,19.7z M145.8,19.7c-7.6,0.3-15.3,0.6-22.9,0.8
			c-7.6,0.2-15.3,0.5-22.9,0.6l-22.9,0.6L54,22.1l2.1-1.2C52.4,27.6,48.7,34.3,45,41L33.8,61L22.5,81l-11.3,20l0-3.6l11.6,19.8
			L34.4,137l23,39.7l-3.5-2l45.9,0.1c7.6,0,15.3,0,22.9,0.1l22.9,0.2l-3.1,1.8l11.6-19.8l11.7-19.7l11.7-19.7L189.6,98v2.4
			l-11.1-20.1l-11-20.1c-3.7-6.7-7.3-13.5-10.9-20.2C152.9,33.3,149.4,26.5,145.8,19.7z"/>
	</g>
	<g id="Forma_1">
		<g>
			<path class="st1" d="M80.8,67.6c1.3,1.6,1.8,3.9,1.4,7.2h3.2c2,0,3.7-1.4,4.2-3.2V53.5c0-1.2-0.2-2.6-0.7-3.3
				c-12.3-3.5-13.7,8.5-13.7,8.5c-0.4,1.5-0.6,4.3-0.7,7.2c0.6-0.2,1.3-0.2,1.9-0.2C78.2,65.6,79.8,66.3,80.8,67.6z M127.4,97.6h-2
				c-4,0-7.3-2.6-7.3-5.9v-3.2c-1.3,0.9-3,1.5-4.9,1.5h-2c-4,0-7.3-2.6-7.3-5.9v-1.3c-1.3,0.9-3,1.5-4.9,1.5h-2
				c-4,0-7.2-2.6-7.3-5.7c-1.1,1-2.6,1.5-4.2,1.5h-3.5c-0.5,2.1,0,7.6-2.5,9.7c-1.5,1.4-3.3-1-3.3-1c4.1-4.5,3.8-11.7,3.8-11.7
				c1-5.6-2.6-8.6-4.8-8.6c-0.6,0-1.3,0.1-2,0.4c0,0-4.1,2.1-5.7,3.6c-1.5,1.1-4.4,4.5-4.7,4.9l-0.1-0.1c-4,6.5,0.9,13.2,0.9,13.2
				C70,101.8,82,116.5,82,116.5c5.6,4.8,2.4,7.6,2.4,7.6l41.9,0.4l2.1-7.2c3.9-7.5,5.5-16.5,6.1-24.1
				C133.6,95.7,130.8,97.6,127.4,97.6z M125.4,92h2c2.7,0,4.9-1.6,4.9-3.5V66.7c0-1.9-2.3-3.5-4.9-3.5h-2c-2.7,0-4.9,1.6-4.9,3.5
				v21.8C120.5,90.4,122.7,92,125.4,92z M96.9,78.8h2c2.7,0,4.9-1.6,4.9-3.5V53.5c0-1.9-2.2-3.5-4.9-3.5h-2c-2.7,0-4.9,1.6-4.9,3.5
				v21.8C92,77.2,94.3,78.8,96.9,78.8z M111.2,84.5h2c2.7,0,4.9-1.6,4.9-3.5V59.2c0-1.9-2.2-3.5-4.9-3.5h-2c-2.7,0-4.9,1.6-4.9,3.5
				V81C106.2,82.9,108.5,84.5,111.2,84.5z"/>
		</g>
		<g>
			<g>
				<path class="st1" d="M80.8,67.6c0.8,1,1.3,2.2,1.5,3.4c0.2,1.2,0.1,2.5,0,3.8l-0.1-0.1l2.2,0c0.7,0,1.5,0,2.2-0.2
					c1.4-0.4,2.5-1.6,2.8-3l0,0.1l-0.1-5.4c0-1.8-0.1-3.6-0.1-5.4l0-5.4c0-0.9,0-1.8,0-2.7c0-0.4-0.1-0.9-0.2-1.3
					c-0.1-0.4-0.2-0.8-0.4-1.1l0.3,0.2l-1.1-0.2c-0.4-0.1-0.7-0.2-1.1-0.2L85.5,50c-0.4,0-0.8-0.1-1.1,0l-1.1,0.1
					c-0.4,0.1-0.7,0.2-1.1,0.3c-0.4,0.1-0.7,0.2-1.1,0.4c-0.3,0.1-0.7,0.3-1,0.5c-0.3,0.2-0.7,0.4-0.9,0.6c-0.3,0.3-0.6,0.5-0.8,0.8
					c-0.2,0.3-0.5,0.6-0.7,0.9c-0.2,0.3-0.4,0.6-0.6,1c-0.2,0.3-0.4,0.7-0.5,1c-0.2,0.4-0.3,0.7-0.4,1.1c-0.3,0.7-0.5,1.5-0.6,2.2
					l0,0l0,0c-0.3,1.1-0.4,2.4-0.6,3.5c-0.1,1.2-0.2,2.4-0.2,3.6l-0.1-0.1c1.1-0.3,2.3-0.3,3.5,0C79.1,66.1,80.1,66.7,80.8,67.6z
					 M80.8,67.6c-0.7-0.9-1.8-1.5-2.9-1.8c-1.1-0.3-2.3-0.2-3.4,0.1l-0.1,0l0-0.1c0-1.2,0.1-2.4,0.1-3.6c0.1-1.2,0.2-2.4,0.4-3.6
					l0,0c0.1-0.8,0.3-1.6,0.5-2.3c0.1-0.4,0.3-0.7,0.4-1.1c0.1-0.4,0.3-0.7,0.5-1.1c0.2-0.4,0.4-0.7,0.6-1c0.2-0.3,0.5-0.6,0.7-1
					c0.2-0.3,0.6-0.6,0.9-0.9c0.3-0.3,0.6-0.5,1-0.7c0.3-0.3,0.7-0.4,1.1-0.6c0.4-0.2,0.7-0.4,1.1-0.4c0.4-0.1,0.8-0.2,1.2-0.3
					l1.2-0.1c0.4-0.1,0.8,0,1.2,0l1.2,0.1c0.4,0.1,0.8,0.2,1.2,0.2l1.2,0.2l0.2,0l0.1,0.2c0.3,0.5,0.5,0.9,0.6,1.4
					c0.1,0.5,0.2,0.9,0.2,1.4c0,0.9,0,1.8,0,2.7l0,5.4c0,1.8-0.1,3.6-0.1,5.4l-0.1,5.4l0,0l0,0c-0.4,1.5-1.7,2.7-3.1,3.1
					c-0.7,0.2-1.5,0.1-2.2,0.1l-2.2,0l-0.1,0l0-0.1c0.1-1.2,0.2-2.5,0-3.8C82.1,69.8,81.6,68.6,80.8,67.6z"/>
				<path class="st1" d="M127.4,97.6c-1.3,0-2.6,0.1-3.9-0.2c-1.3-0.3-2.5-0.8-3.5-1.7c-1-0.8-1.7-2-1.9-3.3c-0.1-0.7-0.1-1.3-0.1-2
					l0-1.9l0.1,0c-1.3,0.9-2.9,1.5-4.4,1.5c-0.8,0-1.6,0-2.4,0c-0.4,0-0.8,0-1.2-0.1c-0.4,0-0.8-0.1-1.2-0.2
					c-0.4-0.1-0.8-0.2-1.1-0.4c-0.4-0.2-0.7-0.3-1.1-0.5c-0.3-0.2-0.7-0.4-1-0.7c-0.3-0.3-0.6-0.5-0.8-0.9c-0.5-0.6-0.9-1.4-1-2.1
					c-0.2-0.8-0.1-1.6-0.1-2.4l0.1,0.1c-1.2,0.9-2.6,1.4-4.1,1.5c-0.7,0.1-1.5,0-2.2,0.1c-0.4,0-0.7,0-1.1,0c-0.4,0-0.7-0.1-1.1-0.1
					c-1.5-0.2-2.9-0.8-4-1.8c-0.3-0.2-0.5-0.5-0.8-0.8c-0.2-0.3-0.4-0.6-0.6-0.9c-0.2-0.3-0.3-0.7-0.4-1.1c-0.1-0.4-0.1-0.7-0.2-1.1
					l0.3,0.1c-1.1,0.9-2.4,1.5-3.8,1.6c-0.7,0-1.4,0-2,0l-2,0l0.2-0.2c-0.2,1.1-0.2,2.3-0.3,3.5c-0.1,1.2-0.2,2.4-0.6,3.6
					c-0.2,0.6-0.4,1.2-0.7,1.7c-0.2,0.3-0.4,0.5-0.6,0.8c-0.2,0.2-0.5,0.5-0.7,0.6c-0.7,0.4-1.5,0.2-2-0.1c-0.6-0.3-1-0.7-1.4-1.2
					l-0.2-0.2l0.2-0.2c0.3-0.4,0.7-0.8,0.9-1.2c0.3-0.4,0.5-0.9,0.8-1.3c0.1-0.2,0.2-0.5,0.3-0.7c0.1-0.2,0.2-0.5,0.3-0.7
					c0.2-0.5,0.4-1,0.5-1.5c0.3-1,0.5-2,0.6-3c0.1-1,0.2-2.1,0.2-3.1l0,0l0-0.1l0.1-0.8c0-0.3,0-0.5,0-0.8c0-0.3,0-0.5,0-0.8
					c0-0.3,0-0.5-0.1-0.8c0-0.3-0.1-0.5-0.2-0.8c-0.1-0.2-0.1-0.5-0.2-0.7c-0.2-0.5-0.4-0.9-0.7-1.3c-0.3-0.4-0.6-0.8-1-1.1
					c-0.2-0.2-0.4-0.3-0.6-0.4c-0.2-0.1-0.4-0.2-0.7-0.3c-0.2-0.1-0.5-0.2-0.7-0.2c-0.2,0-0.5,0-0.7,0c-0.5,0-1,0.2-1.5,0.3l0.1,0
					c-1,0.5-2,1.1-2.9,1.6c-0.9,0.6-1.9,1.2-2.7,1.9l0,0l0,0c-0.8,0.6-1.6,1.5-2.4,2.3c-0.8,0.8-1.5,1.7-2.2,2.5l-0.4,0.5l-0.4-0.5
					l-0.1-0.1l0.8,0c-0.2,0.5-0.6,1-0.7,1.5l-0.3,0.8c-0.1,0.3-0.1,0.5-0.2,0.8c-0.1,0.3-0.1,0.5-0.1,0.8c0,0.3-0.1,0.6-0.1,0.8
					c0,0.6,0,1.1,0.1,1.7c0.1,0.6,0.2,1.1,0.3,1.7c0.1,0.5,0.3,1.1,0.5,1.6c0.2,0.5,0.4,1,0.7,1.5c0.3,0.5,0.5,1,0.9,1.4l0,0l0,0
					c2.6,4.6,5.6,9,8.7,13.3c3.1,4.3,6.3,8.5,9.6,12.7l-0.1-0.1l0.8,0.8c0.3,0.3,0.5,0.6,0.8,0.8c0.3,0.3,0.5,0.6,0.7,0.9
					c0.2,0.3,0.4,0.7,0.6,1c0.2,0.4,0.3,0.7,0.4,1.1c0.1,0.4,0.1,0.8,0.1,1.2c-0.1,0.4-0.1,0.8-0.3,1.2c-0.1,0.2-0.2,0.4-0.3,0.5
					c-0.1,0.2-0.2,0.3-0.4,0.5l-0.2-0.7l41.9,0.6l-0.1,0.1l2.2-7.2l0,0l0,0c0.5-0.9,0.9-1.9,1.3-2.8c0.4-1,0.8-1.9,1.1-2.9
					c0.7-2,1.3-4,1.8-6c1-4.1,1.5-8.2,1.9-12.3l0,0c-0.2,0.7-0.6,1.3-1.1,1.9c-0.5,0.6-1.1,1-1.7,1.4
					C130.4,97.2,128.9,97.6,127.4,97.6z M127.4,97.6c1.5,0,2.9-0.4,4.2-1.1c0.6-0.4,1.2-0.8,1.7-1.4c0.5-0.5,0.9-1.2,1.1-1.9
					l0.1-0.2l0,0.2c-0.3,4.2-0.9,8.3-1.8,12.4c-0.5,2-1,4-1.7,6c-0.3,1-0.7,2-1.1,2.9c-0.4,1-0.9,1.9-1.3,2.8l0,0l-2.1,7.2l0,0.1
					l-0.1,0l-41.9-0.2l-0.9,0l0.7-0.6c0.1-0.1,0.2-0.2,0.3-0.4c0.1-0.1,0.2-0.3,0.2-0.4c0.1-0.3,0.2-0.6,0.2-1c0-0.3,0-0.7-0.1-1
					c-0.1-0.3-0.2-0.7-0.4-1c-0.1-0.3-0.3-0.6-0.5-0.9c-0.2-0.3-0.4-0.6-0.7-0.8c-0.3-0.3-0.5-0.5-0.7-0.8l-0.8-0.7l0,0l0,0
					c-3.3-4.1-6.6-8.4-9.7-12.6c-3.1-4.3-6.1-8.7-8.8-13.3l0,0c-0.4-0.5-0.7-1-0.9-1.6c-0.3-0.5-0.5-1.1-0.7-1.7
					c-0.2-0.6-0.4-1.1-0.5-1.7c-0.1-0.6-0.3-1.2-0.3-1.8c-0.1-0.6-0.1-1.2-0.1-1.8c0-0.3,0.1-0.6,0.1-0.9c0-0.3,0.1-0.6,0.2-0.9
					c0.1-0.3,0.1-0.6,0.2-0.9l0.3-0.9c0.2-0.6,0.5-1.1,0.8-1.6l0.3-0.7l0.5,0.6l0.1,0.1l-0.7,0c0.7-0.9,1.5-1.7,2.3-2.6
					c0.8-0.8,1.6-1.7,2.6-2.4l0,0c0.9-0.8,1.9-1.4,2.8-2c1-0.6,2-1.1,3-1.7l0,0l0,0c0.5-0.2,1.1-0.3,1.7-0.4c0.3,0,0.6,0,0.9,0
					c0.3,0.1,0.6,0.1,0.9,0.3c0.3,0.1,0.5,0.2,0.8,0.4c0.2,0.2,0.5,0.3,0.7,0.5c0.4,0.4,0.8,0.8,1.2,1.3c0.3,0.5,0.6,1,0.8,1.5
					c0.1,0.3,0.2,0.5,0.3,0.8c0.1,0.3,0.1,0.6,0.2,0.8c0.1,0.3,0.1,0.6,0.1,0.8c0,0.3,0,0.6,0,0.8c0,0.3,0,0.6-0.1,0.8l-0.1,0.8
					l0-0.1c0,1.1-0.1,2.1-0.2,3.2c-0.2,1.1-0.4,2.1-0.7,3.1c-0.2,0.5-0.3,1-0.5,1.5c-0.1,0.3-0.2,0.5-0.3,0.7
					c-0.1,0.2-0.2,0.5-0.4,0.7c-0.3,0.5-0.5,0.9-0.8,1.4c-0.3,0.5-0.7,0.8-1,1.3l0-0.4c0.3,0.4,0.8,0.8,1.2,1.1
					c0.2,0.1,0.5,0.2,0.7,0.2c0.2,0,0.5,0,0.7-0.1c0.2-0.2,0.4-0.3,0.6-0.5c0.2-0.2,0.4-0.4,0.5-0.7c0.3-0.5,0.5-1,0.7-1.6
					c0.3-1.1,0.5-2.3,0.6-3.4c0.1-1.2,0.1-2.3,0.4-3.6l0-0.2l0.2,0l2,0c0.7,0,1.4,0,2,0c1.3-0.1,2.6-0.6,3.6-1.4l0.3-0.2l0,0.4
					c0,0.4,0.1,0.7,0.1,1c0.1,0.3,0.2,0.7,0.4,1c0.2,0.3,0.3,0.6,0.6,0.9c0.2,0.3,0.5,0.5,0.7,0.8c1.1,1,2.4,1.5,3.8,1.8
					c0.4,0,0.7,0.1,1.1,0.1c0.4,0,0.7,0,1.1,0c0.7,0,1.5,0,2.2,0c1.4-0.1,2.8-0.6,4-1.4l0.1-0.1l0,0.2c0,0.8-0.1,1.6,0.1,2.3
					c0.2,0.8,0.5,1.5,1,2.1c0.2,0.3,0.5,0.6,0.8,0.8c0.3,0.3,0.6,0.5,0.9,0.7c0.3,0.2,0.7,0.4,1,0.5c0.4,0.2,0.7,0.3,1.1,0.4
					c0.4,0.1,0.8,0.2,1.2,0.2c0.4,0.1,0.8,0.1,1.2,0.1c0.8,0,1.6,0,2.4,0c1.6-0.1,3.1-0.6,4.4-1.5l0.1,0l0,0.1l0,1.9
					c0,0.6,0,1.3,0,1.9c0.2,1.3,0.9,2.5,1.9,3.3c1,0.8,2.2,1.4,3.5,1.7C124.8,97.7,126.1,97.6,127.4,97.6z"/>
				<path class="st1" d="M125.4,92c0,0,0.3,0,0.8,0c0.5,0,1.3,0.1,2.3-0.1c1-0.2,2.2-0.6,3.1-1.7c0.2-0.3,0.4-0.6,0.5-0.9
					c0.1-0.4,0.1-0.7,0.1-1.1c0-0.8,0-1.6,0-2.5c-0.1-3.5-0.2-7.5-0.2-11.9c0-2.2-0.1-4.4-0.1-6.7l0-0.2c0,0,0-0.1,0-0.1l0-0.1
					c0-0.2,0-0.3-0.1-0.4c0-0.2-0.2-0.4-0.3-0.6c-0.3-0.4-0.6-0.8-1.1-1c-0.9-0.6-2-0.8-3-0.8c-1.1,0-2.4-0.1-3.4,0.1
					c-1,0.2-2,0.7-2.6,1.5c-0.3,0.4-0.5,0.8-0.5,1.3c0,0.6,0,1.1,0,1.7c0,1.1,0,2.2-0.1,3.3c-0.1,4.3-0.2,8.4-0.2,11.9
					c0,1.7,0,3.3-0.1,4.7c0,0.7,0.2,1.3,0.6,1.8c0.4,0.5,0.8,0.8,1.3,1.1c0.9,0.5,1.7,0.7,2.2,0.7c0.3,0,0.5,0.1,0.6,0.1
					C125.3,92,125.4,92,125.4,92z M125.4,92c0,0-0.1,0-0.2,0c-0.1,0-0.3,0-0.6,0c-0.5-0.1-1.3-0.2-2.2-0.7c-0.4-0.3-0.9-0.6-1.3-1.1
					c-0.4-0.5-0.6-1.2-0.6-1.9c0-1.4,0-3-0.1-4.7c-0.1-3.5-0.2-7.5-0.2-11.9c0-1.1,0-2.2-0.1-3.3c0-0.6,0-1.1,0-1.7
					c0-0.7,0.3-1.3,0.6-1.8c0.8-1,2-1.6,3.2-1.9c1.3-0.3,2.4-0.2,3.6-0.2c1.2,0,2.5,0.3,3.6,1c0.5,0.3,1,0.8,1.4,1.4
					c0.2,0.3,0.3,0.6,0.4,0.9c0,0.2,0.1,0.3,0.1,0.5l0,0.1l0,0.1l0,0.2c0,2.3,0,4.5-0.1,6.7c-0.1,4.3-0.2,8.4-0.2,11.9
					c0,0.9,0,1.7,0,2.5c0,0.4,0,0.8-0.1,1.2c-0.1,0.4-0.3,0.7-0.5,1c-0.9,1.1-2.2,1.5-3.2,1.7c-1,0.2-1.8,0.1-2.4,0.1
					C125.7,92,125.4,92,125.4,92z"/>
				<path class="st1" d="M96.9,78.8c0,0,0.3,0,0.8,0c0.5,0,1.3,0.1,2.3-0.1c1-0.2,2.2-0.6,3.1-1.7c0.2-0.3,0.4-0.6,0.5-0.9
					c0.1-0.4,0.1-0.7,0.1-1.1c0-0.8,0-1.6,0-2.5c-0.1-3.5-0.2-7.5-0.2-11.9c0-2.2-0.1-4.4-0.1-6.7l0-0.2c0,0,0-0.1,0-0.1l0-0.1
					c0-0.2,0-0.3-0.1-0.4c0-0.2-0.2-0.4-0.3-0.6c-0.3-0.4-0.6-0.8-1.1-1c-0.9-0.6-2-0.8-3-0.8c-1.1,0-2.4-0.1-3.4,0.1
					c-1,0.2-2,0.7-2.6,1.5c-0.3,0.4-0.5,0.8-0.5,1.3c0,0.6,0,1.1,0,1.7c0,1.1,0,2.2-0.1,3.3c-0.1,4.3-0.2,8.4-0.2,11.9
					c0,1.7,0,3.3-0.1,4.7c0,0.7,0.2,1.3,0.6,1.8c0.4,0.5,0.8,0.8,1.3,1.1c0.9,0.5,1.7,0.7,2.2,0.7c0.3,0,0.5,0,0.6,0.1
					C96.9,78.8,96.9,78.8,96.9,78.8z M96.9,78.8c0,0-0.1,0-0.2,0c-0.1,0-0.3,0-0.6,0c-0.5-0.1-1.3-0.2-2.2-0.7
					c-0.4-0.3-0.9-0.6-1.3-1.1c-0.4-0.5-0.7-1.2-0.6-1.9c0-1.4,0-3-0.1-4.7c-0.1-3.5-0.2-7.5-0.2-11.9c0-1.1,0-2.2-0.1-3.3
					c0-0.6,0-1.1,0-1.7c0-0.7,0.3-1.3,0.6-1.8c0.8-1,2-1.6,3.2-1.9c1.3-0.3,2.4-0.2,3.6-0.2c1.2,0,2.5,0.3,3.6,1
					c0.5,0.3,1,0.8,1.4,1.4c0.2,0.3,0.3,0.6,0.4,0.9c0,0.2,0.1,0.3,0.1,0.5l0,0.1l0,0.1l0,0.2c0,2.3,0,4.5-0.1,6.7
					c-0.1,4.3-0.2,8.4-0.2,11.9c0,0.9,0,1.7,0,2.5c0,0.4,0,0.8-0.1,1.2c-0.1,0.4-0.3,0.7-0.5,1c-0.9,1.1-2.2,1.5-3.2,1.7
					c-1,0.2-1.8,0.1-2.4,0.1C97.2,78.8,96.9,78.8,96.9,78.8z"/>
				<path class="st1" d="M111.2,84.5c0,0,0.3,0,0.8,0c0.5,0,1.3,0.1,2.3-0.1c1-0.2,2.2-0.6,3.1-1.7c0.2-0.3,0.4-0.6,0.5-0.9
					c0.1-0.4,0.1-0.7,0.1-1.1c0-0.8,0-1.6,0-2.5c-0.1-3.5-0.2-7.5-0.2-11.9c0-2.2-0.1-4.4-0.1-6.7c0-0.6-0.1-1-0.3-1.4
					c-0.3-0.4-0.6-0.8-1.1-1c-0.9-0.6-2-0.8-3-0.8c-1.1,0-2.4-0.1-3.4,0.1c-1,0.2-2,0.7-2.6,1.5c-0.3,0.4-0.5,0.8-0.5,1.3
					c0,0.6,0,1.1,0,1.7c0,1.1,0,2.2-0.1,3.3c-0.1,4.3-0.2,8.4-0.2,11.9c0,1.7,0,3.3-0.1,4.7c0,0.7,0.2,1.3,0.6,1.8
					c0.4,0.5,0.8,0.8,1.3,1.1c0.9,0.5,1.7,0.7,2.2,0.7c0.3,0,0.5,0,0.6,0.1C111.1,84.5,111.2,84.5,111.2,84.5z M111.2,84.5
					c0,0-0.1,0-0.2,0c-0.1,0-0.3,0-0.6,0c-0.5-0.1-1.3-0.2-2.2-0.7c-0.4-0.3-0.9-0.6-1.3-1.1c-0.4-0.5-0.7-1.2-0.6-1.9
					c0-1.4,0-3-0.1-4.7c-0.1-3.5-0.2-7.5-0.2-11.9c0-1.1,0-2.2-0.1-3.3c0-0.6,0-1.1,0-1.7c0-0.7,0.3-1.3,0.6-1.8
					c0.8-1,2-1.6,3.2-1.9c1.3-0.3,2.4-0.2,3.6-0.2c1.2,0,2.5,0.3,3.6,1c0.5,0.3,1,0.8,1.4,1.4c0.2,0.3,0.3,0.6,0.4,0.9
					c0,0.2,0.1,0.3,0.1,0.5l0,0.1l0,0.1l0,0.2c0,2.3,0,4.5-0.1,6.7c-0.1,4.3-0.2,8.4-0.2,11.9c0,0.9,0,1.7,0,2.5
					c0,0.4,0,0.8-0.1,1.2c-0.1,0.4-0.3,0.7-0.5,1c-0.9,1.1-2.2,1.5-3.2,1.7c-1,0.2-1.8,0.1-2.4,0.1
					C111.4,84.5,111.2,84.5,111.2,84.5z"/>
			</g>
		</g>
	</g>
	<g>
		<line class="st1" x1="51.3" y1="136.7" x2="150.1" y2="136.7"/>
		<path class="st1" d="M51.3,136.7c0,0,1.5-0.1,4.2-0.2c2.7-0.1,6.6-0.3,11.2-0.4c4.6-0.1,10-0.2,15.8-0.3c2.9,0,5.9-0.1,8.9-0.1
			c3,0,6.1,0,9.2,0c3.1,0,6.2,0,9.2,0c3,0,6,0.1,8.9,0.1c5.8,0.1,11.2,0.2,15.8,0.3c4.6,0.1,8.5,0.3,11.2,0.4
			c2.7,0.1,4.2,0.2,4.2,0.2s-1.5,0.1-4.2,0.2c-2.7,0.1-6.6,0.3-11.2,0.4c-4.6,0.1-10,0.2-15.8,0.3c-2.9,0-5.9,0.1-8.9,0.1
			c-3,0-6.1,0-9.2,0c-3.1,0-6.2,0-9.2,0c-3,0-6-0.1-8.9-0.1c-5.8-0.1-11.2-0.2-15.8-0.3c-4.6-0.1-8.5-0.3-11.2-0.4
			C52.9,136.8,51.3,136.7,51.3,136.7z"/>
	</g>
</g>
</svg>
