<?xml version="1.0" encoding="utf-8"?>
<!-- Generator: Adobe Illustrator 19.2.1, SVG Export Plug-In . SVG Version: 6.00 Build 0)  -->
<svg version="1.1" id="Calque_1" xmlns="http://www.w3.org/2000/svg" xmlns:xlink="http://www.w3.org/1999/xlink" x="0px" y="0px"
	 viewBox="0 0 200 200" style="enable-background:new 0 0 200 200;" xml:space="preserve">
<style type="text/css">
	.st0{fill:#010202;stroke:#000000;stroke-miterlimit:10;}
	.st1{fill:#FFFFFF;}
	.st2{fill-rule:evenodd;clip-rule:evenodd;fill:#FFFFFF;}
</style>
<rect class="st0" width="200" height="200"/>
<g>
	<path class="st1" d="M146.6,18c4,6.5,8.1,13,12.1,19.5s8.1,13,12,19.6l11.9,19.6l11.9,19.6l0.7,1.1l-0.7,1.2l-11.1,20.1l-11.2,20
		l-11.2,20l-11.3,20l-1,1.8h-2.1l-22.9,0.2c-7.6,0.1-15.3,0.1-22.9,0.1l-46,0.2h-2.3l-1.2-2l-22.8-39.8l-11.4-19.9l-11.3-20l-1-1.8
		l1-1.8l11.6-19.8l11.7-19.7l11.7-19.7c4-6.6,8-13.1,11.9-19.7l0.7-1.2h1.3L77.6,16l22.9,0.6c7.6,0.2,15.3,0.4,22.9,0.6
		C131.3,17.5,138.9,17.8,146.6,18z M146.6,18c-7.6,0.3-15.3,0.6-22.9,0.8c-7.6,0.2-15.3,0.5-22.9,0.6L77.9,20l-23.1,0.4l2.1-1.2
		c-3.7,6.7-7.4,13.4-11.1,20.1l-11.2,20l-11.3,20L12,99.3v-3.6l11.6,19.8l11.6,19.8l23,39.7l-3.5-2l45.9,0.1c7.6,0,15.3,0,22.9,0.1
		l22.9,0.2l-3.1,1.8l11.6-19.8l11.7-19.7l11.7-19.7l12.1-19.7v2.4l-11.1-20.1l-11-20.1c-3.7-6.7-7.3-13.5-10.9-20.2
		C153.7,31.6,150.2,24.8,146.6,18z"/>
</g>
<g id="Shape_1">
	<g>
		<path class="st2" d="M126.3,102c-6.9-5.6-14.3-9.4-15.8-10.2c-0.2-0.1-0.3-0.3-0.3-0.5V80.6c1.4-0.9,2.2-2.4,2.2-4.2V65.4
			c0-5.5-4.5-10-10-10h-2.4c-5.5,0-10,4.5-10,10v11.1c0,1.7,0.9,3.3,2.2,4.2v10.7c0,0.2-0.1,0.4-0.3,0.5c-1.5,0.7-8.9,4.5-15.8,10.2
			c-1.3,1-2,2.5-2,4.2v7.6h54.1v-7.6C128.3,104.5,127.6,103,126.3,102z M79.2,94.7v-9.1c1.1-0.8,1.9-2.1,1.9-3.6v-9.5
			c0-4.7-3.8-8.5-8.5-8.5h-2c-4.7,0-8.5,3.8-8.5,8.5V82c0,1.5,0.8,2.8,1.9,3.6v9.1c0,0.2-0.1,0.3-0.2,0.4c-1.3,0.6-7.6,3.8-13.5,8.6
			c-1.1,0.9-1.7,2.2-1.7,3.5v6.5h21.8v-7.6c0-2.8,1.2-5.4,3.4-7.2c1.8-1.5,3.7-2.9,5.5-4.1C79.2,94.8,79.2,94.8,79.2,94.7z
			 M152.3,103.7c-5.9-4.8-12.2-8-13.5-8.6c-0.2-0.1-0.2-0.2-0.2-0.4v-9.1c1.1-0.8,1.9-2.1,1.9-3.6v-9.5c0-4.7-3.8-8.5-8.5-8.5h-2
			c-4.7,0-8.5,3.8-8.5,8.5V82c0,1.5,0.8,2.8,1.9,3.6v9.1c0,0.1,0,0.1,0,0.2c1.8,1.2,3.7,2.6,5.5,4.1c2.1,1.8,3.4,4.4,3.4,7.2v7.6
			h21.7v-7.6C153.6,105.2,153.1,104.3,152.3,103.7z"/>
	</g>
</g>
<g>
	<line class="st1" x1="62.8" y1="124.8" x2="139.6" y2="124.8"/>
	<path class="st1" d="M62.8,124.8c0,0,1.2-0.1,3.3-0.2c2.1-0.1,5.1-0.3,8.7-0.4c3.6-0.1,7.8-0.2,12.3-0.3c2.3,0,4.6-0.1,6.9-0.1
		c2.4,0,4.8,0,7.2,0c2.4,0,4.8,0,7.2,0c2.4,0,4.7,0.1,6.9,0.1c4.5,0.1,8.7,0.2,12.3,0.3c3.6,0.1,6.6,0.3,8.7,0.4
		c2.1,0.1,3.3,0.2,3.3,0.2s-1.2,0.1-3.3,0.2c-2.1,0.1-5.1,0.3-8.7,0.4c-3.6,0.1-7.8,0.2-12.3,0.3c-2.3,0-4.6,0.1-6.9,0.1
		c-2.4,0-4.8,0-7.2,0c-2.4,0-4.8,0-7.2,0c-2.4,0-4.7-0.1-6.9-0.1c-4.5-0.1-8.7-0.2-12.3-0.3c-3.6-0.1-6.6-0.3-8.7-0.4
		C64,124.9,62.8,124.8,62.8,124.8z"/>
</g>
</svg>
