<svg id="Calque_2" data-name="Calque 2" xmlns="http://www.w3.org/2000/svg" viewBox="0 0 235.43 204.21">
  <title>succesillu</title>
  <g id="Shape_1" data-name="Shape 1" style="isolation: isolate">
    <g id="Shape_1-2" data-name="Shape 1">
      <path d="M409.85,250.38a147.27,147.27,0,0,0-26.41-16.94,0.84,0.84,0,0,1-.47-0.76V214.82a8.33,8.33,0,0,0,3.74-6.94V189.33A16.7,16.7,0,0,0,370,172.65h-4a16.7,16.7,0,0,0-16.7,16.68v18.52a8.24,8.24,0,0,0,3.74,6.94v17.87a0.84,0.84,0,0,1-.47.76,145.5,145.5,0,0,0-26.41,16.94,8.9,8.9,0,0,0-3.27,6.94V270h90.18V257.29A8.89,8.89,0,0,0,409.85,250.38Zm-78.63-12.12V223.06a7.1,7.1,0,0,0,3.17-5.93V201.34a14.22,14.22,0,0,0-14.22-14.2h-3.38a14.22,14.22,0,0,0-14.22,14.2v15.78a7.14,7.14,0,0,0,3.17,5.93v15.21a0.76,0.76,0,0,1-.4.65,122.79,122.79,0,0,0-22.46,14.38,7.63,7.63,0,0,0-2.77,5.9V270h36.35V257.32a15.45,15.45,0,0,1,5.61-11.94c3.06-2.52,6.19-4.82,9.18-6.87C331.25,238.44,331.22,238.37,331.22,238.26Zm122,15a125.37,125.37,0,0,0-22.46-14.38,0.68,0.68,0,0,1-.4-0.65V223.06a7.1,7.1,0,0,0,3.17-5.93V201.34a14.22,14.22,0,0,0-14.21-14.2H415.9a14.22,14.22,0,0,0-14.21,14.2v15.78a7.14,7.14,0,0,0,3.17,5.93v15.21c0,0.11,0,.18,0,0.25,3,2,6.12,4.35,9.18,6.87a15.4,15.4,0,0,1,5.61,11.94V270h36.13V257.39A7.57,7.57,0,0,0,453.18,253.29Z" transform="translate(-249.58 -135.43)" style="fill-rule: evenodd"/>
    </g>
  </g>
  <path d="M425.37,137.25c5,8.22,10,16.4,14.88,24.64L455,186.59l14.78,24.7L484.49,236l0.52,0.87-0.52.92-14.13,25.08-14.19,25L442,313,427.7,338l-0.76,1.34h-1.57l-28.78.14-28.78.07-57.56.09h-1.73l-0.86-1.5L279,288.25l-14.33-25-14.27-25-0.78-1.37,0.78-1.33,14.51-24.85,14.58-24.82L294,161.12l14.65-24.77,0.54-.91h1L339,135.78l28.78,0.45,28.78,0.45C406.19,136.81,415.78,137.06,425.37,137.25Zm0,0c-9.59.19-19.19,0.44-28.78,0.57l-28.78.45-28.78.45-28.78.33,1.56-.9-14.13,25.08-14.19,25-14.2,25L255,238.3v-2.7l14.51,24.85L284,285.34l28.86,49.8-2.6-1.5,57.56,0.09,28.78,0.07L425.37,334,423,335.3l14.51-24.85,14.58-24.81,14.59-24.81L481.38,236v1.8l-14.1-25.09-14-25.15-14-25.15C434.59,154.08,430,145.65,425.37,137.25Z" transform="translate(-249.58 -135.43)" style="fill: #1d1d1b"/>
  <g>
    <line x1="54.34" y1="148.23" x2="182.57" y2="148.23" style="fill: #1d1d1b"/>
    <path d="M303.92,283.66l5.51-.19c3.51-.09,8.51-0.27,14.53-0.38s13-.24,20.54-0.31l11.58-.09,12,0,12,0,11.58,0.09c7.51,0.07,14.53.18,20.54,0.31s11,0.29,14.53.38l5.51,0.19-5.51.19c-3.51.09-8.51,0.27-14.53,0.38s-13,.24-20.54.31l-11.58.09-12,0-12,0-11.58-.09c-7.51-.07-14.53-0.18-20.54-0.31s-11-.29-14.53-0.38Z" transform="translate(-249.58 -135.43)" style="fill: #1d1d1b"/>
  </g>
</svg>
