<svg id="Calque_1" data-name="Calque 1" xmlns="http://www.w3.org/2000/svg" viewBox="0 0 237.16 205.82">
  <title>100Moooners</title>
  <g id="Forma_1" data-name="Forma 1">
    <path d="M365.65,211.89c1.9,2.29,2.55,5.57,2,10.19h4.53a6.12,6.12,0,0,0,5.9-4.54V191.88a9.27,9.27,0,0,0-1-4.74c-17.44-4.88-19.45,12.09-19.45,12.09a56.66,56.66,0,0,0-1,10.19,11.51,11.51,0,0,1,2.68-.35A8,8,0,0,1,365.65,211.89Zm65.9,42.38H428.7c-5.7,0-10.34-3.71-10.34-8.3v-4.54a11.77,11.77,0,0,1-6.94,2.17h-2.85c-5.7,0-10.34-3.71-10.34-8.29v-1.9a11.81,11.81,0,0,1-6.95,2.16h-2.85c-5.62,0-10.2-3.63-10.32-8.12a9.11,9.11,0,0,1-5.9,2.17h-5c-0.67,2.92.06,10.79-3.57,13.74-2.06,1.92-4.73-1.44-4.73-1.44,5.82-6.34,5.44-16.49,5.44-16.49,1.46-7.87-3.75-12.12-6.74-12.12a8.74,8.74,0,0,0-2.77.54s-5.75,3-8,5c-2.15,1.49-6.27,6.39-6.7,6.89l-0.11-.15c-5.67,9.23,1.33,18.72,1.33,18.72,9,15.8,26,36.68,26,36.68,7.9,6.77,3.38,10.72,3.38,10.72l59.24,0.57,3-10.15c5.57-10.64,7.8-23.33,8.58-34.08C440.35,251.66,436.33,254.27,431.55,254.27Zm-2.85-7.88h2.85c3.76,0,7-2.24,7-4.91v-30.9c0-2.66-3.2-4.91-7-4.91H428.7c-3.76,0-6.95,2.25-6.95,4.91v30.9C421.75,244.13,424.93,246.39,428.7,246.39Zm-40.27-18.7h2.85c3.77,0,6.95-2.24,6.95-4.91v-30.9c0-2.66-3.18-4.91-6.95-4.91h-2.85c-3.76,0-7,2.25-7,4.91v30.9C381.48,225.44,384.66,227.68,388.43,227.68Zm20.14,8h2.85c3.76,0,6.94-2.24,6.94-4.91V199.91c0-2.66-3.18-4.91-6.94-4.91h-2.85c-3.77,0-7,2.24-7,4.91v30.9C401.61,233.47,404.8,235.71,408.56,235.71Z" transform="translate(-276.48 -152.82)" style="fill: #000100"/>
  </g>
  <path d="M453.31,155.25l15.06,24.54,14.94,24.61L498.18,229l14.77,24.7,0.69,1.16-0.69,1.24-14,25.13-14.12,25.08-14.14,25.07-14.23,25-1,1.78h-2.1l-28.78.19-28.78.1-57.56.12h-2.31l-1.15-2-28.68-49.91-14.31-25-14.23-25-1-1.83,1-1.77,14.55-24.83,14.64-24.78,14.66-24.77L336.11,154l0.73-1.22,1.35,0L367,153.29l28.78,0.55,28.78,0.64Zm0,0-28.78.77-28.78.64-28.78.55-28.78.44,2.08-1.2-14,25.13-14.12,25.08L298,231.73l-14.23,25v-3.6L298.3,278l14.47,24.88,28.88,49.79-3.46-2,57.56,0.12,28.78,0.1,28.78,0.19-3.11,1.79L464.76,328l14.64-24.78,14.66-24.77,14.74-24.72v2.39l-14-25.14-13.92-25.2L467,180.56Z" transform="translate(-276.48 -152.82)" style="fill: #1d1d1b"/>
  <g>
    <line x1="53.66" y1="147.34" x2="181.88" y2="147.34" style="fill: #1e1e1c"/>
    <path d="M330.14,300.16l5.51-.19c3.51-.09,8.51-0.27,14.53-0.38s13-.24,20.54-0.31l11.58-.09,12,0,12,0,11.58,0.09c7.51,0.07,14.53.18,20.54,0.31s11,0.29,14.53.38l5.51,0.19-5.51.19c-3.51.09-8.51,0.27-14.53,0.38s-13,.24-20.54.31l-11.58.09-12,0-12,0L370.71,301c-7.51-.07-14.53-0.18-20.54-0.31s-11-.29-14.53-0.38Z" transform="translate(-276.48 -152.82)" style="fill: #1e1e1c"/>
  </g>
</svg>
