<?xml version="1.0" encoding="utf-8"?>
<!-- Generator: Adobe Illustrator 19.2.1, SVG Export Plug-In . SVG Version: 6.00 Build 0)  -->
<svg version="1.1" xmlns="http://www.w3.org/2000/svg" xmlns:xlink="http://www.w3.org/1999/xlink" x="0px" y="0px"
	 viewBox="0 0 728.5 515.9" style="enable-background:new 0 0 728.5 515.9;" xml:space="preserve">
<style type="text/css">
	.st0{fill:#1E1E1C;}
	.st1{fill:#010202;}
</style>
<g id="Calque_1">
	<g>
		<path class="st0" d="M425.4,137.2l15.1,24.5l14.9,24.6l14.9,24.6l14.8,24.7l0.7,1.2l-0.7,1.2l-14,25.1l-14.1,25.1l-14.1,25.1
			l-14.2,25l-1,1.8l-2.1,0l-28.8,0.2l-28.8,0.1l-57.6,0.1l-2.3,0l-1.2-2l-28.7-49.9l-14.3-25l-14.2-25l-1-1.8l1-1.8l14.6-24.8
			l14.6-24.8l14.7-24.8l14.7-24.7l0.7-1.2l1.4,0l28.8,0.4l28.8,0.6l28.8,0.6L425.4,137.2z M425.4,137.2l-28.8,0.8l-28.8,0.6
			l-28.8,0.6l-28.8,0.4l2.1-1.2l-14,25.1l-14.1,25.1L270,213.7l-14.2,25v-3.6l14.6,24.8l14.5,24.9l28.9,49.8l-3.5-2l57.6,0.1
			l28.8,0.1l28.8,0.2l-3.1,1.8l14.6-24.8l14.6-24.8l14.7-24.8l14.7-24.7l0,2.4l-14-25.1l-13.9-25.2l-13.8-25.2L425.4,137.2z"/>
	</g>
</g>
<g id="Calque_2">
	<g id="Forma_1">
		<g>
			<path class="st1" d="M367.8,180.3c2.2,0,3.9-1.8,3.9-3.9v-14c0-2.2-1.8-3.9-3.9-3.9c-2.2,0-3.9,1.8-3.9,3.9v14
				C363.9,178.6,365.7,180.3,367.8,180.3z M334,192.1c0.7,0.7,1.7,1.1,2.8,1.1c1,0,2-0.4,2.8-1.1c1.5-1.5,1.5-4,0-5.5l-9.9-9.9
				c-0.7-0.7-1.7-1.1-2.8-1.1c-1,0-2,0.4-2.8,1.1c-0.7,0.7-1.1,1.7-1.1,2.8c0,1,0.4,2,1.1,2.8L334,192.1z M401.7,248.7
				c-0.7-0.7-1.7-1.1-2.8-1.1c-1,0-2,0.4-2.8,1.1c-0.7,0.7-1.1,1.7-1.1,2.8c0,1,0.4,2,1.1,2.8l9.9,9.9c0.7,0.7,1.7,1.1,2.8,1.1
				c1,0,2-0.4,2.8-1.1c1.5-1.5,1.5-4,0-5.5L401.7,248.7z M327.8,220.4c0-2.2-1.8-3.9-3.9-3.9h-14c-2.2,0-3.9,1.8-3.9,3.9
				c0,2.2,1.8,3.9,3.9,3.9h14C326,224.3,327.8,222.5,327.8,220.4z M425.8,216.5h-14c-2.2,0-3.9,1.8-3.9,3.9c0,2.2,1.8,3.9,3.9,3.9
				h14c2.2,0,3.9-1.8,3.9-3.9C429.7,218.2,428,216.5,425.8,216.5z M336.7,247.6c-1,0-2,0.4-2.8,1.1l-9.9,9.9c-1.5,1.5-1.5,4,0,5.5
				c0.7,0.7,1.7,1.1,2.8,1.1c1,0,2-0.4,2.8-1.1l9.9-9.9c0.7-0.7,1.1-1.7,1.1-2.8c0-1-0.4-2-1.1-2.8
				C338.8,248,337.8,247.6,336.7,247.6z M398.9,193.2c1,0,2-0.4,2.8-1.1l9.9-9.9c0.7-0.7,1.1-1.7,1.1-2.8c0-1-0.4-2-1.1-2.8
				c-0.7-0.7-1.7-1.1-2.8-1.1c-1,0-2,0.4-2.8,1.1l-9.9,9.9c-0.7,0.7-1.1,1.7-1.1,2.8c0,1,0.4,2,1.1,2.8
				C396.9,192.8,397.8,193.2,398.9,193.2z M368,191.8c-15.7,0-28.5,12.8-28.5,28.5c0,11.3,6.5,23.7,15.4,30.1v16.6
				c0,1.7,1.2,3.3,2.9,3.7l9.3,2.4c0.3,0.1,0.6,0.1,1,0.1s0.6,0,1-0.1l9.3-2.4c1.7-0.4,2.9-2,2.9-3.7v-16.6
				c8.9-6.4,15.4-18.8,15.4-30.1C396.5,204.6,383.7,191.8,368,191.8z M373.4,264.1L373.4,264.1l-5.4,1.4l-5.4-1.4v-4.7h10.9V264.1z
				 M375,245.2c-1.5,0.9-2.2,2.6-1.8,4.3c0,0.2,0.1,0.4,0.2,0.5v3.6h-10.9v-3.6c0.1-0.2,0.1-0.3,0.2-0.5c0.4-1.7-0.3-3.5-1.8-4.3
				c-7.7-4.4-13.8-15.4-13.8-24.9c0-11.5,9.3-20.8,20.8-20.8c11.5,0,20.8,9.3,20.8,20.8C388.8,229.9,382.7,240.8,375,245.2z"/>
		</g>
	</g>
	<g>
		<line class="st0" x1="307.6" y1="290.3" x2="435.8" y2="290.3"/>
		<path class="st0" d="M307.6,290.3c0,0,2-0.1,5.5-0.2c3.5-0.1,8.5-0.3,14.5-0.4c6-0.1,13-0.2,20.5-0.3c3.8,0,7.6-0.1,11.6-0.1
			c3.9,0,8,0,12,0c4,0,8,0,12,0c3.9,0,7.8,0.1,11.6,0.1c7.5,0.1,14.5,0.2,20.5,0.3c6,0.1,11,0.3,14.5,0.4c3.5,0.1,5.5,0.2,5.5,0.2
			s-2,0.1-5.5,0.2c-3.5,0.1-8.5,0.3-14.5,0.4c-6,0.1-13,0.2-20.5,0.3c-3.8,0-7.6,0.1-11.6,0.1c-3.9,0-8,0-12,0c-4,0-8,0-12,0
			c-3.9,0-7.8-0.1-11.6-0.1c-7.5-0.1-14.5-0.2-20.5-0.3c-6-0.1-11-0.3-14.5-0.4C309.6,290.3,307.6,290.3,307.6,290.3z"/>
	</g>
</g>
</svg>
