<?xml version="1.0" encoding="utf-8"?>
<!-- Generator: Adobe Illustrator 19.2.1, SVG Export Plug-In . SVG Version: 6.00 Build 0)  -->
<svg version="1.1" id="Calque_1" xmlns="http://www.w3.org/2000/svg" xmlns:xlink="http://www.w3.org/1999/xlink" x="0px" y="0px"
	 viewBox="0 0 200 200" style="enable-background:new 0 0 200 200;" xml:space="preserve">
<style type="text/css">
	.st0{fill:#010202;stroke:#000000;stroke-miterlimit:10;}
	.st1{fill:#FFFFFF;}
	.st2{fill:none;stroke:#FFFFFF;stroke-miterlimit:10;}
	.st3{fill:none;}
</style>
<rect x="0.5" y="0" class="st0" width="200" height="200"/>
<g>
	<path class="st1" d="M147.6,19.7c4,6.5,8.1,13,12.1,19.5s8.1,13,12,19.6l11.9,19.6L195.5,98l0.7,1.1l-0.7,1.2l-11.1,20.1l-11.2,20
		l-11.2,20l-11.3,20l-1,1.8h-2.1l-22.9,0.2c-7.6,0.1-15.3,0.1-22.9,0.1l-46,0.2h-2.3l-1.2-2l-22.8-39.8L18.1,121L6.8,101l-1-1.8
		l1-1.8l11.6-19.8l11.7-19.7l11.7-19.7c4-6.6,8-13.1,11.9-19.7l0.7-1.2h1.3l22.9,0.4l22.9,0.6c7.6,0.2,15.3,0.4,22.9,0.6
		C132.3,19.2,139.9,19.5,147.6,19.7z M147.6,19.7c-7.6,0.3-15.3,0.6-22.9,0.8c-7.6,0.2-15.3,0.5-22.9,0.6l-22.9,0.6l-23.1,0.4
		l2.1-1.2c-3.7,6.7-7.4,13.4-11.1,20.1L35.6,61L24.3,81L13,101v-3.6l11.6,19.8L36.2,137l23,39.7l-3.5-2l45.9,0.1
		c7.6,0,15.3,0,22.9,0.1l22.9,0.2l-3.1,1.8l11.6-19.8l11.7-19.7l11.7-19.7L191.4,98v2.4l-11.1-20.1l-11-20.1
		c-3.7-6.7-7.3-13.5-10.9-20.2C154.7,33.3,151.2,26.5,147.6,19.7z"/>
</g>
<g id="Calque_2">
	<g id="Forma_1">
		<g>
			<path class="st1" d="M102.2,50.2c1.7,0,3.1-1.4,3.1-3.1v-11c0-1.7-1.4-3.1-3.1-3.1c-1.7,0-3.1,1.4-3.1,3.1v11
				C99.1,48.9,100.5,50.2,102.2,50.2z M75.7,59.5c0.5,0.5,1.3,0.9,2.2,0.9c0.8,0,1.6-0.3,2.2-0.9c1.2-1.2,1.2-3.1,0-4.3l-7.8-7.8
				c-0.5-0.5-1.3-0.9-2.2-0.9c-0.8,0-1.6,0.3-2.2,0.9C67.3,48,67,48.7,67,49.6c0,0.8,0.3,1.6,0.9,2.2L75.7,59.5z M128.7,103.9
				c-0.5-0.5-1.3-0.9-2.2-0.9c-0.8,0-1.6,0.3-2.2,0.9c-0.5,0.5-0.9,1.3-0.9,2.2c0,0.8,0.3,1.6,0.9,2.2l7.8,7.8
				c0.5,0.5,1.3,0.9,2.2,0.9c0.8,0,1.6-0.3,2.2-0.9c1.2-1.2,1.2-3.1,0-4.3L128.7,103.9z M70.8,81.7c0-1.7-1.4-3.1-3.1-3.1h-11
				c-1.7,0-3.1,1.4-3.1,3.1c0,1.7,1.4,3.1,3.1,3.1h11C69.4,84.7,70.8,83.3,70.8,81.7z M147.6,78.6h-11c-1.7,0-3.1,1.4-3.1,3.1
				c0,1.7,1.4,3.1,3.1,3.1h11c1.7,0,3.1-1.4,3.1-3.1C150.7,80,149.4,78.6,147.6,78.6z M77.8,103c-0.8,0-1.6,0.3-2.2,0.9l-7.8,7.8
				c-1.2,1.2-1.2,3.1,0,4.3c0.5,0.5,1.3,0.9,2.2,0.9c0.8,0,1.6-0.3,2.2-0.9l7.8-7.8c0.5-0.5,0.9-1.3,0.9-2.2c0-0.8-0.3-1.6-0.9-2.2
				C79.4,103.3,78.6,103,77.8,103z M126.6,60.3c0.8,0,1.6-0.3,2.2-0.9l7.8-7.8c0.5-0.5,0.9-1.3,0.9-2.2c0-0.8-0.3-1.6-0.9-2.2
				c-0.5-0.5-1.3-0.9-2.2-0.9c-0.8,0-1.6,0.3-2.2,0.9l-7.8,7.8c-0.5,0.5-0.9,1.3-0.9,2.2c0,0.8,0.3,1.6,0.9,2.2
				C125,60,125.7,60.3,126.6,60.3z M102.3,59.2C90,59.2,80,69.3,80,81.6c0,8.9,5.1,18.6,12.1,23.6v13c0,1.3,0.9,2.6,2.3,2.9l7.3,1.9
				c0.2,0.1,0.5,0.1,0.8,0.1c0.3,0,0.5,0,0.8-0.1l7.3-1.9c1.3-0.3,2.3-1.6,2.3-2.9v-13c7-5,12.1-14.7,12.1-23.6
				C124.7,69.3,114.6,59.2,102.3,59.2z M106.6,116L106.6,116l-4.2,1.1l-4.2-1.1v-3.7h8.5L106.6,116L106.6,116z M107.8,101.1
				c-1.2,0.7-1.7,2-1.4,3.4c0,0.2,0.1,0.3,0.2,0.4v2.8H98v-2.8c0.1-0.2,0.1-0.2,0.2-0.4c0.3-1.3-0.2-2.7-1.4-3.4
				c-6-3.5-10.8-12.1-10.8-19.5c0-9,7.3-16.3,16.3-16.3s16.3,7.3,16.3,16.3C118.6,89.1,113.8,97.7,107.8,101.1z"/>
		</g>
		<g>
			<g>
				<path class="st2" d="M102.1,50.7c1.7,0,3.1-1.4,3.1-3.1v-11c0-1.7-1.4-3.1-3.1-3.1c-1.7,0-3.1,1.4-3.1,3.1v11
					C99.1,49.4,100.5,50.7,102.1,50.7z"/>
				<path class="st2" d="M75.6,60c0.5,0.5,1.3,0.9,2.2,0.9c0.8,0,1.6-0.3,2.2-0.9c1.2-1.2,1.2-3.1,0-4.3l-7.8-7.8
					c-0.5-0.5-1.3-0.9-2.2-0.9c-0.8,0-1.6,0.3-2.2,0.9c-0.5,0.5-0.9,1.3-0.9,2.2c0,0.8,0.3,1.6,0.9,2.2L75.6,60z"/>
				<path class="st2" d="M128.7,104.4c-0.5-0.5-1.3-0.9-2.2-0.9c-0.8,0-1.6,0.3-2.2,0.9c-0.5,0.5-0.9,1.3-0.9,2.2
					c0,0.8,0.3,1.6,0.9,2.2l7.8,7.8c0.5,0.5,1.3,0.9,2.2,0.9c0.8,0,1.6-0.3,2.2-0.9c1.2-1.2,1.2-3.1,0-4.3L128.7,104.4z"/>
				<path class="st2" d="M70.8,82.2c0-1.7-1.4-3.1-3.1-3.1h-11c-1.7,0-3.1,1.4-3.1,3.1c0,1.7,1.4,3.1,3.1,3.1h11
					C69.3,85.2,70.8,83.8,70.8,82.2z"/>
				<path class="st2" d="M147.6,79.1h-11c-1.7,0-3.1,1.4-3.1,3.1c0,1.7,1.4,3.1,3.1,3.1h11c1.7,0,3.1-1.4,3.1-3.1
					C150.7,80.5,149.3,79.1,147.6,79.1z"/>
				<path class="st2" d="M77.7,103.5c-0.8,0-1.6,0.3-2.2,0.9l-7.8,7.8c-1.2,1.2-1.2,3.1,0,4.3c0.5,0.5,1.3,0.9,2.2,0.9
					c0.8,0,1.6-0.3,2.2-0.9l7.8-7.8c0.5-0.5,0.9-1.3,0.9-2.2c0-0.8-0.3-1.6-0.9-2.2C79.4,103.8,78.6,103.5,77.7,103.5z"/>
				<path class="st2" d="M126.5,60.9c0.8,0,1.6-0.3,2.2-0.9l7.8-7.8c0.5-0.5,0.9-1.3,0.9-2.2c0-0.8-0.3-1.6-0.9-2.2
					c-0.5-0.5-1.3-0.9-2.2-0.9c-0.8,0-1.6,0.3-2.2,0.9l-7.8,7.8c-0.5,0.5-0.9,1.3-0.9,2.2c0,0.8,0.3,1.6,0.9,2.2
					C124.9,60.5,125.6,60.9,126.5,60.9z"/>
				<g>
					<path class="st2" d="M102.3,59.8c-12.3,0-22.4,10-22.4,22.4c0,8.9,5.1,18.6,12.1,23.6v13c0,1.3,0.9,2.6,2.3,2.9l7.3,1.9
						c0.2,0.1,0.5,0.1,0.8,0.1s0.5,0,0.8-0.1l7.3-1.9c1.3-0.3,2.3-1.6,2.3-2.9v-13c7-5,12.1-14.7,12.1-23.6
						C124.6,69.8,114.6,59.8,102.3,59.8z"/>
					<polygon class="st2" points="106.5,116.5 106.5,116.5 102.3,117.6 98,116.5 98,112.8 106.5,112.8 					"/>
					<path class="st2" d="M107.8,101.6c-1.2,0.7-1.7,2-1.4,3.4c0,0.2,0.1,0.3,0.2,0.4v2.8H98v-2.8c0.1-0.2,0.1-0.2,0.2-0.4
						c0.3-1.3-0.2-2.7-1.4-3.4c-6-3.5-10.8-12.1-10.8-19.5c0-9,7.3-16.3,16.3-16.3s16.3,7.3,16.3,16.3
						C118.6,89.6,113.8,98.2,107.8,101.6z"/>
				</g>
			</g>
		</g>
	</g>
	<g>
		<line class="st3" x1="54.6" y1="138.7" x2="155.1" y2="138.7"/>
		<path class="st1" d="M54.6,138.7c0,0,1.6-0.1,4.3-0.2c2.7-0.1,6.7-0.2,11.4-0.3s10.2-0.2,16.1-0.2c3,0,6-0.1,9.1-0.1
			c3.1,0,6.3,0,9.4,0c3.1,0,6.3,0,9.4,0c3.1,0,6.1,0.1,9.1,0.1c5.9,0.1,11.4,0.2,16.1,0.2c4.7,0.1,8.6,0.2,11.4,0.3
			c2.7,0.1,4.3,0.2,4.3,0.2s-1.6,0.1-4.3,0.2c-2.7,0.1-6.7,0.2-11.4,0.3s-10.2,0.2-16.1,0.2c-3,0-6,0.1-9.1,0.1c-3.1,0-6.3,0-9.4,0
			c-3.1,0-6.3,0-9.4,0c-3.1,0-6.1-0.1-9.1-0.1c-5.9-0.1-11.4-0.2-16.1-0.2c-4.7-0.1-8.6-0.2-11.4-0.3
			C56.1,138.7,54.6,138.7,54.6,138.7z"/>
	</g>
</g>
</svg>
