<?xml version="1.0" encoding="utf-8"?>
<!-- Generator: Adobe Illustrator 19.2.1, SVG Export Plug-In . SVG Version: 6.00 Build 0)  -->
<svg version="1.1" xmlns="http://www.w3.org/2000/svg" xmlns:xlink="http://www.w3.org/1999/xlink" x="0px" y="0px"
	 viewBox="0 0 200 200" style="enable-background:new 0 0 200 200;" xml:space="preserve">
<style type="text/css">
	.st0{fill:#010202;stroke:#000000;stroke-miterlimit:10;}
	.st1{fill:#FFFFFF;}
	.st2{fill:#FDFDFD;}
</style>
<g id="Calque_1">
	<rect class="st0" width="200" height="200"/>
</g>
<g id="Calque_2">
	<g>
		<path class="st1" d="M145.8,19.7c4,6.5,8.1,13,12.1,19.5c4,6.5,8.1,13,12,19.6l11.9,19.6L193.7,98l0.7,1.1l-0.7,1.2l-11.1,20.1
			l-11.2,20l-11.2,20l-11.3,20l-1,1.8l-2.1,0l-22.9,0.2c-7.6,0.1-15.3,0.1-22.9,0.1L54,182.7l-2.3,0l-1.2-2l-22.8-39.8L16.3,121
			L5,101l-1-1.8l1-1.8l11.6-19.8l11.7-19.7l11.7-19.7C44,31.6,48,25.1,51.9,18.5l0.7-1.2l1.3,0l22.9,0.4l22.9,0.6
			c7.6,0.2,15.3,0.4,22.9,0.6C130.5,19.2,138.1,19.5,145.8,19.7z M145.8,19.7c-7.6,0.3-15.3,0.6-22.9,0.8
			c-7.6,0.2-15.3,0.5-22.9,0.6l-22.9,0.6L54,22.1l2.1-1.2C52.4,27.6,48.7,34.3,45,41L33.8,61L22.5,81l-11.3,20l0-3.6l11.6,19.8
			L34.4,137l23,39.7l-3.5-2l45.9,0.1c7.6,0,15.3,0,22.9,0.1l22.9,0.2l-3.1,1.8l11.6-19.8l11.7-19.7l11.7-19.7L189.6,98v2.4
			l-11.1-20.1l-11-20.1c-3.7-6.7-7.3-13.5-10.9-20.2C152.9,33.3,149.4,26.5,145.8,19.7z"/>
	</g>
	<g id="Forma_1">
		<g>
			<path class="st2" d="M122.1,106.2H77.9c-1.3,0-2.4,1.1-2.4,2.4v5.1c0,1.3,1.1,2.4,2.4,2.4h44.2c1.3,0,2.4-1.1,2.4-2.4v-5.1
				C124.5,107.3,123.4,106.2,122.1,106.2z M137.3,48.3c-2.6,0-4.7,2.1-4.7,4.7c0,1.3,0.5,2.5,1.4,3.4l-10.6,21.1l-0.1-20.4
				c1.4-0.8,2.3-2.3,2.3-4.1c0-2.6-2.1-4.7-4.7-4.7c-2.6,0-4.7,2.1-4.7,4.7c0,1.6,0.8,3,2,3.8l-7.6,23.1l-7.7-23.1
				c1.2-0.9,2-2.3,2-3.8c0-2.6-2.1-4.7-4.7-4.7c-2.6,0-4.7,2.1-4.7,4.7c0,1.6,0.8,3,2,3.8l-7.7,23.1l-7.6-23.1c1.2-0.9,2-2.3,2-3.8
				c0-2.6-2.1-4.7-4.7-4.7c-2.6,0-4.7,2.1-4.7,4.7c0,1.7,0.9,3.2,2.3,4.1l-0.1,20.4L65.9,56.2c0.8-0.8,1.3-2,1.3-3.2
				c0-2.6-2.1-4.7-4.7-4.7c-2.6,0-4.7,2.1-4.7,4.7c0,2.2,1.5,4,3.4,4.5l15.6,41.4c0.3,0.9,1.2,1.5,2.2,1.5h42c1,0,1.9-0.6,2.2-1.5
				l15.6-41.5c1.9-0.6,3.2-2.4,3.2-4.5C142,50.4,139.9,48.3,137.3,48.3z"/>
		</g>
		<g>
			<g>
				<path class="st1" d="M122.1,106.2c0,0-1.8,0-4.9,0c-3.1,0-7.5,0-12.9,0.1c-5.3,0.1-11.5,0.2-18.2,0.2c-1.7,0-3.4,0-5.1,0.1
					c-0.9,0-1.7,0-2.6,0c-0.4,0-0.9,0-1.2,0.1c-0.3,0.1-0.7,0.3-0.9,0.6c-0.2,0.3-0.4,0.6-0.5,0.9c-0.1,0.3,0,0.8,0,1.2
					c0,0.9,0,1.8,0,2.6l0,1.3c0,0.4,0,0.8,0.2,1.1c0.3,0.6,1,1.1,1.7,1.1c7.1,0,14.2,0,20.9,0.1c6.7,0.1,12.9,0.2,18.2,0.2
					c1.3,0,2.6,0,3.8,0c0.6,0,1.2,0,1.8,0c0.6-0.1,1-0.4,1.4-0.8c0.7-0.8,0.5-2,0.6-2.9c0-0.9,0-1.8,0-2.6c0-0.8,0.1-1.5-0.2-2
					c-0.2-0.6-0.6-0.9-1-1.1C122.6,106.1,122.1,106.2,122.1,106.2z M122.1,106.2c0,0,0.5-0.1,1.2,0.3c0.4,0.2,0.8,0.6,1,1.1
					c0.3,0.6,0.2,1.3,0.2,2.1c0,0.8,0,1.6,0,2.6c0,0.5,0,1,0,1.5c0,0.5-0.2,1-0.5,1.5c-0.4,0.4-0.9,0.7-1.4,0.9
					c-0.6,0.1-1.2,0-1.8,0c-1.2,0-2.5,0-3.8,0c-5.3,0.1-11.5,0.2-18.2,0.2c-6.7,0.1-13.8,0.1-20.9,0.1c-1.1,0-2.1-0.7-2.6-1.6
					c-0.2-0.5-0.3-1.1-0.3-1.5l0-1.3c0-0.9,0-1.8,0-2.6c0-0.4,0-0.8,0.1-1.4c0.1-0.5,0.3-1,0.7-1.4c0.3-0.4,0.8-0.7,1.3-0.8
					c0.5-0.2,1-0.1,1.4-0.1c0.9,0,1.7,0,2.6,0c1.7,0,3.4,0,5.1,0.1c6.7,0.1,12.9,0.2,18.2,0.2c5.3,0,9.8,0.1,12.9,0.1
					C120.4,106.2,122.1,106.2,122.1,106.2z"/>
				<path class="st1" d="M137.3,48.3c-0.9,0-1.9,0.3-2.6,0.8c-0.8,0.5-1.4,1.3-1.7,2.1c-0.3,0.9-0.4,1.8-0.3,2.7
					c0.2,0.9,0.6,1.8,1.3,2.4l0,0l0,0l-10.6,21.2l-0.1,0.3l0-0.3l-0.1-20.4l0-0.1l0.1,0c0.8-0.5,1.5-1.3,1.9-2.2
					c0.2-0.5,0.3-0.9,0.3-1.4c0-0.5,0-1-0.1-1.5c-0.2-1-0.8-1.8-1.5-2.4c-0.8-0.6-1.7-1-2.7-1c-0.5,0-1,0-1.4,0.2
					c-0.5,0.1-0.9,0.3-1.3,0.6c-0.8,0.6-1.4,1.4-1.7,2.3c-0.2,0.5-0.2,0.9-0.3,1.4c0,0.5,0.1,1,0.2,1.4c0.3,0.9,0.9,1.7,1.7,2.3
					l0.1,0.1l0,0.1L110.7,80l-0.2,0.7l-0.2-0.7l-7.8-23l-0.1-0.2l0.2-0.1c0.8-0.5,1.3-1.3,1.6-2.2c0.3-0.9,0.3-1.9,0-2.7
					c-0.3-0.9-0.9-1.7-1.6-2.2c-0.4-0.3-0.8-0.5-1.2-0.6c-0.4-0.1-0.9-0.2-1.4-0.2c-0.5,0-0.9,0.1-1.4,0.2c-0.4,0.1-0.9,0.4-1.2,0.6
					c-0.8,0.5-1.3,1.3-1.6,2.2c-0.1,0.4-0.2,0.9-0.2,1.4c0,0.5,0.1,0.9,0.2,1.4c0.3,0.9,0.9,1.6,1.6,2.2l0.2,0.1l-0.1,0.2l-7.7,23.1
					l-0.4,1.1L89.1,80L81.5,57l-0.1-0.3l0.3-0.2c0.7-0.5,1.3-1.3,1.6-2.2c0.1-0.4,0.2-0.9,0.2-1.3c0-0.5-0.1-0.9-0.2-1.4
					c-0.3-0.9-0.9-1.6-1.6-2.1c-0.8-0.5-1.7-0.8-2.6-0.7c-0.3,0-0.5,0-0.7,0.1c-0.2,0.1-0.4,0.1-0.6,0.2c-0.4,0.2-0.8,0.4-1.2,0.7
					c-0.7,0.6-1.2,1.4-1.4,2.3c-0.1,0.4-0.2,0.9-0.1,1.4c0,0.4,0.1,0.9,0.3,1.3c0.4,0.8,1,1.5,1.8,2l0.2,0.1l0,0.3l-0.1,20.4l0,1.9
					l-0.8-1.7L65.6,56.4l-0.1-0.2l0.2-0.2c0.6-0.7,1.1-1.6,1.2-2.5c0.1-0.5,0-1-0.1-1.4c-0.1-0.5-0.3-0.9-0.5-1.3
					c-0.5-0.8-1.2-1.4-2.1-1.8c-0.4-0.2-0.9-0.3-1.4-0.3c-0.2,0-0.5,0-0.7,0c-0.2,0-0.4,0.1-0.7,0.1c-0.9,0.2-1.7,0.8-2.3,1.5
					c-0.6,0.7-0.9,1.7-0.9,2.6c0,0.5,0.1,0.9,0.2,1.4c0.1,0.4,0.4,0.9,0.7,1.3c0.6,0.8,1.4,1.3,2.3,1.6l0.2,0l0.1,0.2l11.9,31.9l3,8
					l0.4,1c0.1,0.3,0.2,0.7,0.4,0.9c0.3,0.5,0.9,0.9,1.6,1c1.4,0,2.8,0,4.2,0l17,0l17,0c1.4,0,2.9,0,4.2,0c0.7-0.1,1.3-0.5,1.6-1.1
					c0.3-0.6,0.5-1.3,0.8-2l3-8l12-31.9l0,0l0,0c1-0.4,2-1.1,2.5-2c0.6-0.9,0.8-2.1,0.6-3.2c-0.2-1.1-0.7-2.1-1.6-2.8
					C139.5,48.7,138.4,48.3,137.3,48.3z M137.3,48.3c1.1,0,2.2,0.4,3.1,1.1c0.9,0.7,1.4,1.7,1.6,2.8c0.2,1.1,0,2.3-0.6,3.2
					c-0.6,1-1.5,1.7-2.5,2.1l0,0l-11.9,31.9l-3,8c-0.3,0.7-0.4,1.3-0.8,2c-0.4,0.6-1.1,1.1-1.8,1.2c-1.5,0.1-2.8,0-4.3,0l-17,0
					l-17,0c-1.4,0-2.8,0-4.3,0c-0.8-0.1-1.5-0.5-1.9-1.2c-0.2-0.4-0.3-0.7-0.4-1l-0.4-1l-3-8L60.9,57.7l0.2,0.2
					c-1.1-0.3-2-0.9-2.7-1.8c-0.3-0.4-0.6-0.9-0.8-1.4c-0.2-0.5-0.3-1.1-0.3-1.6c0-1.1,0.4-2.2,1-3.1c0.7-0.9,1.6-1.5,2.7-1.8
					c0.3-0.1,0.5-0.1,0.8-0.2c0.2,0,0.5,0,0.8,0c0.5,0,1.1,0.1,1.6,0.3c1,0.4,1.9,1.1,2.5,2.1c0.3,0.5,0.5,1,0.6,1.5
					c0.1,0.6,0.2,1.1,0.1,1.6c-0.1,1.1-0.6,2.2-1.4,3l0.1-0.4l10.8,21.3l-0.8,0.2l0.1-20.4l0.2,0.4c-1-0.6-1.7-1.4-2.2-2.5
					C74.1,54.5,74,54,74,53.4c0-0.5,0-1.1,0.1-1.6c0.3-1.1,0.9-2.1,1.8-2.8c0.4-0.4,0.9-0.6,1.4-0.8c0.3-0.1,0.5-0.2,0.8-0.2
					c0.3,0,0.6-0.1,0.8-0.1c1.1-0.1,2.2,0.3,3.2,0.9c0.9,0.6,1.6,1.5,2,2.6c0.2,0.5,0.3,1.1,0.3,1.6c0,0.6-0.1,1.1-0.2,1.7
					c-0.3,1.1-1,2-1.9,2.6l0.2-0.5l7.6,23.1l-0.8,0l7.8-23.1l0.1,0.4c-0.9-0.6-1.5-1.5-1.9-2.5c-0.2-0.5-0.3-1.1-0.3-1.6
					c0-0.5,0.1-1.1,0.2-1.6c0.3-1,1-1.9,1.8-2.5c0.4-0.3,0.9-0.6,1.4-0.7C98.9,48,99.5,48,100,48c0.6,0,1.1,0.1,1.6,0.3
					c0.5,0.2,1,0.4,1.4,0.7c0.9,0.6,1.5,1.5,1.8,2.5c0.3,1,0.3,2.1,0,3.1c-0.3,1-1,1.9-1.9,2.5l0.1-0.3l7.7,23.1l-0.4,0l7.7-23
					L118,57c-0.8-0.6-1.5-1.5-1.8-2.5c-0.2-0.5-0.2-1-0.2-1.5c0-0.5,0.1-1,0.3-1.5c0.3-1,1-1.8,1.9-2.4c0.4-0.3,0.9-0.5,1.4-0.7
					c0.5-0.1,1-0.2,1.5-0.2c1,0,2.1,0.4,2.9,1.1c0.8,0.7,1.4,1.6,1.6,2.6c0.1,0.5,0.2,1,0.1,1.5c0,0.5-0.2,1-0.4,1.5
					c-0.4,1-1.1,1.8-2,2.3l0.1-0.1l0.1,20.4l-0.1,0l10.7-21.1l0,0c-0.7-0.7-1.1-1.5-1.3-2.4c-0.2-0.9-0.1-1.9,0.3-2.7
					c0.4-0.9,1-1.6,1.7-2.1C135.4,48.6,136.3,48.3,137.3,48.3z"/>
			</g>
		</g>
	</g>
	<g>
		<path class="st1" d="M47,136.7c0,0,1.7-0.1,4.5-0.2c2.9-0.1,7-0.3,12-0.4c5-0.1,10.7-0.2,16.9-0.3c3.1,0,6.3-0.1,9.6-0.1
			c3.3,0,6.6,0,9.9,0c3.3,0,6.6,0,9.9,0c3.3,0,6.5,0.1,9.6,0.1c6.2,0.1,12,0.2,16.9,0.3c5,0.1,9.1,0.3,12,0.4
			c2.9,0.1,4.5,0.2,4.5,0.2s-1.7,0.1-4.5,0.2c-2.9,0.1-7,0.3-12,0.4c-5,0.1-10.7,0.2-16.9,0.3c-3.1,0-6.3,0.1-9.6,0.1
			c-3.3,0-6.6,0-9.9,0c-3.3,0-6.6,0-9.9,0c-3.3,0-6.5-0.1-9.6-0.1c-6.2-0.1-12-0.2-16.9-0.3c-5-0.1-9.1-0.3-12-0.4
			C48.7,136.8,47,136.7,47,136.7z"/>
	</g>
</g>
</svg>
