<?xml version="1.0" encoding="utf-8"?>
<!-- Generator: Adobe Illustrator 19.2.1, SVG Export Plug-In . SVG Version: 6.00 Build 0)  -->
<svg version="1.1" id="Forma_1_1_" xmlns="http://www.w3.org/2000/svg" xmlns:xlink="http://www.w3.org/1999/xlink" x="0px" y="0px"
	 viewBox="0 0 612 493" style="enable-background:new 0 0 612 493;" xml:space="preserve">
<style type="text/css">
	.st0{fill:#1D1E1C;}
	.st1{fill:#1D1D1B;}
</style>
<g id="Forma_1">
	<g>
		<path d="M319.7,243.3h-64.4c-1.9,0-3.5,1.6-3.5,3.5v7.4c0,1.9,1.6,3.5,3.5,3.5h64.4c1.9,0,3.5-1.6,3.5-3.5v-7.4
			C323.1,244.9,321.6,243.3,319.7,243.3z M341.7,159c-3.8,0-6.9,3.1-6.9,6.9c0,1.9,0.8,3.6,2,4.9l-15.5,30.7l-0.2-29.7
			c2-1.2,3.4-3.4,3.4-5.9c0-3.8-3.1-6.9-6.9-6.9c-3.8,0-6.9,3.1-6.9,6.9c0,2.3,1.1,4.3,2.9,5.6L302.7,205l-11.3-33.5
			c1.7-1.2,2.9-3.3,2.9-5.6c0-3.8-3.1-6.9-6.9-6.9c-3.8,0-6.9,3.1-6.9,6.9c0,2.3,1.1,4.3,2.9,5.6L272.2,205l-11.1-33.6
			c1.7-1.2,2.9-3.3,2.9-5.6c0-3.8-3.1-6.9-6.9-6.9c-3.8,0-6.9,3.1-6.9,6.9c0,2.5,1.4,4.7,3.4,5.9l-0.2,29.8l-15.6-31
			c1.2-1.2,1.9-2.9,1.9-4.7c0-3.8-3.1-6.9-6.9-6.9c-3.8,0-6.9,3.1-6.9,6.9c0,3.1,2.1,5.8,5,6.6l22.6,60.2c0.5,1.4,1.8,2.3,3.3,2.3
			H318c1.4,0,2.7-0.9,3.3-2.3l22.6-60.3c2.7-0.9,4.7-3.5,4.7-6.5C348.6,162.1,345.5,159,341.7,159z"/>
	</g>
</g>
<g>
	<line class="st0" x1="223.4" y1="273.1" x2="351.6" y2="273.1"/>
	<path class="st0" d="M223.4,273.1c0,0,2-0.1,5.5-0.2c3.5-0.1,8.5-0.3,14.5-0.4c6-0.1,13-0.2,20.5-0.3c3.8,0,7.6-0.1,11.6-0.1
		c3.9,0,8,0,12,0c4,0,8,0,12,0c3.9,0,7.8,0.1,11.6,0.1c7.5,0.1,14.5,0.2,20.5,0.3c6,0.1,11,0.3,14.5,0.4c3.5,0.1,5.5,0.2,5.5,0.2
		s-2,0.1-5.5,0.2c-3.5,0.1-8.5,0.3-14.5,0.4c-6,0.1-13,0.2-20.5,0.3c-3.8,0-7.6,0.1-11.6,0.1c-3.9,0-8,0-12,0c-4,0-8,0-12,0
		c-3.9,0-7.8-0.1-11.6-0.1c-7.5-0.1-14.5-0.2-20.5-0.3c-6-0.1-11-0.3-14.5-0.4C225.4,273.2,223.4,273.1,223.4,273.1z"/>
</g>
<g>
	<path class="st1" d="M344.9,119l15.1,24.5l14.9,24.6l14.9,24.6l14.8,24.7l0.7,1.2l-0.7,1.2l-14,25.1l-14.1,25.1l-14.1,25.1
		l-14.2,25l-1,1.8l-2.1,0l-28.8,0.2l-28.8,0.1l-57.6,0.1l-2.3,0l-1.2-2l-28.7-49.9l-14.3-25l-14.2-25l-1-1.8l1-1.8l14.6-24.8
		l14.6-24.8l14.7-24.8l14.7-24.7l0.7-1.2l1.4,0l28.8,0.4l28.8,0.6l28.8,0.6L344.9,119z M344.9,119l-28.8,0.8l-28.8,0.6l-28.8,0.6
		l-28.8,0.4l2.1-1.2l-14,25.1l-14.1,25.1l-14.1,25.1l-14.2,25v-3.6l14.6,24.8l14.5,24.9l28.9,49.8l-3.5-2l57.6,0.1l28.8,0.1
		l28.8,0.2l-3.1,1.8l14.6-24.8l14.6-24.8l14.7-24.8l14.7-24.7v2.4l-14-25.1l-13.9-25.2l-13.8-25.2L344.9,119z"/>
</g>
</svg>
