<?xml version="1.0" encoding="utf-8"?>
<!-- Generator: Adobe Illustrator 19.2.1, SVG Export Plug-In . SVG Version: 6.00 Build 0)  -->
<svg version="1.1" xmlns="http://www.w3.org/2000/svg" xmlns:xlink="http://www.w3.org/1999/xlink" x="0px" y="0px"
	 viewBox="0 0 200 200" style="enable-background:new 0 0 200 200;" xml:space="preserve">
<style type="text/css">
	.st0{fill:#010202;stroke:#000000;stroke-miterlimit:10;}
	.st1{fill:#FFFFFF;}
</style>
<g id="Calque_1">
	<rect x="0.1" y="0" class="st0" width="200" height="200"/>
	<g>
		<path class="st1" d="M146.6,18c4,6.5,8.1,13,12.1,19.5s8.1,13,12,19.6l11.9,19.6l11.9,19.6l0.7,1.1l-0.7,1.2l-11.1,20.1l-11.2,20
			l-11.2,20l-11.3,20l-1,1.8h-2.1l-22.9,0.2c-7.6,0.1-15.3,0.1-22.9,0.1l-46,0.2h-2.3l-1.2-2l-22.8-39.8l-11.4-19.9l-11.3-20l-1-1.8
			l1-1.8l11.6-19.8l11.7-19.7l11.7-19.7c4-6.6,8-13.1,11.9-19.7l0.7-1.2h1.3L77.6,16l22.9,0.6c7.6,0.2,15.3,0.4,22.9,0.6
			C131.3,17.5,138.9,17.8,146.6,18z M146.6,18c-7.6,0.3-15.3,0.6-22.9,0.8c-7.6,0.2-15.3,0.5-22.9,0.6L77.9,20l-23.1,0.4l2.1-1.2
			c-3.7,6.7-7.4,13.4-11.1,20.1l-11.2,20l-11.3,20L12,99.3v-3.6l11.6,19.8l11.6,19.8l23,39.7l-3.5-2l45.9,0.1c7.6,0,15.3,0,22.9,0.1
			l22.9,0.2l-3.1,1.8l11.6-19.8l11.7-19.7l11.7-19.7l12.1-19.7v2.4l-11.1-20.1l-11-20.1c-3.7-6.7-7.3-13.5-10.9-20.2
			C153.7,31.6,150.2,24.8,146.6,18z"/>
	</g>
	<g>
		<line class="st1" x1="52.2" y1="142" x2="155.7" y2="142"/>
		<path class="st1" d="M52.2,142l4.4-0.2c2.8-0.1,6.9-0.2,11.7-0.3c4.9-0.1,10.5-0.2,16.6-0.3l9.3-0.1h9.7h9.7l9.3,0.1
			c6.1,0.1,11.7,0.1,16.6,0.3c4.8,0.1,8.9,0.2,11.7,0.3l4.4,0.2l-4.4,0.2c-2.8,0.1-6.9,0.2-11.7,0.3c-4.9,0.1-10.5,0.2-16.6,0.3
			l-9.3,0.1H104h-9.7l-9.3-0.1c-6.1-0.1-11.7-0.1-16.6-0.3c-4.8-0.1-8.9-0.2-11.7-0.3L52.2,142z"/>
	</g>
	<path class="st1" d="M98.8,53.7v-6.6c0.8,0.2,1.5,0.7,2,1.3c0.5,0.5,1.3,0.7,2,0.3c0.5-0.2,0.8-0.8,0.6-1.3c0-0.1-0.1-0.2-0.1-0.3
		c-1.2-1.3-2.8-2.1-4.5-2.4v-1.8c-0.2-0.8-1-1.3-1.8-1.1c-0.6,0.1-1,0.6-1.1,1.1v1.8c-3.2,0.5-5.7,2.8-5.7,5.5s2.4,5,5.7,5.5v6.6
		c-0.8-0.2-1.5-0.7-2-1.3c-0.5-0.5-1.3-0.7-2-0.3c-0.5,0.2-0.8,0.8-0.6,1.3c0,0.1,0.1,0.2,0.1,0.3c1.2,1.3,2.8,2.1,4.5,2.4v1.8
		c0.2,0.8,1,1.3,1.8,1.1c0.6-0.1,1-0.6,1.1-1.1v-1.8c3.2-0.5,5.7-2.8,5.7-5.5S102,54.2,98.8,53.7L98.8,53.7z M93.2,50.2
		c0.1-1.5,1.2-2.8,2.7-3.1v6.2C94.4,53,93.3,51.7,93.2,50.2z M98.8,62.3V56c1.7,0.3,2.9,2,2.5,3.7C101.1,61,100.1,62,98.8,62.3z"/>
</g>
<g id="Calque_2">
	<path class="st1" d="M137.9,132.5h-2.2V63.3c0-0.7-0.6-1.3-1.3-1.3h-24.7c-0.7,0-1.3,0.6-1.3,1.3V69h-2.6v-5.6
		c-0.8,0.8-1.7,1.4-2.6,1.9V69H91.6v-3.7c-1-0.5-1.9-1.2-2.6-1.9V69h-4c-0.7,0-1.3,0.6-1.3,1.3v11h-11c-0.7,0-1.3,0.6-1.3,1.3v49.8
		h-2.2c-0.7,0-1.3,0.6-1.3,1.3c0,0.7,0.6,1.3,1.3,1.3h68.8c0.7,0,1.3-0.6,1.3-1.3C139.3,133.1,138.7,132.5,137.9,132.5z M87.2,132.5
		h-0.9v-2.2c0-0.7-0.6-1.3-1.3-1.3c-0.7,0-1.3,0.6-1.3,1.3c0,0,0,0,0,0v2.2h-0.9v-4.4h4.4V132.5z M96.1,98.6v33.9h-6.2v-5.7
		c0-0.7-0.6-1.3-1.3-1.3h-7.1c-0.7,0-1.3,0.6-1.3,1.3v0v5.7H74V84h22.1V98.6z M97.4,81.4C97.4,81.4,97.4,81.4,97.4,81.4L97.4,81.4
		l-11,0v-9.7h22v25.6h-9.7v-4.4h4c0.7,0,1.3-0.6,1.3-1.3s-0.6-1.3-1.3-1.3c0,0,0,0,0,0h-4v-4.4h4c0.7,0,1.3-0.6,1.3-1.3
		c0-0.7-0.6-1.3-1.3-1.3c0,0,0,0,0,0h-4v-0.4C98.7,82,98.1,81.4,97.4,81.4z M98.7,99.9h22v32.6h-22V99.9z M122.1,95.5
		c-0.7,0-1.3,0.6-1.3,1.3c0,0,0,0,0,0v0.4h-2.6v-0.4c0-0.7-0.6-1.3-1.3-1.3c-0.7,0-1.3,0.6-1.3,1.3c0,0,0,0,0,0v0.4H111V64.6h22
		v67.9h-9.7V96.8C123.4,96.1,122.8,95.5,122.1,95.5z"/>
</g>
</svg>
