<svg id="Calque_3" data-name="Calque 3" xmlns="http://www.w3.org/2000/svg" viewBox="0 0 237.16 205.82">
  <title>batiment</title>
  <g id="Shape_1" data-name="Shape 1" style="isolation: isolate">
    <g>
      <path d="M408.83,277.84h-2.78V190.52a1.67,1.67,0,0,0-1.67-1.67H373.24a1.67,1.67,0,0,0-1.67,1.67v7.23h-3.34v-7.23a1.67,1.67,0,0,0-1.67-1.67h-7.23v-5a1.67,1.67,0,1,0-3.34,0v5h-7.23a1.67,1.67,0,0,0-1.67,1.67v7.23h-5a1.67,1.67,0,0,0-1.67,1.67v13.9h-13.9a1.67,1.67,0,0,0-1.67,1.67v62.85h-2.78a1.67,1.67,0,0,0,0,3.34h86.77A1.67,1.67,0,1,0,408.83,277.84Zm-58.4-85.65h14.46v5.56H350.43v-5.56Zm-5.56,85.65h-1.11v-2.78a1.67,1.67,0,1,0-3.34,0v2.78h-1.11v-5.56h5.56v5.56ZM356,235v42.83h-7.79v-7.23a1.67,1.67,0,0,0-1.67-1.67h-8.9a1.67,1.67,0,0,0-1.67,1.67v7.23h-7.79V216.66H356V235h0Zm1.67-21.69h-13.9V201.08h27.81v32.26H359.33v-5.56h5a1.67,1.67,0,1,0,0-3.34h-5v-5.56h5a1.67,1.67,0,1,0,0-3.34h-5V215A1.67,1.67,0,0,0,357.66,213.32Zm29.48,64.52H359.33V236.68h27.81v41.16Zm15.57,0H390.48V232.79a1.67,1.67,0,1,0-3.34,0v0.56H383.8v-0.56a1.67,1.67,0,1,0-3.34,0v0.56H374.9V192.19h27.81v85.65h0Z" transform="translate(-248.54 -134.82)"/>
      <path d="M366.56,274.5a1.67,1.67,0,0,0,1.67-1.67V241.69a1.67,1.67,0,1,0-3.34,0v31.15A1.67,1.67,0,0,0,366.56,274.5Z" transform="translate(-248.54 -134.82)"/>
      <path d="M373.24,274.5a1.67,1.67,0,0,0,1.67-1.67V241.69a1.67,1.67,0,1,0-3.34,0v31.15A1.67,1.67,0,0,0,373.24,274.5Z" transform="translate(-248.54 -134.82)"/>
      <path d="M379.91,274.5a1.67,1.67,0,0,0,1.67-1.67V241.69a1.67,1.67,0,1,0-3.34,0v31.15A1.67,1.67,0,0,0,379.91,274.5Z" transform="translate(-248.54 -134.82)"/>
      <path d="M382.13,203.31a1.67,1.67,0,0,0,1.67-1.67v-2.22a1.67,1.67,0,1,0-3.34,0v2.22A1.67,1.67,0,0,0,382.13,203.31Z" transform="translate(-248.54 -134.82)"/>
      <path d="M388.81,203.31a1.67,1.67,0,0,0,1.67-1.67v-2.22a1.67,1.67,0,1,0-3.34,0v2.22A1.67,1.67,0,0,0,388.81,203.31Z" transform="translate(-248.54 -134.82)"/>
      <path d="M395.48,203.31a1.67,1.67,0,0,0,1.67-1.67v-2.22a1.67,1.67,0,1,0-3.34,0v2.22A1.67,1.67,0,0,0,395.48,203.31Z" transform="translate(-248.54 -134.82)"/>
      <path d="M382.13,214.43a1.67,1.67,0,0,0,1.67-1.67v-2.22a1.67,1.67,0,0,0-3.34,0v2.22A1.67,1.67,0,0,0,382.13,214.43Z" transform="translate(-248.54 -134.82)"/>
      <path d="M388.81,214.43a1.67,1.67,0,0,0,1.67-1.67v-2.22a1.67,1.67,0,0,0-3.34,0v2.22A1.67,1.67,0,0,0,388.81,214.43Z" transform="translate(-248.54 -134.82)"/>
      <path d="M395.48,214.43a1.67,1.67,0,0,0,1.67-1.67v-2.22a1.67,1.67,0,1,0-3.34,0v2.22A1.67,1.67,0,0,0,395.48,214.43Z" transform="translate(-248.54 -134.82)"/>
      <path d="M382.13,225.56a1.67,1.67,0,0,0,1.67-1.67v-2.22a1.67,1.67,0,1,0-3.34,0v2.22A1.67,1.67,0,0,0,382.13,225.56Z" transform="translate(-248.54 -134.82)"/>
      <path d="M388.81,225.56a1.67,1.67,0,0,0,1.67-1.67v-2.22a1.67,1.67,0,1,0-3.34,0v2.22A1.67,1.67,0,0,0,388.81,225.56Z" transform="translate(-248.54 -134.82)"/>
      <path d="M395.48,225.56a1.67,1.67,0,0,0,1.67-1.67v-2.22a1.67,1.67,0,1,0-3.34,0v2.22A1.67,1.67,0,0,0,395.48,225.56Z" transform="translate(-248.54 -134.82)"/>
      <path d="M335.41,230a1.67,1.67,0,0,0,1.67-1.67v-2.22a1.67,1.67,0,0,0-3.34,0v2.22A1.67,1.67,0,0,0,335.41,230Z" transform="translate(-248.54 -134.82)"/>
      <path d="M342.09,230a1.67,1.67,0,0,0,1.67-1.67v-2.22a1.67,1.67,0,0,0-3.34,0v2.22A1.67,1.67,0,0,0,342.09,230Z" transform="translate(-248.54 -134.82)"/>
      <path d="M348.76,230a1.67,1.67,0,0,0,1.67-1.67v-2.22a1.67,1.67,0,0,0-3.34,0v2.22A1.67,1.67,0,0,0,348.76,230Z" transform="translate(-248.54 -134.82)"/>
      <path d="M335.41,241.13a1.67,1.67,0,0,0,1.67-1.67v-2.22a1.67,1.67,0,0,0-3.34,0v2.22A1.67,1.67,0,0,0,335.41,241.13Z" transform="translate(-248.54 -134.82)"/>
      <path d="M342.09,241.13a1.67,1.67,0,0,0,1.67-1.67v-2.22a1.67,1.67,0,0,0-3.34,0v2.22A1.67,1.67,0,0,0,342.09,241.13Z" transform="translate(-248.54 -134.82)"/>
      <path d="M348.76,241.13a1.67,1.67,0,0,0,1.67-1.67v-2.22a1.67,1.67,0,0,0-3.34,0v2.22A1.67,1.67,0,0,0,348.76,241.13Z" transform="translate(-248.54 -134.82)"/>
      <path d="M335.41,252.25a1.67,1.67,0,0,0,1.67-1.67v-2.22a1.67,1.67,0,1,0-3.34,0v2.22A1.67,1.67,0,0,0,335.41,252.25Z" transform="translate(-248.54 -134.82)"/>
      <path d="M342.09,252.25a1.67,1.67,0,0,0,1.67-1.67v-2.22a1.67,1.67,0,1,0-3.34,0v2.22A1.67,1.67,0,0,0,342.09,252.25Z" transform="translate(-248.54 -134.82)"/>
      <path d="M348.76,252.25a1.67,1.67,0,0,0,1.67-1.67v-2.22a1.67,1.67,0,1,0-3.34,0v2.22A1.67,1.67,0,0,0,348.76,252.25Z" transform="translate(-248.54 -134.82)"/>
      <path d="M335.41,263.38a1.67,1.67,0,0,0,1.67-1.67v-2.22a1.67,1.67,0,0,0-3.34,0v2.22A1.67,1.67,0,0,0,335.41,263.38Z" transform="translate(-248.54 -134.82)"/>
      <path d="M342.09,263.38a1.67,1.67,0,0,0,1.67-1.67v-2.22a1.67,1.67,0,0,0-3.34,0v2.22A1.67,1.67,0,0,0,342.09,263.38Z" transform="translate(-248.54 -134.82)"/>
      <path d="M348.76,263.38a1.67,1.67,0,0,0,1.67-1.67v-2.22a1.67,1.67,0,0,0-3.34,0v2.22A1.67,1.67,0,0,0,348.76,263.38Z" transform="translate(-248.54 -134.82)"/>
      <path d="M395.48,236.68a1.67,1.67,0,0,0,1.67-1.67v-2.22a1.67,1.67,0,1,0-3.34,0V235A1.67,1.67,0,0,0,395.48,236.68Z" transform="translate(-248.54 -134.82)"/>
      <path d="M395.48,247.81a1.67,1.67,0,0,0,1.67-1.67v-2.22a1.67,1.67,0,1,0-3.34,0v2.22A1.67,1.67,0,0,0,395.48,247.81Z" transform="translate(-248.54 -134.82)"/>
      <path d="M395.48,258.93a1.67,1.67,0,0,0,1.67-1.67V255a1.67,1.67,0,1,0-3.34,0v2.22A1.67,1.67,0,0,0,395.48,258.93Z" transform="translate(-248.54 -134.82)"/>
      <path d="M395.48,270.05a1.67,1.67,0,0,0,1.67-1.67v-2.22a1.67,1.67,0,1,0-3.34,0v2.22A1.67,1.67,0,0,0,395.48,270.05Z" transform="translate(-248.54 -134.82)"/>
      <path d="M366,208.32a1.67,1.67,0,0,0-1.67-1.67H351a1.67,1.67,0,1,0,0,3.34h13.35A1.67,1.67,0,0,0,366,208.32Z" transform="translate(-248.54 -134.82)"/>
    </g>
  </g>
  <circle cx="109.12" cy="44.83" r="15.22" style="fill: #fff;stroke: #fff;stroke-miterlimit: 10;stroke-width: 2px"/>
  <path d="M359.5,178.35v-8.27a5.26,5.26,0,0,1,2.58,1.63,2.15,2.15,0,0,0,2.55.42,1.29,1.29,0,0,0,.52-2,9.28,9.28,0,0,0-5.65-3v-2.31a1.89,1.89,0,0,0-3.68,0v2.31c-4.07.67-7.13,3.54-7.13,7s3.07,6.28,7.13,7v8.27a5.26,5.26,0,0,1-2.58-1.63,2.15,2.15,0,0,0-2.55-.42,1.29,1.29,0,0,0-.52,2,9.28,9.28,0,0,0,5.65,3v2.31a1.89,1.89,0,0,0,3.68,0v-2.31c4.07-.67,7.13-3.54,7.13-7s-3.07-6.28-7.13-7h0ZM352.37,174a4.37,4.37,0,0,1,3.46-3.93v7.86A4.37,4.37,0,0,1,352.37,174Zm7.13,15.23v-7.86A4,4,0,0,1,359.5,189.23Z" transform="translate(-248.54 -134.82)"/>
  <path d="M425.37,137.25l15.06,24.54,14.94,24.61L470.23,211,485,235.75l0.69,1.16L485,238.14l-14,25.13-14.12,25.08-14.14,25.07-14.23,25-1,1.78h-2.1l-28.78.19-28.78.1-57.56.12h-2.31l-1.15-2-28.68-49.91-14.31-25-14.23-25-1-1.83,1-1.77,14.55-24.83,14.64-24.78,14.66-24.77L308.17,136l0.73-1.22,1.35,0L339,135.29l28.78,0.55,28.78,0.64Zm0,0-28.78.77-28.78.64-28.78.55-28.78.44,2.08-1.2-14,25.13-14.12,25.08L270,213.73l-14.23,25v-3.6L270.36,260l14.47,24.88,28.88,49.79-3.46-2,57.56,0.12,28.78,0.1,28.78,0.19-3.11,1.79L436.82,310l14.64-24.78,14.66-24.77,14.74-24.72v2.39l-14-25.14-13.92-25.2L439.1,162.56Z" transform="translate(-248.54 -134.82)" style="fill: #1d1d1b"/>
  <g>
    <line x1="55.38" y1="154.84" x2="183.61" y2="154.84" style="fill: #1d1d1b"/>
    <path d="M303.92,289.66l5.51-.19c3.51-.09,8.51-0.27,14.53-0.38s13-.24,20.54-0.31l11.58-.09,12,0,12,0,11.58,0.09c7.51,0.07,14.53.18,20.54,0.31s11,0.29,14.53.38l5.51,0.19-5.51.19c-3.51.09-8.51,0.27-14.53,0.38s-13,.24-20.54.31l-11.58.09-12,0-12,0-11.58-.09c-7.51-.07-14.53-0.18-20.54-0.31s-11-.29-14.53-0.38Z" transform="translate(-248.54 -134.82)" style="fill: #1d1d1b"/>
  </g>
</svg>
