<?xml version="1.0" encoding="utf-8"?>
<!-- Generator: Adobe Illustrator 21.0.0, SVG Export Plug-In . SVG Version: 6.00 Build 0)  -->
<svg version="1.1" xmlns="http://www.w3.org/2000/svg" xmlns:xlink="http://www.w3.org/1999/xlink" x="0px" y="0px"
	 viewBox="0 0 1000 1000" style="enable-background:new 0 0 1000 1000;" xml:space="preserve">
<style type="text/css">
	.st0{fill:#FFFFFF;stroke:#000000;stroke-width:60;stroke-miterlimit:10;}
	.st1{display:none;}
	.st2{display:inline;}
</style>
<g id="Layer_1">
	<polygon class="st0" points="138.4,138.4 138.4,861.6 636,861.6 861.6,636 861.6,138.4 	"/>
</g>
<g id="Layer_3" class="st1">
	<g>
		<path class="st2" d="M216.2,212.5h34.6v161.7h-34.6V212.5z"/>
		<path class="st2" d="M290,212.5h34.6v161.7H290V212.5z"/>
	</g>
	<g>
		<path class="st2" d="M253.7,212.5h34.6v161.7h-34.6V212.5z"/>
	</g>
	<g class="st2">
		<path d="M204.8,204.4h34.3V363h-34.3V204.4z"/>
		<path d="M262.3,204.4h34.3V363h-34.3V204.4z"/>
		<path d="M319.7,204.4H354V363h-34.3V204.4z"/>
	</g>
	<g id="Layer_2" class="st2">
		<g>
			<path d="M665.3,379.8c40.4-47.1,79.8-93.1,119.8-139.9c8.2,7.2,16.3,13.9,24,21.1c3.3,3.1,1.9,6.6-0.7,9.6
				c-3.2,3.7-6.9,4.1-10.6,1.2c-3.3-2.6-5.9-2.9-8.6,0.7c-2.1,2.8-2.4,5,0.7,7.6c4.2,3.4,4.3,7.5,0.6,11.6c-3.4,3.7-7.2,4.2-11,0.6
				c-3.5-3.3-6-1.4-8.4,1.5c-18.9,22.2-38,44.4-56.9,66.6c-19.2,22.6-38.3,45.2-57.4,67.8c-2.6,3.1-5.1,6.2-7.9,9.1
				c-2.9,3-3.1,5.2,0.3,8.4c3.5,3.3,6.4,7.4,8.5,11.7c4.8,9.7,3.2,18.9-3.8,27.1c-18.9,22.2-38.4,44-56.7,66.7
				c-11.3,14.1-28.9,12.3-39.6,4.4c-2.9-2.1-5.8-4.3-8.3-6.8c-4-3.9-6.8-3.5-10.3,0.9c-9.5,11.6-19.5,22.8-29.1,34.4
				c-3.4,4.2-5.9,4.7-10.3,0.9c-32.4-27.9-64.9-55.6-97.5-83.2c-4.6-3.9-5.1-6.5-0.8-11.2c10.1-11.1,19.5-22.8,29.5-34
				c3.5-3.9,3.4-6.7-0.7-9.8c-8.4-6.4-15.6-13.5-17.5-24.7c-1.2-6.8-0.1-12.8,4.2-17.8c20.2-23.9,40.5-47.8,61-71.4
				c8.8-10.2,21.8-11.2,33.8-3.5c4,2.6,7.8,5.6,11.7,8.5c0.6-0.2,1.3-0.4,1.9-0.5c0.1-6.7,0.2-13.3,0.2-20
				c-0.1-7.8-0.5-15.7-0.4-23.5c0.1-4.6-1.5-6.6-6.2-6.5c-14.1,0.2-14.1,0.1-14.2-14c0-5.9,0.3-11.9,0.1-17.8c-0.2-5,2-6.7,6.7-6.8
				c12.1-0.2,24.1-0.7,36.2-1c16.1-0.3,32.2-0.5,48.3-0.9c11-0.2,22-0.5,33-1c5.3-0.2,7.1,1.8,6.9,7.1c-0.4,9.1-0.5,18.2-0.3,27.3
				c0.1,4.7-1.5,6.7-6.3,6.1c-2.1-0.3-4.4-0.6-6.3,0c-1.7,0.5-4.3,2.2-4.3,3.4c-0.1,9,0.3,18,0.6,28.8c2.9-2.4,4.4-3.4,5.6-4.7
				c24-28,47.8-56,71.8-83.9c2.6-3,3.6-5.6,0.3-8.7c-3.4-3.1-3.3-6.5-0.4-10.1c2.9-3.6,6.6-4.1,10.2-2c3.4,2,5.8,2.7,8.6-0.9
				c2.7-3.4,1.4-5.7-1.1-8.2c-3.4-3.5-2.3-6.8,0.5-10.1c3-3.5,6.8-3.9,10.2-1.3c6.5,5,12.6,10.6,19,15.9c3.4,2.8,0.8,4.8-1,6.8
				c-12.4,14.5-24.7,29-37.1,43.4c-38,44.6-76.1,89.2-114.1,133.7c-1.2,1.4-2.4,3-4.9,5.8c2.3,1.8,4.5,3.6,6.8,5.5
				c9,7.4,18.1,14.6,26.9,22.3c3.9,3.4,6.4,2.8,9.4-0.9c3.3-4.1,6.8-7.9,10.7-12.4"/>
			<path d="M342.2,676.9c12.8-14.9,25.6-29.7,38.5-44.6c17-19.7,34.1-39.3,51.2-59c5.8-6.7,6.1-6.7,12.5-1.2
				c11.1,9.5,22.2,19,33.3,28.5c1.3,1.1,2.4,2.3,4.1,4c-6.1,7.2-12,14.3-18,21.4c-8.8,10.3-17.6,20.5-26.3,31
				c-2.9,3.5-5.3,4.4-8.6,0.7c-1.3-1.4-2.9-2.5-4.3-3.7c-8.4-6.9-8.4-6.9-15.7,1.6c-3.3,3.9-6.6,7.7-9.8,11.6
				c-2.6,3.2-5.1,3.5-7.8,0.3c-0.1-0.2-0.3-0.3-0.5-0.4c-15.6-12.6-9.4-11.6-25.5-1.2c-5.5,3.5-10.6,7.7-16,11.4
				c-1.7,1.1-3.9,1.4-5.9,2.1C342.9,678.5,342.6,677.7,342.2,676.9z"/>
			<path d="M427.3,557.7c-32.4,37.3-64.1,73.9-95.8,110.4c-0.7-0.4-1.4-0.8-2.2-1.2c0.1-1.5-0.1-3.1,0.5-4.4
				c4.2-8.7,8.3-17.5,12.9-26.1c2.8-5.1,2.9-9.1-2.4-12.4c-1.1-0.7-1.9-1.6-3-2.4c-4-3-4.7-5.9-0.8-9.8c4.6-4.7,8.5-10,12.9-14.8
				c2.7-3,2.6-5-0.5-7.8c-10.6-9.7-10.6-9.9-1.1-21c11.6-13.7,23.4-27.3,35.1-41c1.9-2.2,3.7-4.4,6.8-1.8
				C402.2,535.9,414.5,546.6,427.3,557.7z"/>
			<path d="M509.4,603.1c-2.1,2.8-3.4,6-5.1,6.2c-3.2,0.5-7.4,0.3-10-1.4c-6.2-4.3-11.8-9.6-17.6-14.5c-33-28.2-65.9-56.4-98.8-84.6
				c-0.5-0.4-0.9-0.8-1.4-1.3c-3.7-3.8-4.7-9.9-1.5-12.5c4-3.3,8.4-2.6,12.2,0.5c9.9,8.2,19.7,16.6,29.5,25
				c28.6,24.5,57.2,48.9,85.7,73.6C505.1,596.4,506.8,599.8,509.4,603.1z"/>
			<path d="M279,718.7c-1.5,1.9-2.3,3.1-3.4,4.1c-6.1,5.5-12.3,10.9-18.2,16.5c-3.3,3.2-5.8,2.4-8.5-0.6c-2.6-2.9-3.6-5.5,0-8.5
				c6.4-5.5,12.5-11.3,18.9-16.7c1.3-1.1,4.1-1.8,5.3-1.1C275.5,713.9,277.1,716.5,279,718.7z"/>
			<path d="M219.1,772.2c-1.4-2.6-3.1-5.1-4-7.9c-0.4-1.4,0.4-3.8,1.5-4.8c6.5-6.1,13.2-11.9,19.8-17.8c3.2-2.9,5.5-0.8,7.5,1.5
				c1.9,2.2,3.8,4.7,0.5,7.6c-6.8,6-13.5,12.2-20.3,18.2c-0.7,0.7-1.8,0.9-2.7,1.4C220.6,771,219.9,771.6,219.1,772.2z"/>
			<path d="M284,713.9c-1.9-2-4.1-3.6-5.2-5.9c-0.6-1.3,0-4.2,1.1-5.3c6.2-6,12.7-11.7,19.1-17.5c3.5-3.2,6.1-1,8.5,1.7
				c2.4,2.6,2.9,4.9-0.2,7.5c-6.4,5.5-12.6,11.2-18.9,16.8C287.5,712.1,286.1,712.6,284,713.9z"/>
			<path d="M305,727.5c-6.3-0.7-9-6.6-5.8-10.8c4.9-6.6,10.2-13,15.1-19.5c2.6-3.5,5.1-2.9,7.9-0.4c2.5,2.2,5,4,2,7.8
				c-5.3,6.5-10.4,13.3-15.7,19.9C307.4,725.8,305.8,726.8,305,727.5z"/>
			<path d="M226.4,827.7c-4.5-0.3-8.3-6.1-6.1-9.4c5.4-7.8,11.2-15.2,17.3-22.5c0.7-0.8,4.6-0.2,5.8,1c1.6,1.6,3.5,5.4,2.7,6.5
				c-5.6,8.1-11.9,15.8-18,23.5C227.7,827.5,226.7,827.6,226.4,827.7z"/>
			<path d="M302.1,777.7c-6.6-0.5-8.9-4.3-6.6-8.9c3.8-7.3,7.8-14.4,11.6-21.7c1.6-3.2,3.5-4.5,7-2.5c2.9,1.7,5.8,3.4,3.9,7.3
				c-4.1,8.1-8.3,16.1-12.7,24C304.6,777.1,302.6,777.5,302.1,777.7z"/>
			<path d="M215.2,776c-0.8,1.2-1.5,2.5-2.5,3.4c-6.4,5.9-12.9,11.5-19.3,17.5c-3.2,3-5.3,1.2-7.5-1.1c-2.3-2.5-4.1-5.2-0.8-8.2
				c6.4-5.8,12.8-11.6,19.4-17.1c1.3-1.1,3.9-1.6,5.5-1c2.5,0.9,4.5,3,6.8,4.5C216.2,774.7,215.7,775.3,215.2,776z"/>
			<path d="M299.3,786.9c-1.3,2.6-2,4.1-2.8,5.6c-3.3,6.3-6.6,12.6-9.9,19c-2.3,4.4-5.5,5.4-9.8,2.9c-4.2-2.4-2.9-5.6-1.3-8.7
				c3.7-7.1,7.3-14.1,11.5-21c0.9-1.4,3.9-2.7,5.4-2.3C295,783.2,297.1,785.4,299.3,786.9z"/>
			<path d="M262.2,853c-7.2-0.9-9-4.4-6.4-9.6c3.4-6.7,7.1-13.4,10.5-20.1c2.2-4.2,4.9-5.1,9.2-2.6c4.1,2.4,3.3,5.4,1.6,8.6
				c-3.6,6.9-7.2,13.7-11.1,20.4C265,851.3,263,852.3,262.2,853z"/>
			<path d="M322.3,740.7c-6.6-0.2-9.5-4.8-7-9.6c3.7-7,7.6-14,11.3-21.1c1.9-3.5,4.2-4.3,7.7-2.2c3.1,1.9,5.7,3.4,3.2,7.8
				c-4,6.9-7.3,14.1-11.2,21.1C325.3,738.6,323.3,739.8,322.3,740.7z"/>
			<path d="M279,760c-6.4-0.6-8.9-5.9-5.7-10.2c4.8-6.4,9.9-12.6,14.8-18.9c2.6-3.4,5.5-3.5,8.7-0.8c2.9,2.4,3.7,4.9,1.1,8.1
				c-5.1,6.4-10.1,12.9-15.3,19.3C281.6,758.8,279.8,759.5,279,760z"/>
			<path d="M273.3,767.7c-0.5,1.5-0.5,2.3-0.9,2.7c-5.8,7.5-11.4,15.2-17.6,22.3c-0.9,1.1-5.4,0.5-6.9-0.9c-1.5-1.3-2.7-5.4-1.8-6.8
				c5-7.3,10.6-14.2,16.3-20.9c1.1-1.2,4.4-1.7,6-1C270.5,763.9,271.9,766.3,273.3,767.7z"/>
		</g>
	</g>
</g>
<g id="Layer_4">
	<g class="st1">
		<path class="st2" d="M724.5,363.2c-2.5,1-5,2.1-7.7,2.7c-3.1,0.6-13.1,1.6-13.7-0.7c-0.5-2.3,1.5-5.3,2.6-6.5
			c8.1-7.7,98.5-90.3,98.4-92.7c0-1-0.1-2.1-1.2-2.5c-2.4-0.8-116.1,62.6-124.9,57.7c-6.1-0.2,11.6-31.5,14.4-37
			c3.9-7.9,16.2-25.7,17.5-27c7.6-7.3,78.5-98.5,81.3-104.5c0.8-1.6,1.9-3.2,0.2-4.4c-2-1.4-3,0.7-3.9,2
			c-2.8,3.9-144.1,149.7-148,146.3c-1.3-0.7-2.4-1.5-3.4-2.3c-5.7-4.4,7.9-37.6,10.2-43.9c3.2-8.9,7.8-17.4,11.8-26.1
			c4-8.6,27.2-54.7,27.3-58.7c25.9-48.8-1.5-4.4-2.3-3.2c-2,3-80.2,125.1-88.9,117.8c-11.5-9.7,9.1-98.2,10.8-103.7
			c2.5-8.4,22.8-126.2,21.7-126.5c-1.4-0.4-66.4,215.1-84,210.6c-18.3-0.7-6.8-149.2-9.5-148.5c-1.4,0.3-4.8,21.7-5.1,24.1
			c-0.7,5.4-22.7,105.6-24.1,109.3c-2.3,6-5.1,9.3-11.8,9C475,254.7,442,65.2,440.4,65.8c-1.3,0.4,14.3,188.4,13.6,196
			c-0.3,3.7-0.6,6.2-3.6,9c-5.5,5.2-7.4,5.5-11.9-0.6c-0.9-1.2-1-3.9-3.4-2.6c-1.5,0.9-2.3,3-1.5,4.9c1.8,4.2,30,72.9,33.4,76.4
			c2.1,2.2,5.3,3.8,8.6,0.4c3.1-3.2,2-39.3,4.1-39.7c2.1-0.4,2.3,1.3,2.3,3c-0.2,7.3,17,89.1,18.9,92.5c1.3,2.3,3.3,4.4,5.8,4.1
			c2.2-0.3,4-2.2,4.5-5c0.3-1.7,0.5-4.4,3.5-4.2c0.1,1.4,14.2,17.1,14.4-0.4c0-1,6.6-37.6,16.1-42.9c6.4,5.3-9,62.4-10.2,67.5
			c-1.1,4.7-0.7,8.7,3.7,10.9c4.2,2.1,8.7-0.4,11.2-3c2.6-2.9,21.9-21,24.7-24.1c3.4-3.8,10.9-13.5,11.5-14c0.7-0.4,5.8-6,6.4-5.2
			c0.3,0.4-4,6.9-4.3,7.3c-2.5,2.8-15.3,18.7-18.3,25.2c-1.7,3.7-2.6,7-2.8,10.7c-0.2,3.3,0.8,5.5,5.1,4.8c1.1-0.2,3.3-1.7,4.5,0.5
			c1.3,2.5-1.4,3-2.3,4.4c-1.6,2.4-3,5.1,0.6,6.6c2.9,1.1,18.3-4.7,22.6-6.5c4.3-1.8,70.6-30.4,78.7-32.3
			c-0.3,0.8-25,14.4-27.4,19.7c-0.9,2-2.7,3.5-1.4,5.6c1.4,2.2,4.4,4,6.5,3.5c3.3-0.8,69.6-22.3,77.3-22.3c2.3,0,5.2-2.5,5.8-5.3
			c0.7-3.4-2.7-2.6-4.5-3.6c-2.1-1.2-7.4-1.5-4.4-5c4-4.6,8.4-9.1,13.3-13.1c5.3-4.3,153.5-87.6,161.3-92.5c2.2-1.4,4-2.7,5.5-5
			c-5.2-2.3-8.5,1.2-12.2,2.5L724.5,363.2z"/>
		<path class="st2" d="M128.3,255.5c5.2-1.2,165.3,83,171.2,86.9c6.8,4.4,14.7,7.5,23,8.3c2.1,0.2,4.8,0.1,7-0.6
			c2-0.6,3.3-2,3.7-4.3c1.7-11.9-90.3-121.7-94.5-125.2c-0.6-0.5-0.1-2.7,0.7-2.4c1.5,0.8,157,141.1,160.3,142.7
			c8.9,4.1,6.6-3.3,5.7-5.8c-1-2.6-0.3-3.9,1.4-5.4c9.6,1,48.8,72.1,47.5,77.5c-0.4,1.8,0.1,4.1-2.3,4.5c-2,0.4-4.4,1-6.1-1.1
			c-0.3-0.4-0.4-1.2-0.7-1.3c-1.1-0.3-3.2,1-3.2,2.2c0,0.2,3.3,9.1-5.4,8.7c-3.2-0.1-45.9-23.4-46.4-22.7c-0.6,0.8,0.4,1.5,1.1,2
			c4.4,3.8,45.8,33.1,49,35.7c2.4,2,4.6,4.5,6.7,6.9c1.2,1.4-2.1,9.2-6.4,9.4c-6.7,0.3-108.2-4.1-111-4.3
			c1.5,1.8,99.6,20.1,106.5,20.8c3.8,0.4,3.7,5.1,3.8,7.7c0.1,1.7-1.9,5.5-4.6,5.6c-5.2,0.1-108.5,42.5-108.7,43.9
			c1.1-4.9,49-10.4,55.8-10.4c3.5,0,4.9,8.7,2.5,10.4c-2.9,2.1-83,44-95.3,50.2c-2.2,1.1-5.2,0.5-8.1-0.2c1-2.5,13.3-12.1,12.6-15
			C293,578,160,594.7,155,595.9c-2.8,0.7-5.3,1.9-8.4,2.2c-2.5,0.2-3.3-1.1-3.7-2.2c-0.3-0.8,1.3-1.8,2.9-2.5
			c6.1-2.5,130.3-57.3,131.6-59.7c0.7-1.3-0.9-2.6-3.1-3.1c-1.9-0.4-170.6-6.5-180-6.3c-5,0.1-10-0.4-15,0.3
			c-2.3,0.3-4.4-2.4-4.7-3.9c-0.4-2.7,2.3-4.1,4.9-4.2c4.1-0.2,196.5-25.9,197.8-32.8c3.7-19.6-266.9-59.2-266.9-62.5
			c0-4.2,4.3-2.8,6.3-2.7c5.1,0,266.9,19.8,266.7,17.4c0-0.6,0.4-0.9-0.8-2.3c-9.5-10.5-103.4-57-102.7-57.7c0.8-1,1.1-1.9,3.3-2.1
			c7.6-0.8,107.6,21.4,113.4,22.1c3.4,0.4,6.1,1.4,7.2-3.5c0-0.5-0.2-1-0.1-1.4c3.1-13-165-128.8-174.8-134.3
			C128.5,256.6,128.5,256.2,128.3,255.5z"/>
		<path class="st2" d="M622,698.7c-2-1.7-4.1,9.1-3.9,11c0.4,7.2,65,194.1,63.3,194.7c-0.9,0.4-3,0.8-3.6-1.3
			c-1.4-4.5-93.4-199.9-102.9-183.7c-2.9,2.1-5.2,3.8-5.5,8.3c-0.5,9.6,7.4,144.1,4.9,144.2c-2.4,0.1-2.6-2.2-3-4.7
			c-0.5-3.6-62.2-268.2-61.9-283c0.1-4.7,2.7-8.9,5.3-12.8c2-2.9,6.6-2.3,8.4,0.8c0.4,0.7,0.7,1.5,0.9,2.3c0.4,2.4,1.8,4.8,3.7,4.8
			c3.3,0,1.9-9.4,4.3-10.2c2.5-0.8,3.5,1.7,4.9,3.2c4.1,4.4,6.2,9.9,9.1,14.9c3.5,6.1,15.1,31,17.3,36.8
			c0.3,0.9-14.9-66.6-15.1-72.6c-0.1-3.7,1.7-4.8,3.9-6.1c2.3-1.3,59.8,47.3,60.6,48.1c0.4-4.2,0.3-7.7-3-11
			c-1.5-1.5-1.4-5.2-1.2-7.8c0.1-1.6-0.2-3.2-0.1-5.1c-4.2-12.5,91.7,56.4,93.7,59.5c2.3,5.3-1.6,4.9-6.6,3.6
			c-1.5-0.2-3.3-1.4-4,0.5c-0.6,1.9-1,4.1,0.2,6.3c4.8,8.4,140.1,156.6,138.8,158c-1.2,1.4-2.4,0.6-3.5-0.3
			c-0.9-0.7-153.8-130.5-163-125.2c-15.7,9.2,43.4,109.3,42.6,118.3C706.7,791.2,625.5,701.5,622,698.7z"/>
		<path class="st2" d="M749,596.2c3.8-0.4,109.4,32.4,115.8,32.1c0.1,0,7.9,2.5,18.1,5.7c0.5-3.7,1.3-7.3,2.4-10.9
			c-55.1-25.4-138.2-63.2-142-65.4c-3.9-2.2-13.2-9.9-3.9-13.7c2.4-0.9,4.8-1.3,7.3-1.5c6.8-0.4,111.2,14.3,111.9,12.7
			c0.6-1.3-0.5-3.1-1.1-3c-2.8,0.4-146.3-40.1-149.6-40.7c-5-0.9-7.8-7.7-5.5-12.1c4.2-8.1,11.9-11.4,19.7-12.8
			c5.3-1,104.5-25.6,107-26.4c1.5-0.4,2-1.5,2-2.5c-0.1-1.6-1.5-1.2-2.7-1.2c-3.8,0.1-212.5,27.4-215.6,28.5
			c-7.2,2.6-8.5,7.8-4.4,13.9c1.7,2.5,3.5,3.6,4.6,8.3c-0.1,0.2-23.2-3.2-27.8-2.7c-2.1,0.2-5.2-0.7-5.3,2.4
			c-0.1,2.5-0.2,5.5,3.2,7.2c7.4,3.7,85.4,35.5,89.7,36.9c2.4,0.8,2.1,3.2,1.4,2.9c-4.6-1.7-30.5-5.4-33.9-5.2
			c-3.3,0.2-6.7,0.3-7.9,2.8c-1.2,2.6-4.3,6-0.4,9.3c0.9,0.8,121.6,83.6,122.3,84.3c11.5,10.6,4.7,1.7,3.8-0.6
			c-1.5-3.3-11.6-18.2-13.4-22.8c-2.1-5.4-4.2-10.7-4.4-16.4C740,600,743.7,596.8,749,596.2z"/>
		<path class="st2" d="M491.5,552.6c1.8-1.3,3.5-4,6-2.7c2.6,1.4,5.1,3.7,5.2,6.9c0.1,4.7-5.9,107.7-8.9,111.9
			c-0.6,0.9-0.6,2.7-2.1,2.1c-1.1-0.4-3.3-0.8-2.7-2.9c1.2-3.9-8.8-3.8-10.4-1.6c-2,2.8-62.7,168.5-61.3,173.7
			c-2.3,0.5,17.7-114.1,16.6-120.5c-0.2-1.3-0.8-9.9-3.9-10.5c-2.6-0.5-113.5,190.1-114,193c-0.3,1.9-4.7,0.3-4.1-0.4
			c1-1.1,73.4-200.6,73.1-207.7c0-1-0.1-2.8-1.5-2.7c-1.1,0.1-2.4,0.5-3.6,0.9c-5.3,2.2-9.5,7.3-16.4,5.8
			c0-10.9,78.5-120.6,81.6-123.6c1.9-1.8,3.6-2.5,6.3-1.4c2.8,1.2,2.3,3.4,2.4,5.4c0.2,8.2-28.5,81.3-30.9,88.8
			C422.9,667.2,487.6,555.4,491.5,552.6z"/>
		<path class="st2" d="M347.9,660c-9.5,0.8-84,70.8-85.3,68.2c-0.7-1.5,64.1-85.5,60.7-90c-1.9-2.6-17.3-4.5-18-7.8
			c-0.4-1.9,0.5-3.6,2.1-4.2c2.2-0.8,120.2-74.6,126.4-72.7c3.2,1,5,3.3,3.4,6.3c-2.5,4.7-74.9,110-79,115.8c-1,1.4-3.4,1.4-5.2,0.6
			c-1.1-0.5-1-1.7-0.6-2.7C355.2,665.2,355.2,665.2,347.9,660z"/>
	</g>
	<g>
		<path d="M741.4,388.7c4.4-3.5,106.1-60.9,145.8-83.6c0.7-1.6,1.5-3.2,2.3-4.8c-0.9-0.9-1.7-2-2.3-3.1l-162.7,65.9
			c-2.5,1-5,2.1-7.7,2.7c-3.1,0.6-13.1,1.6-13.7-0.7c-0.5-2.3,1.5-5.3,2.6-6.5c8.1-7.7,98.5-90.3,98.4-92.7c0-1-0.1-2.1-1.2-2.5
			c-2.4-0.8-116.1,62.6-124.9,57.7c-6.1-0.2,11.6-31.5,14.4-37c3.9-7.9,16.2-25.7,17.5-27c7.6-7.3,78.5-98.5,81.3-104.5
			c0.8-1.6,1.9-3.2,0.2-4.4c-2-1.4-3,0.7-3.9,2c-2.8,3.9-144.1,149.7-148,146.3c-1.3-0.7-2.4-1.5-3.4-2.3
			c-5.7-4.4,7.9-37.6,10.2-43.9c3.2-8.9,7.8-17.4,11.8-26.1c4-8.6,27.2-54.7,27.3-58.7c25.9-48.8-1.5-4.4-2.3-3.2
			c-2,3-80.2,125.1-88.9,117.8c-11.5-9.7,9.1-98.2,10.8-103.7c1.1-3.8,5.9-30.2,10.7-57.8c-3.8-0.5-7.6-1.1-11.4-1.8
			c-20.9,62.7-50.6,146.5-61.7,143.7c-18.3-0.7-6.8-149.2-9.5-148.5c-1.4,0.3-4.8,21.7-5.1,24.1c-0.7,5.4-22.7,105.6-24.1,109.3
			c-2.3,6-5.1,9.3-11.8,9c-11.6,0.4-30.4-85.8-41.9-141.7c-2.5-0.9-4.9-1.5-7.2-2.5c4.1,56.2,11.3,146.6,10.9,151.8
			c-0.3,3.7-0.6,6.2-3.6,9c-5.5,5.2-7.4,5.5-11.9-0.6c-0.9-1.2-1-3.9-3.4-2.6c-1.5,0.9-2.3,3-1.5,4.9c1.8,4.2,30,72.9,33.4,76.4
			c2.1,2.2,5.3,3.8,8.6,0.4c3.1-3.2,2-39.3,4.1-39.7c2.1-0.4,2.3,1.3,2.3,3c-0.2,7.3,17,89.1,18.9,92.5c1.3,2.3,3.3,4.4,5.8,4.1
			c2.2-0.3,4-2.2,4.5-5c0.3-1.7,0.5-4.4,3.5-4.2c0.1,1.4,14.2,17.1,14.4-0.4c0-1,6.6-37.6,16.1-42.9c6.4,5.3-9,62.4-10.2,67.5
			c-1.1,4.7-0.7,8.7,3.7,10.9c4.2,2.1,8.7-0.4,11.2-3c2.6-2.9,21.9-21,24.7-24.1c3.4-3.8,10.9-13.5,11.5-14c0.7-0.4,5.8-6,6.4-5.2
			c0.3,0.4-4,6.9-4.3,7.3c-2.5,2.8-15.3,18.7-18.3,25.2c-1.7,3.7-2.6,7-2.8,10.7c-0.2,3.3,0.8,5.5,5.1,4.8c1.1-0.2,3.3-1.7,4.5,0.5
			c1.3,2.5-1.4,3-2.3,4.4c-1.6,2.4-3,5.1,0.6,6.6c2.9,1.1,18.3-4.7,22.6-6.5c4.3-1.8,70.6-30.4,78.7-32.3
			c-0.3,0.8-25,14.4-27.4,19.7c-0.9,2-2.7,3.5-1.4,5.6c1.4,2.2,4.4,4,6.5,3.5c3.3-0.8,69.6-22.3,77.3-22.3c2.3,0,5.2-2.5,5.8-5.3
			c0.7-3.4-2.7-2.6-4.5-3.6c-2.1-1.2-7.4-1.5-4.4-5C732.1,397.2,736.5,392.7,741.4,388.7z"/>
		<path d="M406.7,349.7c-1.7,1.5-2.4,2.8-1.4,5.4c0.9,2.4,3.2,9.9-5.7,5.8c-3.4-1.6-158.8-141.8-160.3-142.7
			c-0.7-0.4-1.2,1.9-0.7,2.4c4.2,3.5,96.2,113.3,94.5,125.2c-0.3,2.3-1.7,3.6-3.7,4.3c-2.2,0.7-4.9,0.8-7,0.6
			c-8.3-0.8-16.2-3.8-23-8.3c-6-3.9-166-88.1-171.2-86.9c0.2,0.6,0.3,1.1,0.5,1.2c9.9,5.5,177.9,121.3,174.8,134.3
			c-0.1,0.4,0.1,0.9,0.1,1.4c-1.1,4.8-3.8,3.9-7.2,3.5c-5.7-0.7-105.7-22.9-113.4-22.1c-2.2,0.2-2.5,1.1-3.3,2.1
			c-0.7,0.8,93.2,47.2,102.7,57.7c1.3,1.4,0.8,1.6,0.8,2.3c0.1,1.5-93.2-5-169.4-10.5c1.4,2,0.9,5-0.9,6.7c4.1,0.4,4.6,5.9,1.8,8.6
			c75.7,13.8,164.5,31.7,162.4,43c-1,5.3-112,21.3-167.3,28.8c1.7,1.5,3,3.8,3.8,7.1c0.4,1.8-0.2,3.8-1.5,5
			c45.7,1.3,160.4,5.6,162,5.9c2.1,0.4,3.8,1.8,3.1,3.1c-1.3,2.4-125.6,57.1-131.6,59.7c-1.6,0.6-3.2,1.7-2.9,2.5
			c0.4,1.1,1.2,2.4,3.7,2.2c3.1-0.3,5.6-1.5,8.4-2.2c5-1.2,138-17.9,138.7-15.5c0.7,2.9-11.6,12.5-12.6,15c2.9,0.7,5.9,1.3,8.1,0.2
			c12.3-6.2,92.4-48.1,95.3-50.2c2.4-1.7,1-10.4-2.5-10.4c-5.3,0-35.3,3.3-49,7.1c23.1-10.3,97.5-40.5,101.9-40.6
			c2.8-0.1,4.7-3.9,4.6-5.6c-0.1-2.6,0-7.3-3.8-7.7c-6.9-0.7-104.9-19.1-106.5-20.8c2.9,0.2,104.4,4.6,111,4.3
			c4.2-0.2,7.6-8,6.4-9.4c-2.1-2.4-4.3-5-6.7-6.9c-3.2-2.6-44.6-31.9-49-35.7c-0.6-0.5-1.6-1.2-1.1-2c0.5-0.7,43.3,22.5,46.4,22.7
			c8.7,0.4,5.4-8.6,5.4-8.7c0-1.1,2.1-2.4,3.2-2.2c0.3,0.1,0.4,0.9,0.7,1.3c1.7,2,4.1,1.4,6.1,1.1c2.3-0.4,1.8-2.8,2.3-4.5
			C455.5,421.8,416.3,350.8,406.7,349.7z"/>
		<path d="M783.9,743.7c-39.2-43.8-89.1-99.3-92-104.3c-1.3-2.2-0.9-4.4-0.2-6.3c0.6-1.9,2.5-0.7,4-0.5c5,1.3,8.9,1.8,6.6-3.6
			c-2-3.1-98-72-93.7-59.5c-0.1,1.9,0.2,3.5,0.1,5.1c-0.2,2.6-0.3,6.3,1.2,7.8c3.4,3.3,3.4,6.8,3,11c-0.7-0.8-58.3-49.3-60.6-48.1
			c-2.3,1.2-4.1,2.3-3.9,6.1c0.2,6,15.4,73.5,15.1,72.6c-2.2-5.8-13.8-30.7-17.3-36.8c-2.9-5-5-10.5-9.1-14.9
			c-1.4-1.5-2.4-4-4.9-3.2c-2.4,0.8-1,10.2-4.3,10.2c-1.9,0-3.4-2.5-3.7-4.8c-0.1-0.8-0.4-1.6-0.9-2.3c-1.8-3.1-6.4-3.8-8.4-0.8
			c-2.6,3.8-5.2,8.1-5.3,12.8c-0.4,14.8,61.4,279.4,61.9,283c0.3,2.5,0.5,4.8,3,4.7c2.5-0.1-5.4-134.6-4.9-144.2
			c0.2-4.5,2.5-6.2,5.5-8.3c7-11.8,58.1,89.6,85.5,146.6c0.8,0.2,1.5,0.7,2.1,1.4c1,1.2,2,2.5,3,3.8c0.5,0.6,1,1.1,1.6,1.7
			c-0.3-1.2-0.6-2.4-0.9-3.6c-0.5-2.7,0.7-4.6,2.5-5.6c-18.4-55.6-50.2-149-50.5-154c-0.1-2,1.9-12.7,3.9-11
			c3.4,2.8,84.7,92.5,84.8,91.6c0.8-9-58.3-109.1-42.6-118.3c5.8-3.4,68.1,46.4,114,84.2c0.8-1.1,2.2-2,3.6-2.3
			c-0.7-1.2-1.4-2.5-1.8-3.8C779,747.4,781.2,744.2,783.9,743.7z"/>
		<path d="M749,596.2c3.8-0.4,109.4,32.4,115.8,32.1c0.1,0,7.9,2.5,18.1,5.7c0.5-3.7,1.3-7.3,2.4-10.9
			c-55.1-25.4-138.2-63.2-142-65.4c-3.9-2.2-13.2-9.9-3.9-13.7c2.4-0.9,4.8-1.3,7.3-1.5c6.8-0.4,111.2,14.3,111.9,12.7
			c0.6-1.3-0.5-3.1-1.1-3c-2.8,0.4-146.3-40.1-149.6-40.7c-5-0.9-7.8-7.7-5.5-12.1c4.2-8.1,11.9-11.4,19.7-12.8
			c5.3-1,104.5-25.6,107-26.4c1.5-0.4,2-1.5,2-2.5c-0.1-1.6-1.5-1.2-2.7-1.2c-3.8,0.1-212.5,27.4-215.6,28.5
			c-7.2,2.6-8.5,7.8-4.4,13.9c1.7,2.5,3.5,3.6,4.6,8.3c-0.1,0.2-23.2-3.2-27.8-2.7c-2.1,0.2-5.2-0.7-5.3,2.4
			c-0.1,2.5-0.2,5.5,3.2,7.2c7.4,3.7,85.4,35.5,89.7,36.9c2.4,0.8,2.1,3.2,1.4,2.9c-4.6-1.7-30.5-5.4-33.9-5.2
			c-3.3,0.2-6.7,0.3-7.9,2.8c-1.2,2.6-4.3,6-0.4,9.3c0.9,0.8,121.6,83.6,122.3,84.3c11.5,10.6,4.7,1.7,3.8-0.6
			c-1.5-3.3-11.6-18.2-13.4-22.8c-2.1-5.4-4.2-10.7-4.4-16.4C740,600,743.7,596.8,749,596.2z"/>
		<path d="M497.5,549.9c-2.5-1.3-4.2,1.3-6,2.7c-3.9,2.8-68.6,114.7-68.5,114.5c2.4-7.5,31.1-80.6,30.9-88.8
			c-0.1-2.1,0.4-4.2-2.4-5.4c-2.7-1.1-4.4-0.3-6.3,1.4c-3.2,3-81.7,112.7-81.6,123.6c6.9,1.5,11.1-3.6,16.4-5.8
			c1.2-0.5,2.5-0.8,3.6-0.9c1.4-0.1,1.5,1.7,1.5,2.7c0.3,6.1-53.1,154-68.8,196.4c1.8-1.9,3.5-3.8,5.2-5.8c1.2-1.4,3.2-1.7,4.9-1.2
			C354.1,834.6,427.9,708.6,430,709c3.1,0.6,3.7,9.2,3.9,10.5c1.1,6.3-18.9,120.9-16.6,120.5c-1.4-5.2,59.3-171,61.3-173.7
			c1.6-2.2,11.6-2.3,10.4,1.6c-0.7,2.1,1.5,2.5,2.7,2.9c1.5,0.6,1.5-1.2,2.1-2.1c3-4.2,9-107.2,8.9-111.9
			C502.7,553.6,500.1,551.3,497.5,549.9z"/>
		<path d="M347.9,660c-9.5,0.8-84,70.8-85.3,68.2c-0.7-1.5,64.1-85.5,60.7-90c-1.9-2.6-17.3-4.5-18-7.8c-0.4-1.9,0.5-3.6,2.1-4.2
			c2.2-0.8,120.2-74.6,126.4-72.7c3.2,1,5,3.3,3.4,6.3c-2.5,4.7-74.9,110-79,115.8c-1,1.4-3.4,1.4-5.2,0.6c-1.1-0.5-1-1.7-0.6-2.7
			C355.2,665.2,355.2,665.2,347.9,660z"/>
	</g>
</g>
</svg>
