<?xml version="1.0" encoding="utf-8"?>
<!-- Generator: Adobe Illustrator 21.0.0, SVG Export Plug-In . SVG Version: 6.00 Build 0)  -->
<svg version="1.1" xmlns="http://www.w3.org/2000/svg" xmlns:xlink="http://www.w3.org/1999/xlink" x="0px" y="0px"
	 viewBox="0 0 1000 1000" style="enable-background:new 0 0 1000 1000;" xml:space="preserve">
<style type="text/css">
	.st0{fill:#FFFFFF;stroke:#000000;stroke-width:60;stroke-miterlimit:10;}
	.st1{display:none;}
	.st2{display:inline;}
</style>
<g id="Layer_1">
	<polygon class="st0" points="861.6,636 861.6,138.4 138.4,138.4 138.4,861.6 636,861.6 	"/>
</g>
<g id="Layer_2">
	<g>
		<path d="M665.3,379.8c40.4-47.1,79.8-93.1,119.8-139.9c8.2,7.2,16.3,13.9,24,21.1c3.3,3.1,1.9,6.6-0.7,9.6
			c-3.2,3.7-6.9,4.1-10.6,1.2c-3.3-2.6-5.9-2.9-8.6,0.7c-2.1,2.8-2.4,5,0.7,7.6c4.2,3.4,4.3,7.5,0.6,11.6c-3.4,3.7-7.2,4.2-11,0.6
			c-3.5-3.3-6-1.4-8.4,1.5c-18.9,22.2-38,44.4-56.9,66.6c-19.2,22.6-38.3,45.2-57.4,67.8c-2.6,3.1-5.1,6.2-7.9,9.1
			c-2.9,3-3.1,5.2,0.3,8.4c3.5,3.3,6.4,7.4,8.5,11.7c4.8,9.7,3.2,18.9-3.8,27.1c-18.9,22.2-38.4,44-56.7,66.7
			c-11.3,14.1-28.9,12.3-39.6,4.4c-2.9-2.1-5.8-4.3-8.3-6.8c-4-3.9-6.8-3.5-10.3,0.9c-9.5,11.6-19.5,22.8-29.1,34.4
			c-3.4,4.2-5.9,4.7-10.3,0.9c-32.4-27.9-64.9-55.6-97.5-83.2c-4.6-3.9-5.1-6.5-0.8-11.2c10.1-11.1,19.5-22.8,29.5-34
			c3.5-3.9,3.4-6.7-0.7-9.8c-8.4-6.4-15.6-13.5-17.5-24.7c-1.2-6.8-0.1-12.8,4.2-17.8c20.2-23.9,40.5-47.8,61-71.4
			c8.8-10.2,21.8-11.2,33.8-3.5c4,2.6,7.8,5.6,11.7,8.5c0.6-0.2,1.3-0.4,1.9-0.5c0.1-6.7,0.2-13.3,0.2-20
			c-0.1-7.8-0.5-15.7-0.4-23.5c0.1-4.6-1.5-6.6-6.2-6.5c-14.1,0.2-14.1,0.1-14.2-14c0-5.9,0.3-11.9,0.1-17.8c-0.2-5,2-6.7,6.7-6.8
			c12.1-0.2,24.1-0.7,36.2-1c16.1-0.3,32.2-0.5,48.3-0.9c11-0.2,22-0.5,33-1c5.3-0.2,7.1,1.8,6.9,7.1c-0.4,9.1-0.5,18.2-0.3,27.3
			c0.1,4.7-1.5,6.7-6.3,6.1c-2.1-0.3-4.4-0.6-6.3,0c-1.7,0.5-4.3,2.2-4.3,3.4c-0.1,9,0.3,18,0.6,28.8c2.9-2.4,4.4-3.4,5.6-4.7
			c24-28,47.8-56,71.8-83.9c2.6-3,3.6-5.6,0.3-8.7c-3.4-3.1-3.3-6.5-0.4-10.1c2.9-3.6,6.6-4.1,10.2-2c3.4,2,5.8,2.7,8.6-0.9
			c2.7-3.4,1.4-5.7-1.1-8.2c-3.4-3.5-2.3-6.8,0.5-10.1c3-3.5,6.8-3.9,10.2-1.3c6.5,5,12.6,10.6,19,15.9c3.4,2.8,0.8,4.8-1,6.8
			c-12.4,14.5-24.7,29-37.1,43.4c-38,44.6-76.1,89.2-114.1,133.7c-1.2,1.4-2.4,3-4.9,5.8c2.3,1.8,4.5,3.6,6.8,5.5
			c9,7.4,18.1,14.6,26.9,22.3c3.9,3.4,6.4,2.8,9.4-0.9c3.3-4.1,6.8-7.9,10.7-12.4"/>
		<path d="M342.2,676.9c12.8-14.9,25.6-29.7,38.5-44.6c17-19.7,34.1-39.3,51.2-59c5.8-6.7,6.1-6.7,12.5-1.2
			c11.1,9.5,22.2,19,33.3,28.5c1.3,1.1,2.4,2.3,4.1,4c-6.1,7.2-12,14.3-18,21.4c-8.8,10.3-17.6,20.5-26.3,31
			c-2.9,3.5-5.3,4.4-8.6,0.7c-1.3-1.4-2.9-2.5-4.3-3.7c-8.4-6.9-8.4-6.9-15.7,1.6c-3.3,3.9-6.6,7.7-9.8,11.6
			c-2.6,3.2-5.1,3.5-7.8,0.3c-0.1-0.2-0.3-0.3-0.5-0.4c-15.6-12.6-9.4-11.6-25.5-1.2c-5.5,3.5-10.6,7.7-16,11.4
			c-1.7,1.1-3.9,1.4-5.9,2.1C342.9,678.5,342.6,677.7,342.2,676.9z"/>
		<path d="M427.3,557.7c-32.4,37.3-64.1,73.9-95.8,110.4c-0.7-0.4-1.4-0.8-2.2-1.2c0.1-1.5-0.1-3.1,0.5-4.4
			c4.2-8.7,8.3-17.5,12.9-26.1c2.8-5.1,2.9-9.1-2.4-12.4c-1.1-0.7-1.9-1.6-3-2.4c-4-3-4.7-5.9-0.8-9.8c4.6-4.7,8.5-10,12.9-14.8
			c2.7-3,2.6-5-0.5-7.8c-10.6-9.7-10.6-9.9-1.1-21c11.6-13.7,23.4-27.3,35.1-41c1.9-2.2,3.7-4.4,6.8-1.8
			C402.2,535.9,414.5,546.6,427.3,557.7z"/>
		<path d="M509.4,603.1c-2.1,2.8-3.4,6-5.1,6.2c-3.2,0.5-7.4,0.3-10-1.4c-6.2-4.3-11.8-9.6-17.6-14.5c-33-28.2-65.9-56.4-98.8-84.6
			c-0.5-0.4-0.9-0.8-1.4-1.3c-3.7-3.8-4.7-9.9-1.5-12.5c4-3.3,8.4-2.6,12.2,0.5c9.9,8.2,19.7,16.6,29.5,25
			c28.6,24.5,57.2,48.9,85.7,73.6C505.1,596.4,506.8,599.8,509.4,603.1z"/>
		<path d="M279,718.7c-1.5,1.9-2.3,3.1-3.4,4.1c-6.1,5.5-12.3,10.9-18.2,16.5c-3.3,3.2-5.8,2.4-8.5-0.6c-2.6-2.9-3.6-5.5,0-8.5
			c6.4-5.5,12.5-11.3,18.9-16.7c1.3-1.1,4.1-1.8,5.3-1.1C275.5,713.9,277.1,716.5,279,718.7z"/>
		<path d="M219.1,772.2c-1.4-2.6-3.1-5.1-4-7.9c-0.4-1.4,0.4-3.8,1.5-4.8c6.5-6.1,13.2-11.9,19.8-17.8c3.2-2.9,5.5-0.8,7.5,1.5
			c1.9,2.2,3.8,4.7,0.5,7.6c-6.8,6-13.5,12.2-20.3,18.2c-0.7,0.7-1.8,0.9-2.7,1.4C220.6,771,219.9,771.6,219.1,772.2z"/>
		<path d="M284,713.9c-1.9-2-4.1-3.6-5.2-5.9c-0.6-1.3,0-4.2,1.1-5.3c6.2-6,12.7-11.7,19.1-17.5c3.5-3.2,6.1-1,8.5,1.7
			c2.4,2.6,2.9,4.9-0.2,7.5c-6.4,5.5-12.6,11.2-18.9,16.8C287.5,712.1,286.1,712.6,284,713.9z"/>
		<path d="M305,727.5c-6.3-0.7-9-6.6-5.8-10.8c4.9-6.6,10.2-13,15.1-19.5c2.6-3.5,5.1-2.9,7.9-0.4c2.5,2.2,5,4,2,7.8
			c-5.3,6.5-10.4,13.3-15.7,19.9C307.4,725.8,305.8,726.8,305,727.5z"/>
		<path d="M226.4,827.7c-4.5-0.3-8.3-6.1-6.1-9.4c5.4-7.8,11.2-15.2,17.3-22.5c0.7-0.8,4.6-0.2,5.8,1c1.6,1.6,3.5,5.4,2.7,6.5
			c-5.6,8.1-11.9,15.8-18,23.5C227.7,827.5,226.7,827.6,226.4,827.7z"/>
		<path d="M302.1,777.7c-6.6-0.5-8.9-4.3-6.6-8.9c3.8-7.3,7.8-14.4,11.6-21.7c1.6-3.2,3.5-4.5,7-2.5c2.9,1.7,5.8,3.4,3.9,7.3
			c-4.1,8.1-8.3,16.1-12.7,24C304.6,777.1,302.6,777.5,302.1,777.7z"/>
		<path d="M215.2,776c-0.8,1.2-1.5,2.5-2.5,3.4c-6.4,5.9-12.9,11.5-19.3,17.5c-3.2,3-5.3,1.2-7.5-1.1c-2.3-2.5-4.1-5.2-0.8-8.2
			c6.4-5.8,12.8-11.6,19.4-17.1c1.3-1.1,3.9-1.6,5.5-1c2.5,0.9,4.5,3,6.8,4.5C216.2,774.7,215.7,775.3,215.2,776z"/>
		<path d="M299.3,786.9c-1.3,2.6-2,4.1-2.8,5.6c-3.3,6.3-6.6,12.6-9.9,19c-2.3,4.4-5.5,5.4-9.8,2.9c-4.2-2.4-2.9-5.6-1.3-8.7
			c3.7-7.1,7.3-14.1,11.5-21c0.9-1.4,3.9-2.7,5.4-2.3C295,783.2,297.1,785.4,299.3,786.9z"/>
		<path d="M262.2,853c-7.2-0.9-9-4.4-6.4-9.6c3.4-6.7,7.1-13.4,10.5-20.1c2.2-4.2,4.9-5.1,9.2-2.6c4.1,2.4,3.3,5.4,1.6,8.6
			c-3.6,6.9-7.2,13.7-11.1,20.4C265,851.3,263,852.3,262.2,853z"/>
		<path d="M322.3,740.7c-6.6-0.2-9.5-4.8-7-9.6c3.7-7,7.6-14,11.3-21.1c1.9-3.5,4.2-4.3,7.7-2.2c3.1,1.9,5.7,3.4,3.2,7.8
			c-4,6.9-7.3,14.1-11.2,21.1C325.3,738.6,323.3,739.8,322.3,740.7z"/>
		<path d="M279,760c-6.4-0.6-8.9-5.9-5.7-10.2c4.8-6.4,9.9-12.6,14.8-18.9c2.6-3.4,5.5-3.5,8.7-0.8c2.9,2.4,3.7,4.9,1.1,8.1
			c-5.1,6.4-10.1,12.9-15.3,19.3C281.6,758.8,279.8,759.5,279,760z"/>
		<path d="M273.3,767.7c-0.5,1.5-0.5,2.3-0.9,2.7c-5.8,7.5-11.4,15.2-17.6,22.3c-0.9,1.1-5.4,0.5-6.9-0.9c-1.5-1.3-2.7-5.4-1.8-6.8
			c5-7.3,10.6-14.2,16.3-20.9c1.1-1.2,4.4-1.7,6-1C270.5,763.9,271.9,766.3,273.3,767.7z"/>
	</g>
</g>
<g id="Layer_3">
	<g class="st1">
		<path class="st2" d="M216.2,212.5h34.6v161.7h-34.6V212.5z"/>
		<path class="st2" d="M290,212.5h34.6v161.7H290V212.5z"/>
	</g>
	<g>
		<path d="M253.7,212.5h34.6v161.7h-34.6V212.5z"/>
	</g>
</g>
</svg>
