<svg xmlns="http://www.w3.org/2000/svg" viewBox="0 0 237.16 205.82">
  <title>100Mooners</title>
  <g id="Forma_1" data-name="Forma 1" style="isolation: isolate">
    <g id="Forma_1-2" data-name="Forma 1">
      <path d="M375.32,242.49l-29.72,2.18v-25.9a3.17,3.17,0,0,0-4.92-2.65L322.23,228.3l-8.83-45.73a3.17,3.17,0,0,0-6-.69l-18.33,41.28-28.81-20.1a3.17,3.17,0,0,0-4.91,3.3l9,39.71-24.19,5.21a3.17,3.17,0,0,0-1.42,5.49l17.2,15-15.42,12.16h29l8.21-6.47-11.71-10.23,16.2-3.49-5.73-25.44,18.94,13.22,12-26.93L313,254.28l12.46-8.23v17l20.44-1.5-17.2,17,8.7,5.47H368l-16.36-10.29,26.11-25.74A3.17,3.17,0,0,0,375.32,242.49ZM373.47,290h-138a4,4,0,0,0-4,4v1.59a4,4,0,0,0,4,4h138a4,4,0,0,0,4-4v-1.59A4,4,0,0,0,373.47,290Z" transform="translate(-185.86 -146.38)"/>
    </g>
    <path d="M362.69,148.8l15.06,24.54,14.94,24.61,14.86,24.65,14.77,24.7,0.69,1.16-0.69,1.24-14,25.13L394.17,299.9,380,325,365.8,350l-1,1.78h-2.1l-28.78.19-28.78.1-57.56.12h-2.31l-1.15-2-28.68-49.91-14.31-25-14.23-25-1-1.83,1-1.77,14.55-24.83,14.64-24.78,14.66-24.77,14.74-24.72,0.73-1.22,1.35,0,28.78,0.44,28.78,0.55L333.91,148Zm0,0-28.78.77-28.78.64-28.78.55-28.78.44,2.08-1.2-14,25.13L221.5,200.21l-14.14,25.07-14.23,25v-3.6l14.55,24.83,14.47,24.88L251,346.2l-3.46-2,57.56,0.12,28.78,0.1,28.78,0.19-3.11,1.79,14.55-24.83,14.64-24.78L403.44,272l14.74-24.72v2.39l-14-25.14-13.92-25.2-13.84-25.24Z" transform="translate(-185.86 -146.38)" style="fill: #1d1d1b"/>
  </g>
</svg>
