<?xml version="1.0" encoding="utf-8"?>
<!-- Generator: Adobe Illustrator 21.0.0, SVG Export Plug-In . SVG Version: 6.00 Build 0)  -->
<svg version="1.1" xmlns="http://www.w3.org/2000/svg" xmlns:xlink="http://www.w3.org/1999/xlink" x="0px" y="0px"
	 viewBox="0 0 1000 1000" style="enable-background:new 0 0 1000 1000;" xml:space="preserve">
<style type="text/css">
	.st0{fill:#FFFFFF;stroke:#000000;stroke-width:60;stroke-miterlimit:10;}
	.st1{display:none;}
	.st2{display:inline;}
</style>
<g id="Layer_1">
	<polygon class="st0" points="138.4,138.4 138.4,861.6 636,861.6 861.6,636 861.6,138.4 	"/>
</g>
<g id="Injector" class="st1">
	<g>
		<path class="st2" d="M216.2,212.5h34.6v161.7h-34.6V212.5z"/>
		<path class="st2" d="M290,212.5h34.6v161.7H290V212.5z"/>
	</g>
	<g>
		<path class="st2" d="M253.7,212.5h34.6v161.7h-34.6V212.5z"/>
	</g>
	<g class="st2">
		<path d="M204.8,204.4h34.3V363h-34.3V204.4z"/>
		<path d="M262.3,204.4h34.3V363h-34.3V204.4z"/>
		<path d="M319.7,204.4H354V363h-34.3V204.4z"/>
	</g>
	<g id="Layer_2" class="st2">
		<g>
			<path d="M665.3,379.8c40.4-47.1,79.8-93.1,119.8-139.9c8.2,7.2,16.3,13.9,24,21.1c3.3,3.1,1.9,6.6-0.7,9.6
				c-3.2,3.7-6.9,4.1-10.6,1.2c-3.3-2.6-5.9-2.9-8.6,0.7c-2.1,2.8-2.4,5,0.7,7.6c4.2,3.4,4.3,7.5,0.6,11.6c-3.4,3.7-7.2,4.2-11,0.6
				c-3.5-3.3-6-1.4-8.4,1.5c-18.9,22.2-38,44.4-56.9,66.6c-19.2,22.6-38.3,45.2-57.4,67.8c-2.6,3.1-5.1,6.2-7.9,9.1
				c-2.9,3-3.1,5.2,0.3,8.4c3.5,3.3,6.4,7.4,8.5,11.7c4.8,9.7,3.2,18.9-3.8,27.1c-18.9,22.2-38.4,44-56.7,66.7
				c-11.3,14.1-28.9,12.3-39.6,4.4c-2.9-2.1-5.8-4.3-8.3-6.8c-4-3.9-6.8-3.5-10.3,0.9c-9.5,11.6-19.5,22.8-29.1,34.4
				c-3.4,4.2-5.9,4.7-10.3,0.9c-32.4-27.9-64.9-55.6-97.5-83.2c-4.6-3.9-5.1-6.5-0.8-11.2c10.1-11.1,19.5-22.8,29.5-34
				c3.5-3.9,3.4-6.7-0.7-9.8c-8.4-6.4-15.6-13.5-17.5-24.7c-1.2-6.8-0.1-12.8,4.2-17.8c20.2-23.9,40.5-47.8,61-71.4
				c8.8-10.2,21.8-11.2,33.8-3.5c4,2.6,7.8,5.6,11.7,8.5c0.6-0.2,1.3-0.4,1.9-0.5c0.1-6.7,0.2-13.3,0.2-20
				c-0.1-7.8-0.5-15.7-0.4-23.5c0.1-4.6-1.5-6.6-6.2-6.5c-14.1,0.2-14.1,0.1-14.2-14c0-5.9,0.3-11.9,0.1-17.8c-0.2-5,2-6.7,6.7-6.8
				c12.1-0.2,24.1-0.7,36.2-1c16.1-0.3,32.2-0.5,48.3-0.9c11-0.2,22-0.5,33-1c5.3-0.2,7.1,1.8,6.9,7.1c-0.4,9.1-0.5,18.2-0.3,27.3
				c0.1,4.7-1.5,6.7-6.3,6.1c-2.1-0.3-4.4-0.6-6.3,0c-1.7,0.5-4.3,2.2-4.3,3.4c-0.1,9,0.3,18,0.6,28.8c2.9-2.4,4.4-3.4,5.6-4.7
				c24-28,47.8-56,71.8-83.9c2.6-3,3.6-5.6,0.3-8.7c-3.4-3.1-3.3-6.5-0.4-10.1c2.9-3.6,6.6-4.1,10.2-2c3.4,2,5.8,2.7,8.6-0.9
				c2.7-3.4,1.4-5.7-1.1-8.2c-3.4-3.5-2.3-6.8,0.5-10.1c3-3.5,6.8-3.9,10.2-1.3c6.5,5,12.6,10.6,19,15.9c3.4,2.8,0.8,4.8-1,6.8
				c-12.4,14.5-24.7,29-37.1,43.4c-38,44.6-76.1,89.2-114.1,133.7c-1.2,1.4-2.4,3-4.9,5.8c2.3,1.8,4.5,3.6,6.8,5.5
				c9,7.4,18.1,14.6,26.9,22.3c3.9,3.4,6.4,2.8,9.4-0.9c3.3-4.1,6.8-7.9,10.7-12.4"/>
			<path d="M342.2,676.9c12.8-14.9,25.6-29.7,38.5-44.6c17-19.7,34.1-39.3,51.2-59c5.8-6.7,6.1-6.7,12.5-1.2
				c11.1,9.5,22.2,19,33.3,28.5c1.3,1.1,2.4,2.3,4.1,4c-6.1,7.2-12,14.3-18,21.4c-8.8,10.3-17.6,20.5-26.3,31
				c-2.9,3.5-5.3,4.4-8.6,0.7c-1.3-1.4-2.9-2.5-4.3-3.7c-8.4-6.9-8.4-6.9-15.7,1.6c-3.3,3.9-6.6,7.7-9.8,11.6
				c-2.6,3.2-5.1,3.5-7.8,0.3c-0.1-0.2-0.3-0.3-0.5-0.4c-15.6-12.6-9.4-11.6-25.5-1.2c-5.5,3.5-10.6,7.7-16,11.4
				c-1.7,1.1-3.9,1.4-5.9,2.1C342.9,678.5,342.6,677.7,342.2,676.9z"/>
			<path d="M427.3,557.7c-32.4,37.3-64.1,73.9-95.8,110.4c-0.7-0.4-1.4-0.8-2.2-1.2c0.1-1.5-0.1-3.1,0.5-4.4
				c4.2-8.7,8.3-17.5,12.9-26.1c2.8-5.1,2.9-9.1-2.4-12.4c-1.1-0.7-1.9-1.6-3-2.4c-4-3-4.7-5.9-0.8-9.8c4.6-4.7,8.5-10,12.9-14.8
				c2.7-3,2.6-5-0.5-7.8c-10.6-9.7-10.6-9.9-1.1-21c11.6-13.7,23.4-27.3,35.1-41c1.9-2.2,3.7-4.4,6.8-1.8
				C402.2,535.9,414.5,546.6,427.3,557.7z"/>
			<path d="M509.4,603.1c-2.1,2.8-3.4,6-5.1,6.2c-3.2,0.5-7.4,0.3-10-1.4c-6.2-4.3-11.8-9.6-17.6-14.5c-33-28.2-65.9-56.4-98.8-84.6
				c-0.5-0.4-0.9-0.8-1.4-1.3c-3.7-3.8-4.7-9.9-1.5-12.5c4-3.3,8.4-2.6,12.2,0.5c9.9,8.2,19.7,16.6,29.5,25
				c28.6,24.5,57.2,48.9,85.7,73.6C505.1,596.4,506.8,599.8,509.4,603.1z"/>
			<path d="M279,718.7c-1.5,1.9-2.3,3.1-3.4,4.1c-6.1,5.5-12.3,10.9-18.2,16.5c-3.3,3.2-5.8,2.4-8.5-0.6c-2.6-2.9-3.6-5.5,0-8.5
				c6.4-5.5,12.5-11.3,18.9-16.7c1.3-1.1,4.1-1.8,5.3-1.1C275.5,713.9,277.1,716.5,279,718.7z"/>
			<path d="M219.1,772.2c-1.4-2.6-3.1-5.1-4-7.9c-0.4-1.4,0.4-3.8,1.5-4.8c6.5-6.1,13.2-11.9,19.8-17.8c3.2-2.9,5.5-0.8,7.5,1.5
				c1.9,2.2,3.8,4.7,0.5,7.6c-6.8,6-13.5,12.2-20.3,18.2c-0.7,0.7-1.8,0.9-2.7,1.4C220.6,771,219.9,771.6,219.1,772.2z"/>
			<path d="M284,713.9c-1.9-2-4.1-3.6-5.2-5.9c-0.6-1.3,0-4.2,1.1-5.3c6.2-6,12.7-11.7,19.1-17.5c3.5-3.2,6.1-1,8.5,1.7
				c2.4,2.6,2.9,4.9-0.2,7.5c-6.4,5.5-12.6,11.2-18.9,16.8C287.5,712.1,286.1,712.6,284,713.9z"/>
			<path d="M305,727.5c-6.3-0.7-9-6.6-5.8-10.8c4.9-6.6,10.2-13,15.1-19.5c2.6-3.5,5.1-2.9,7.9-0.4c2.5,2.2,5,4,2,7.8
				c-5.3,6.5-10.4,13.3-15.7,19.9C307.4,725.8,305.8,726.8,305,727.5z"/>
			<path d="M226.4,827.7c-4.5-0.3-8.3-6.1-6.1-9.4c5.4-7.8,11.2-15.2,17.3-22.5c0.7-0.8,4.6-0.2,5.8,1c1.6,1.6,3.5,5.4,2.7,6.5
				c-5.6,8.1-11.9,15.8-18,23.5C227.7,827.5,226.7,827.6,226.4,827.7z"/>
			<path d="M302.1,777.7c-6.6-0.5-8.9-4.3-6.6-8.9c3.8-7.3,7.8-14.4,11.6-21.7c1.6-3.2,3.5-4.5,7-2.5c2.9,1.7,5.8,3.4,3.9,7.3
				c-4.1,8.1-8.3,16.1-12.7,24C304.6,777.1,302.6,777.5,302.1,777.7z"/>
			<path d="M215.2,776c-0.8,1.2-1.5,2.5-2.5,3.4c-6.4,5.9-12.9,11.5-19.3,17.5c-3.2,3-5.3,1.2-7.5-1.1c-2.3-2.5-4.1-5.2-0.8-8.2
				c6.4-5.8,12.8-11.6,19.4-17.1c1.3-1.1,3.9-1.6,5.5-1c2.5,0.9,4.5,3,6.8,4.5C216.2,774.7,215.7,775.3,215.2,776z"/>
			<path d="M299.3,786.9c-1.3,2.6-2,4.1-2.8,5.6c-3.3,6.3-6.6,12.6-9.9,19c-2.3,4.4-5.5,5.4-9.8,2.9c-4.2-2.4-2.9-5.6-1.3-8.7
				c3.7-7.1,7.3-14.1,11.5-21c0.9-1.4,3.9-2.7,5.4-2.3C295,783.2,297.1,785.4,299.3,786.9z"/>
			<path d="M262.2,853c-7.2-0.9-9-4.4-6.4-9.6c3.4-6.7,7.1-13.4,10.5-20.1c2.2-4.2,4.9-5.1,9.2-2.6c4.1,2.4,3.3,5.4,1.6,8.6
				c-3.6,6.9-7.2,13.7-11.1,20.4C265,851.3,263,852.3,262.2,853z"/>
			<path d="M322.3,740.7c-6.6-0.2-9.5-4.8-7-9.6c3.7-7,7.6-14,11.3-21.1c1.9-3.5,4.2-4.3,7.7-2.2c3.1,1.9,5.7,3.4,3.2,7.8
				c-4,6.9-7.3,14.1-11.2,21.1C325.3,738.6,323.3,739.8,322.3,740.7z"/>
			<path d="M279,760c-6.4-0.6-8.9-5.9-5.7-10.2c4.8-6.4,9.9-12.6,14.8-18.9c2.6-3.4,5.5-3.5,8.7-0.8c2.9,2.4,3.7,4.9,1.1,8.1
				c-5.1,6.4-10.1,12.9-15.3,19.3C281.6,758.8,279.8,759.5,279,760z"/>
			<path d="M273.3,767.7c-0.5,1.5-0.5,2.3-0.9,2.7c-5.8,7.5-11.4,15.2-17.6,22.3c-0.9,1.1-5.4,0.5-6.9-0.9c-1.5-1.3-2.7-5.4-1.8-6.8
				c5-7.3,10.6-14.2,16.3-20.9c1.1-1.2,4.4-1.7,6-1C270.5,763.9,271.9,766.3,273.3,767.7z"/>
		</g>
	</g>
</g>
<g id="Nova" class="st1">
	<g class="st2">
		<path d="M639.7,260.2c-2.4,0.3-6.9,3.1-6.5-1.5c0.5-6.1,1.4-12.3,3.1-18.3c1.3-4.6,35.6-79.3,57.9-128.1c-0.8,0.5-1.7,0.8-2.6,0.7
			c-2.4,3.9-9.7,3.2-9.3-2.3c0,0,0,0,0-0.1l-74.7,118.9c-1.5,2.3-2.8,4.6-4.7,6.7c-2.2,2.3-9.7,9-11.5,7.4c-1.8-1.6-1.9-5.1-1.7-6.8
			c1.8-9.6,20.9-101.3,24.9-126.4c-2.1,0.2-4.3,0.3-6.4,0.4c-13.9,26.8-54.4,110.8-62.8,111.8c-5.1,3.4-9-32.3-10-38.4
			c-1.4-8.7-1.9-30.3-1.6-32.2c0.7-3.7,1.6-20.6,2.5-41.2c-0.1-0.1-0.1-0.1-0.2-0.2c-0.4,1.3-1,2.6-2.1,3.5
			c-3.7,3.2-10.4,2.4-13.3-1.5c-8.4,54.5-18.2,112.7-20.9,112.5c-1.4,0.2-2.8,0.2-4.2,0.1c-7.2-0.2-15.6-35.2-17.4-41.5
			c-2.6-9.1-3.9-18.7-5.8-28.1c-1.1-5.8-4.7-27.6-7.8-44.1c-1.5,2.1-4.8,3.2-7.1,1.5c1.8,41.4,4.4,125.9-4.2,125.2
			c-15-1.2-50.1-84.9-52-90.4c-0.9-2.7-7.1-15.9-15.1-32.5c-1.5,0.1-2.9-0.2-4.1-0.8c-0.9,4-7,4.7-9.2,1.1c-1.6-2.7-3.1-5.4-4.6-8.1
			c19.3,62.2,41.9,141,31.7,145.1c-15.3,10.2-92.8-117-94.6-114.9c-0.9,1,8.8,20.4,10,22.5c2.6,4.8,43.4,98.9,44.4,102.7
			c1.7,6.2,1.3,10.5-4.3,14.2c-13.6,10.5-151.2-123.8-152.2-122.5C202.4,155.7,325,299,329,305.6c1.9,3.2,3.1,5.4,2.4,9.4
			c-1.4,7.5-2.8,8.8-10,6.5c-1.4-0.5-3.1-2.6-4.2-0.2c-0.7,1.6-0.1,3.8,1.7,4.9c3.9,2.4,67,41.5,71.8,42.4c3,0.6,6.5,0,7.2-4.7
			c0.7-4.4-21.4-33.1-19.9-34.6c1.5-1.6,2.6-0.3,3.6,1.1c4.1,6,65.9,62.3,69.4,63.9c2.4,1.1,5.2,1.7,7.1-0.1c1.6-1.6,2-4.1,0.8-6.7
			c-0.7-1.6-2.2-3.9,0.4-5.5c0.9,1.1,21.5,5.5,11.4-8.8c-0.6-0.8-16.6-34.3-12.1-44.2c8.3,0.5,29.2,55.8,31.2,60.7
			c1.8,4.4,4.5,7.5,9.3,6.7c4.6-0.8,6.8-5.4,7.3-9c0.5-3.9,5.5-29.8,5.9-34c0.6-5.1,0.9-17.3,1.2-18.1c0.3-0.7,1.2-8.3,2.1-7.9
			c0.4,0.2,0.8,7.9,0.7,8.4c-0.3,3.7-1.5,24.1-0.1,31.2c0.8,4,2,7.2,4,10.3c1.8,2.8,3.9,3.9,6.9,0.9c0.8-0.8,1.7-3.3,3.9-2.2
			c2.6,1.3,0.6,3.2,0.7,4.9c0.1,2.9,0.5,6,4.3,5c3-0.8,12.1-14.5,14.5-18.5c2.4-4,39.5-66,44.9-72.3c0.2,0.8-11.9,26.3-10.7,32
			c0.4,2.1-0.1,4.4,2.1,5.4c2.5,1,5.9,0.7,7.3-1c2.2-2.6,43.4-58.8,49.6-63.3c1.8-1.4,2.8-5,1.6-7.7
			C644,257.3,641.7,259.9,639.7,260.2z"/>
		<path d="M454.3,503.9c-1.6-2.1-4.3-5.9-7.6-4c-6,3.5-96.3,45.9-98.5,45.4c2.4-1.5,87.3-57.3,92.6-61.5c3.3-2.6,1.5-10.9-0.4-11.4
			c-3.1-0.7-6.4-1.5-9.5-1.7c-4.1-0.2-54.8,0.2-60.6-0.3c-0.8-0.1-2.1,0-2-1c0-0.9,48.3-7,50.9-8.8c7.3-4.8-0.6-10.1-0.7-10.2
			c-0.6-0.9,0.3-3.2,1.4-3.7c0.3-0.1,0.9,0.5,1.3,0.6c2.6,0.6,4.2-1.2,5.6-2.7c1.6-1.7-0.1-3.3-0.8-5c-2.1-5.2-75.5-39.8-83.8-35.1
			c-0.5,2.2-0.3,3.7,2,5.2c2.2,1.4,8.3,6.2-1.3,8c-3.7,0.7-211.8-22.1-213.5-21.9c-0.8,0.1,0.1,2.3,0.9,2.3
			c5.5,0.4,144.4,35.6,149.9,46.2c1.1,2.1,0.8,3.9-0.5,5.6c-1.4,1.9-3.5,3.6-5.3,4.6c-7.2,4.2-15.4,6.4-23.5,6.7
			c-4.6,0.2-82.6,11.1-137.2,19.7c-0.1,0.8-0.4,1.6-0.8,2.3c0.8-0.1,1.6-0.1,2.5-0.2c4.2-0.4,5.7,3.9,4.3,7
			c64.3-0.9,159.5-0.2,163,8.2c0.1,0.3,0.6,0.7,0.9,1c2,4.6-0.8,5.4-3.8,7c-5,2.8-99.1,43.3-104.8,48.4c-1.6,1.5-1.3,2.3-1.4,3.6
			c-0.1,1,103.2-16.3,117.1-13.3c1.8,0.4,1.6,0.8,2,1.4c1.1,1.3-109.8,69.9-176.8,111.2c2-0.1,4-0.1,6,0.1c4,0.3,5.6,3.9,4.4,6.8
			c73.1-35.3,183.7-87.9,189.4-75.8c3,6.4-138,139.8-141.2,142.3c-2,1.6-3.4,4.3-1.5,6.3c1,1.1,4.4,2,6,0.4c3.7-3.6,8-6,12-9
			c7.5-5.7,147.9-99.4,149.7-100.2c2-0.9,4.1-0.8,4.3,0.7c0.3,2.7-68.4,119.8-71.8,125.4c-0.9,1.4-1.6,3.2-0.9,3.7
			c1,0.7,2.4,1.3,4.3-0.4c2.3-2,3.7-4.5,5.6-6.7c3.3-3.9,101.5-95.3,103.4-93.7c2.3,1.9-2.1,16.9-1.4,19.5c2.8-1.1,5.5-2.4,6.7-4.6
			c6.3-12.2,46.8-93.1,47.9-96.5c1-2.8-5.2-9-8.1-7c-4.3,3.1-26.7,23.4-35.6,34.5c12.7-21.9,55.4-89.9,58.9-92.6
			C456,509.5,455.3,505.2,454.3,503.9z"/>
		<path d="M694.8,606c-1.3-14,105.3,41.7,159.8,71.4c-0.2-0.3-0.4-0.5-0.5-0.8c-1.9-3.2,0.1-6.2,2.9-7.1
			c-47.2-34.1-129.6-92.6-132.8-96.5c-1.2-1.5-5.9-11.4-3.3-11.2c4.4,0.3,122.8,25.4,122.3,24.6c-4.6-7.7-111.1-54.4-103.8-71
			c2.8-6.3,86.8-2,146.5,1.9c-0.2-0.8-0.2-1.6,0-2.3c-4.5-0.3-7.4-6.8-2.5-9.1c0.6-0.3,1.3-0.5,1.9-0.8
			c-58.3-12.8-137.1-29.8-142.6-32.3c-2.3-1-3.2-3-3.8-5c-0.6-1.9,1.6-2,2.9-2.7c4.8-1.8,8.2-3.8,3.2-6.7
			c-3.4-1.3-121.6-1.1-110.8,6.6c1,1.6,2.2,2.7,3,4.1c1.4,2.3,3.4,5.3,5.6,5.6c4.7,0.7,6.8,3.5,8.9,7.1c-1-0.2-76.1-5.9-77.2-3.5
			c-1.1,2.3-1.9,4.2,0.4,7.2c3.7,4.7,55.5,50.6,54.7,50c-5.1-3.4-29.1-16.8-35.6-19.7c-5.3-2.4-10.2-5.6-16.1-6.8
			c-2.1-0.4-4.3-1.9-5.9,0.2c-1.5,2,5.2,8.9,2.5,10.8c-1.6,1.1-4.2,0-5.9-1.7c-0.6-0.6-1.3-1.1-2.1-1.4c-3.3-1.4-7.4,0.7-7.3,4.3
			c0.1,4.6,0.5,9.6,3.2,13.5c8.3,12.2,213.3,190.7,215.8,193.3c1.7,1.8,3.3,3.6,5.2,2.1c1.9-1.5-83.1-105.9-88.4-114
			C692.8,612.1,693.7,609.4,694.8,606z"/>
		<path d="M763.9,404.2c2.9-2.6,107.7-37.8,112.7-41.7c0.1-0.1,3.6-1.2,8.9-3c-0.4-4.1-0.7-8.1-0.7-12.2
			c-59.5,11.6-143.9,28.6-148.1,29c-4.5,0.4-16.5-0.3-11.2-8.8c1.4-2.1,3.1-3.9,5-5.4c5.3-4.3,98.5-53.4,98.2-55.2
			c-0.2-1.4-2.2-2.2-2.6-1.8c-2,2-142.2,53.1-145.2,54.6c-4.6,2.2-10.8-1.7-11.6-6.6c-1.4-9,3-16.2,8.5-21.9
			c3.7-3.9,69.7-81.9,71.4-84c0.9-1.2,0.8-2.4,0.1-3.2c-1-1.2-1.9-0.1-2.9,0.6c-3,2.3-156.3,146.6-158.1,149.2
			c-4.3,6.3-2.4,11.3,4.6,13.9c2.8,1.1,4.9,0.8,8.6,4.1c0.1,0.2-20.7,11-24.1,14c-1.6,1.4-4.6,2.5-2.9,5c1.4,2.1,3.1,4.6,6.8,4
			c8.1-1.3,90-21.3,94.3-22.6c2.4-0.8,3.6,1.4,2.9,1.6c-4.7,1.3-27.9,13.4-30.6,15.6c-2.6,2.1-5.3,4.2-4.7,6.9
			c0.5,2.8,0,7.4,5.2,7.8c1.2,0.1,147.6-3.4,148.5-3.2c15.6,1.8,4.8-1.4,2.7-2.7c-3.1-1.8-20.1-7.9-24.2-10.6
			c-4.8-3.1-9.7-6.2-13.2-10.7C758.8,412.5,759.9,407.8,763.9,404.2z"/>
		<path d="M585.6,619.2c0-2.7,8.1-8.6,9.4-4.8c0.7,2.1,2.7,1.1,3.8,0.8c1.5-0.4,0.5-1.8,0.5-2.9c0-5.1-55.4-92.2-58.2-95.9
			c-1.9-2.6-5.3-2.9-8.2-2.5c-2.8,0.4-2.6,3.5-3.3,5.7c-1.5,4.6,11.5,133.1,11.4,132.9c-2.4-7.4-21.9-83.6-26.9-90.1
			c-1.3-1.7-2.1-3.7-5.1-3c-2.8,0.6-3.8,2.3-4.3,4.8c-0.8,4.2-0.3,139.2,6.1,148c6.5-2.8,6.9-9.4,9.9-14.3c0.7-1.1,1.5-2.1,2.3-2.8
			c1.1-0.9,2.2,0.5,2.8,1.3c3.5,4.4,40,131.5,55.4,186.4c1.9-1,4.4-0.8,6,0.8c0.6-0.3,1.1-0.5,1.7-0.8
			c-6-56.7-19.7-199.5-17.8-200.4c2.8-1.4,8.4,5.3,9.3,6.2c4.6,4.5,55.5,109.1,57,107.4C633.3,792.5,585.6,622.6,585.6,619.2z"/>
		<path d="M475.9,690.6c-7.3,6.2-26.7,106.6-29.2,105.2c-1.5-0.8,2-106.8-3.4-108.6c-3.1-1-16.7,6.4-19.2,4.2
			c-1.4-1.3-1.8-3.2-0.8-4.7c1.3-2,53.8-130.9,59.9-132.9c3.2-1,6-0.2,6.4,3.1c0.7,5.3,3.7,133,3.8,140.1c0,1.7-1.9,3.1-3.8,3.6
			c-1.2,0.3-1.7-0.8-2.1-1.8C484.9,690.5,484.9,690.5,475.9,690.6z"/>
	</g>
	<g class="st2">
		<path d="M741.4,388.7c4.4-3.5,106.1-60.9,145.8-83.6c0.7-1.6,1.5-3.2,2.3-4.8c-0.9-0.9-1.7-2-2.3-3.1l-162.7,65.9
			c-2.5,1-5,2.1-7.7,2.7c-3.1,0.6-13.1,1.6-13.7-0.7c-0.5-2.3,1.5-5.3,2.6-6.5c8.1-7.7,98.5-90.3,98.4-92.7c0-1-0.1-2.1-1.2-2.5
			c-2.4-0.8-116.1,62.6-124.9,57.7c-6.1-0.2,11.6-31.5,14.4-37c3.9-7.9,16.2-25.7,17.5-27c7.6-7.3,78.5-98.5,81.3-104.5
			c0.8-1.6,1.9-3.2,0.2-4.4c-2-1.4-3,0.7-3.9,2c-2.8,3.9-144.1,149.7-148,146.3c-1.3-0.7-2.4-1.5-3.4-2.3
			c-5.7-4.4,7.9-37.6,10.2-43.9c3.2-8.9,7.8-17.4,11.8-26.1c4-8.6,27.2-54.7,27.3-58.7c25.9-48.8-1.5-4.4-2.3-3.2
			c-2,3-80.2,125.1-88.9,117.8c-11.5-9.7,9.1-98.2,10.8-103.7c1.1-3.8,5.9-30.2,10.7-57.8c-3.8-0.5-7.6-1.1-11.4-1.8
			c-20.9,62.7-50.6,146.5-61.7,143.7c-18.3-0.7-6.8-149.2-9.5-148.5c-1.4,0.3-4.8,21.7-5.1,24.1c-0.7,5.4-22.7,105.6-24.1,109.3
			c-2.3,6-5.1,9.3-11.8,9c-11.6,0.4-30.4-85.8-41.9-141.7c-2.5-0.9-4.9-1.5-7.2-2.5c4.1,56.2,11.3,146.6,10.9,151.8
			c-0.3,3.7-0.6,6.2-3.6,9c-5.5,5.2-7.4,5.5-11.9-0.6c-0.9-1.2-1-3.9-3.4-2.6c-1.5,0.9-2.3,3-1.5,4.9c1.8,4.2,30,72.9,33.4,76.4
			c2.1,2.2,5.3,3.8,8.6,0.4c3.1-3.2,2-39.3,4.1-39.7c2.1-0.4,2.3,1.3,2.3,3c-0.2,7.3,17,89.1,18.9,92.5c1.3,2.3,3.3,4.4,5.8,4.1
			c2.2-0.3,4-2.2,4.5-5c0.3-1.7,0.5-4.4,3.5-4.2c0.1,1.4,14.2,17.1,14.4-0.4c0-1,6.6-37.6,16.1-42.9c6.4,5.3-9,62.4-10.2,67.5
			c-1.1,4.7-0.7,8.7,3.7,10.9c4.2,2.1,8.7-0.4,11.2-3c2.6-2.9,21.9-21,24.7-24.1c3.4-3.8,10.9-13.5,11.5-14c0.7-0.4,5.8-6,6.4-5.2
			c0.3,0.4-4,6.9-4.3,7.3c-2.5,2.8-15.3,18.7-18.3,25.2c-1.7,3.7-2.6,7-2.8,10.7c-0.2,3.3,0.8,5.5,5.1,4.8c1.1-0.2,3.3-1.7,4.5,0.5
			c1.3,2.5-1.4,3-2.3,4.4c-1.6,2.4-3,5.1,0.6,6.6c2.9,1.1,18.3-4.7,22.6-6.5c4.3-1.8,70.6-30.4,78.7-32.3
			c-0.3,0.8-25,14.4-27.4,19.7c-0.9,2-2.7,3.5-1.4,5.6c1.4,2.2,4.4,4,6.5,3.5c3.3-0.8,69.6-22.3,77.3-22.3c2.3,0,5.2-2.5,5.8-5.3
			c0.7-3.4-2.7-2.6-4.5-3.6c-2.1-1.2-7.4-1.5-4.4-5C732.1,397.2,736.5,392.7,741.4,388.7z"/>
		<path d="M406.7,349.7c-1.7,1.5-2.4,2.8-1.4,5.4c0.9,2.4,3.2,9.9-5.7,5.8c-3.4-1.6-158.8-141.8-160.3-142.7
			c-0.7-0.4-1.2,1.9-0.7,2.4c4.2,3.5,96.2,113.3,94.5,125.2c-0.3,2.3-1.7,3.6-3.7,4.3c-2.2,0.7-4.9,0.8-7,0.6
			c-8.3-0.8-16.2-3.8-23-8.3c-6-3.9-166-88.1-171.2-86.9c0.2,0.6,0.3,1.1,0.5,1.2c9.9,5.5,177.9,121.3,174.8,134.3
			c-0.1,0.4,0.1,0.9,0.1,1.4c-1.1,4.8-3.8,3.9-7.2,3.5c-5.7-0.7-105.7-22.9-113.4-22.1c-2.2,0.2-2.5,1.1-3.3,2.1
			c-0.7,0.8,93.2,47.2,102.7,57.7c1.3,1.4,0.8,1.6,0.8,2.3c0.1,1.5-93.2-5-169.4-10.5c1.4,2,0.9,5-0.9,6.7c4.1,0.4,4.6,5.9,1.8,8.6
			c75.7,13.8,164.5,31.7,162.4,43c-1,5.3-112,21.3-167.3,28.8c1.7,1.5,3,3.8,3.8,7.1c0.4,1.8-0.2,3.8-1.5,5
			c45.7,1.3,160.4,5.6,162,5.9c2.1,0.4,3.8,1.8,3.1,3.1c-1.3,2.4-125.6,57.1-131.6,59.7c-1.6,0.6-3.2,1.7-2.9,2.5
			c0.4,1.1,1.2,2.4,3.7,2.2c3.1-0.3,5.6-1.5,8.4-2.2c5-1.2,138-17.9,138.7-15.5c0.7,2.9-11.6,12.5-12.6,15c2.9,0.7,5.9,1.3,8.1,0.2
			c12.3-6.2,92.4-48.1,95.3-50.2c2.4-1.7,1-10.4-2.5-10.4c-5.3,0-35.3,3.3-49,7.1c23.1-10.3,97.5-40.5,101.9-40.6
			c2.8-0.1,4.7-3.9,4.6-5.6c-0.1-2.6,0-7.3-3.8-7.7c-6.9-0.7-104.9-19.1-106.5-20.8c2.9,0.2,104.4,4.6,111,4.3
			c4.2-0.2,7.6-8,6.4-9.4c-2.1-2.4-4.3-5-6.7-6.9c-3.2-2.6-44.6-31.9-49-35.7c-0.6-0.5-1.6-1.2-1.1-2c0.5-0.7,43.3,22.5,46.4,22.7
			c8.7,0.4,5.4-8.6,5.4-8.7c0-1.1,2.1-2.4,3.2-2.2c0.3,0.1,0.4,0.9,0.7,1.3c1.7,2,4.1,1.4,6.1,1.1c2.3-0.4,1.8-2.8,2.3-4.5
			C455.5,421.8,416.3,350.8,406.7,349.7z"/>
		<path d="M783.9,743.7c-39.2-43.8-89.1-99.3-92-104.3c-1.3-2.2-0.9-4.4-0.2-6.3c0.6-1.9,2.5-0.7,4-0.5c5,1.3,8.9,1.8,6.6-3.6
			c-2-3.1-98-72-93.7-59.5c-0.1,1.9,0.2,3.5,0.1,5.1c-0.2,2.6-0.3,6.3,1.2,7.8c3.4,3.3,3.4,6.8,3,11c-0.7-0.8-58.3-49.3-60.6-48.1
			c-2.3,1.2-4.1,2.3-3.9,6.1c0.2,6,15.4,73.5,15.1,72.6c-2.2-5.8-13.8-30.7-17.3-36.8c-2.9-5-5-10.5-9.1-14.9
			c-1.4-1.5-2.4-4-4.9-3.2c-2.4,0.8-1,10.2-4.3,10.2c-1.9,0-3.4-2.5-3.7-4.8c-0.1-0.8-0.4-1.6-0.9-2.3c-1.8-3.1-6.4-3.8-8.4-0.8
			c-2.6,3.8-5.2,8.1-5.3,12.8c-0.4,14.8,61.4,279.4,61.9,283c0.3,2.5,0.5,4.8,3,4.7c2.5-0.1-5.4-134.6-4.9-144.2
			c0.2-4.5,2.5-6.2,5.5-8.3c7-11.8,58.1,89.6,85.5,146.6c0.8,0.2,1.5,0.7,2.1,1.4c1,1.2,2,2.5,3,3.8c0.5,0.6,1,1.1,1.6,1.7
			c-0.3-1.2-0.6-2.4-0.9-3.6c-0.5-2.7,0.7-4.6,2.5-5.6c-18.4-55.6-50.2-149-50.5-154c-0.1-2,1.9-12.7,3.9-11
			c3.4,2.8,84.7,92.5,84.8,91.6c0.8-9-58.3-109.1-42.6-118.3c5.8-3.4,68.1,46.4,114,84.2c0.8-1.1,2.2-2,3.6-2.3
			c-0.7-1.2-1.4-2.5-1.8-3.8C779,747.4,781.2,744.2,783.9,743.7z"/>
		<path d="M749,596.2c3.8-0.4,109.4,32.4,115.8,32.1c0.1,0,7.9,2.5,18.1,5.7c0.5-3.7,1.3-7.3,2.4-10.9
			c-55.1-25.4-138.2-63.2-142-65.4c-3.9-2.2-13.2-9.9-3.9-13.7c2.4-0.9,4.8-1.3,7.3-1.5c6.8-0.4,111.2,14.3,111.9,12.7
			c0.6-1.3-0.5-3.1-1.1-3c-2.8,0.4-146.3-40.1-149.6-40.7c-5-0.9-7.8-7.7-5.5-12.1c4.2-8.1,11.9-11.4,19.7-12.8
			c5.3-1,104.5-25.6,107-26.4c1.5-0.4,2-1.5,2-2.5c-0.1-1.6-1.5-1.2-2.7-1.2c-3.8,0.1-212.5,27.4-215.6,28.5
			c-7.2,2.6-8.5,7.8-4.4,13.9c1.7,2.5,3.5,3.6,4.6,8.3c-0.1,0.2-23.2-3.2-27.8-2.7c-2.1,0.2-5.2-0.7-5.3,2.4
			c-0.1,2.5-0.2,5.5,3.2,7.2c7.4,3.7,85.4,35.5,89.7,36.9c2.4,0.8,2.1,3.2,1.4,2.9c-4.6-1.7-30.5-5.4-33.9-5.2
			c-3.3,0.2-6.7,0.3-7.9,2.8c-1.2,2.6-4.3,6-0.4,9.3c0.9,0.8,121.6,83.6,122.3,84.3c11.5,10.6,4.7,1.7,3.8-0.6
			c-1.5-3.3-11.6-18.2-13.4-22.8c-2.1-5.4-4.2-10.7-4.4-16.4C740,600,743.7,596.8,749,596.2z"/>
		<path d="M497.5,549.9c-2.5-1.3-4.2,1.3-6,2.7c-3.9,2.8-68.6,114.7-68.5,114.5c2.4-7.5,31.1-80.6,30.9-88.8
			c-0.1-2.1,0.4-4.2-2.4-5.4c-2.7-1.1-4.4-0.3-6.3,1.4c-3.2,3-81.7,112.7-81.6,123.6c6.9,1.5,11.1-3.6,16.4-5.8
			c1.2-0.5,2.5-0.8,3.6-0.9c1.4-0.1,1.5,1.7,1.5,2.7c0.3,6.1-53.1,154-68.8,196.4c1.8-1.9,3.5-3.8,5.2-5.8c1.2-1.4,3.2-1.7,4.9-1.2
			C354.1,834.6,427.9,708.6,430,709c3.1,0.6,3.7,9.2,3.9,10.5c1.1,6.3-18.9,120.9-16.6,120.5c-1.4-5.2,59.3-171,61.3-173.7
			c1.6-2.2,11.6-2.3,10.4,1.6c-0.7,2.1,1.5,2.5,2.7,2.9c1.5,0.6,1.5-1.2,2.1-2.1c3-4.2,9-107.2,8.9-111.9
			C502.7,553.6,500.1,551.3,497.5,549.9z"/>
		<path d="M347.9,660c-9.5,0.8-84,70.8-85.3,68.2c-0.7-1.5,64.1-85.5,60.7-90c-1.9-2.6-17.3-4.5-18-7.8c-0.4-1.9,0.5-3.6,2.1-4.2
			c2.2-0.8,120.2-74.6,126.4-72.7c3.2,1,5,3.3,3.4,6.3c-2.5,4.7-74.9,110-79,115.8c-1,1.4-3.4,1.4-5.2,0.6c-1.1-0.5-1-1.7-0.6-2.7
			C355.2,665.2,355.2,665.2,347.9,660z"/>
	</g>
</g>
<g id="Layer_5">
	<g class="st1">
		<path class="st2" d="M392,836.6c-6.5-71.9-13-143.4-19.6-215.1c-26.5,7.7-52.6,7.6-78.9,0c-6.5,71.8-13,143.3-19.5,214.9h-37.4
			c0-0.5,0-0.9,0-1.2c3-27.2,6-54.3,9.1-81.5c0.3-2.3-0.1-3.4-2.5-4.2c-15.6-5.3-30.6-11.9-44.8-20.2c-9.1-5.3-17.9-11-27.1-16.7
			c-16.9,21.1-33.9,42.4-51.4,64.3c0-14.9,0-29.7,0.1-44.6c0-1.2,0.8-2.6,1.7-3.5c9.6-9.8,19.4-19.4,29.1-29.1
			c0.7-0.7,1.4-1.4,1.8-1.9c-9.9-10.1-19.7-19.9-29.5-29.9c-0.8,0.4-1.8,0.9-3.1,1.5c0-9.3,0.1-18.3-0.1-27.2c0-2.2,0.6-3.4,2.6-4.6
			c33.2-18.9,66.4-37.9,99.6-56.9c0.9-0.5,1.8-1.1,2.9-1.7c-9.4-11.4-16.5-23.7-22-37.1c-27.7,11.1-55.2,22.1-83,33.2
			c0-7.8,0.1-15.2-0.1-22.5c0-2,0.7-2.7,2.5-3.3c9.9-3.1,19.7-6.3,29.5-9.5c7.2-2.4,14.5-4.7,21.4-7c-1.8-11.1-3.6-21.9-5.4-32.8
			c-15.8,3.7-31.8,7.3-48,11.1v-3.4c0-23,0-45.9,0-68.9c0-1.8,0.1-3.8,0.7-5.5c3.2-9.6,6.5-19.1,9.7-28.6c0.6-1.7,1.4-3.4,2.2-5.3
			c-3.7-2-7.3-3.8-10.7-5.8c-0.9-0.5-1.8-1.9-1.8-2.9c-0.1-8.8-0.1-17.5-0.1-26.3c0-0.5-0.1-1.2,0.2-1.6c3.3-4.8,6.6-9.5,10-14.3
			c2.8-3.9,5.6-7.7,8.5-11.6c-5.7-5-11.4-9.8-16.9-14.9c-0.9-0.9-1.7-2.4-1.7-3.7c-0.2-6.2-0.1-12.5-0.1-18.8v-11.6
			c10.5,12,20.5,23.4,30.7,35c22.9-24.8,49.5-44.1,80.1-58.2c-19.9-33.4-39.6-66.5-59.6-100h3.3c14.3,0,28.6,0.1,42.8-0.1
			c2.3,0,3.4,0.7,4.3,2.8c12.4,27.5,24.9,54.9,37.3,82.3c0.5,1.2,1.1,2.3,1.7,3.4c9.2-2.3,18.2-4.5,27.4-6.7
			c-4.5-27.2-9-54.3-13.6-81.6h24.1c2.5,17.2,4.9,34.2,7.4,51.5c39.7-3.8,78.4,0.7,116.1,13.4c8.3-16.6,16.5-33,24.9-49.8
			c-9.6-2.9-18.7-6-28-8.5c-9.2-2.5-18.6-4.4-27.9-6.6h104.1c-38.9,65.2-77.6,130.1-116.4,195.3c25.8,9.3,47,24.7,63.8,46.3
			c0.9-1,1.7-1.8,2.4-2.7c69-78.9,138.1-157.7,207-236.6c1.6-1.9,3.2-2.6,5.7-2.6c77.2,0,154.4,0,231.6,0c0-0.2,0-0.4,0-0.5
			c-256.6,0-513.2,0-769.8,0v673.1h577.3c-0.1-0.2-0.1-0.4-0.1-0.6H392z M138.6,835.5c-0.3,0.5-0.9,1.1-1.4,1.1
			c-5.7,0.1-11.5,0-17.2,0c-0.1-0.8-0.1-1.1-0.1-1.5c0-19.3,0-38.6,0-57.9c12.8,8.3,25.2,16.4,37.8,24.5
			C151.3,812.9,145,824.2,138.6,835.5z"/>
		<path class="st2" d="M855.1,649.4c7.7-10.9,15.6-21.6,22.3-33.1c5.1-8.7,9.8-18.2,11.2-28.3c-94.3-21.4-188.5-42.8-282.8-64.3
			c-4.5,35.2-15.2,67.9-32.2,98.9c79.7,34.2,159.4,68.3,239,102.4C826.1,699.6,838.5,673.1,855.1,649.4z"/>
		<path class="st2" d="M871.8,655.3c-0.4,1.5-0.8,2.9-1.2,4.4c0.3-0.3,0.6-0.7,0.8-1c0.5-1.1,1-2.2,1.5-3.3c1.9-5.2,3.9-10.3,6-15.4
			c3.4-8.2,7-16.4,10.4-24.6c-1.2,2.3-2.5,4.5-3.8,6.7c-5.5,9.4-11.9,18.3-18.2,27.1C870.2,649.4,872.7,651.8,871.8,655.3z"/>
		<path class="st2" d="M223.1,489.8c0-60.6,49.3-109.9,109.9-110c60.7,0,110,49.3,110,110.1c0,60.6-49.3,109.8-110,109.8
			C272.3,599.7,223,550.5,223.1,489.8z"/>
		<path class="st2" d="M488.1,426.1c-4.9-9.3-9.6-18.3-14.5-27.6c56.7-62.4,113.7-125.1,171-188.1c15.5,17.2,29.3,35.4,41.7,55
			c-31.5,22.9-62.8,45.7-94,68.4c5.6,10.7,11,21,16.7,31.9C568.4,385.9,528.2,406,488.1,426.1z"/>
		<path class="st2" d="M626.1,338.4c16.6-7.7,33-15.4,49.8-23.3c20,39.3,32.8,80.8,38.7,124.7c18.3-1.1,36.5-2.1,55-3.2
			c3,24.8,4,49.4,2.7,74.5c-36.6-4.1-72.9-8.1-109.4-12.2C664,442.4,651.9,389,626.1,338.4z"/>
		<path class="st2" d="M438.2,594.1c26.1-26.9,40.5-59.5,42.8-97.7c2.2,0.5,4.3,0.9,6.3,1.4c29.5,6.8,59,13.7,88.6,20.5
			c2.2,0.5,2.8,1.2,2.5,3.5c-7.5,53.9-29.9,100.6-67.5,140c-0.9,0.9-1.7,2-2.4,2.7C484.9,640.9,461.6,617.6,438.2,594.1z"/>
		<path class="st2" d="M431,622.5c23.9,27.8,47.6,55.6,71.6,83.6c-11.3,9-23.2,16.8-35.8,23.9c8.2,16.4,16.3,32.6,24.6,49.2
			c-24.4,13.4-49.9,23.4-77,30.3c-0.8-6.6-1.5-12.9-2.2-19.2c-3.3-29.8-6.6-59.5-9.9-89.3c-2.1-18.7-4.2-37.5-6.2-56.2
			c-0.1-1.3-0.5-2.4,1.3-3.2C409.2,636.7,420.4,630.3,431,622.5z"/>
		<path class="st2" d="M527.7,683.8c13-13,24.7-27.5,35.2-43.4c38.8,24.3,77.6,48.5,116.5,72.8c-15.9,24.7-34.1,47.2-54.6,67.7
			C592.5,748.6,560.2,716.3,527.7,683.8z"/>
		<path class="st2" d="M525.7,482.4c-1.1-8.8-1.8-17.2-3.3-25.6c-1.4-8.2-3.6-16.4-5.5-24.9c34.7-10.4,69.7-20.9,104.6-31.4
			c8.4,17.3,16.7,81,13.3,101.7C598.3,495.6,561.9,489,525.7,482.4z"/>
		<path class="st2" d="M409.4,254.6c-9.8,19.5-19.3,38.6-28.9,57.7c-6.7,13.4-13.5,26.8-20.1,40.3c-0.9,1.8-1.8,2.2-3.8,2
			c-9.5-0.8-18.9-1.4-28.4-2c-1.4-0.1-2.2-0.2-2.4-1.9c-2.9-23.9-5.9-47.8-8.9-71.6c-1.5-11.7-2.9-23.5-4.4-35.7
			C345.6,240.6,377.7,244.4,409.4,254.6z"/>
		<path class="st2" d="M169.6,388.2c-8.2-4.5-16.1-8.8-24-13.1c5.1-9.6,21.7-31.1,28.4-36.8c19.8,18.8,39.5,37.7,59.5,56.7
			c-21.4,22.9-33.8,49.9-37.3,81.1c-18.3-1.8-36.3-3.6-54.6-5.5C144.7,441,154,413.7,169.6,388.2z"/>
		<path class="st2" d="M223.5,613.2c11,9.7,22.7,17.7,35.6,24c1.8,0.9,1.4,2.2,1.2,3.5c-1.5,11.6-3,23.1-4.5,34.7
			c-1.9,14.7-3.8,29.4-5.7,44.1c-0.1,0.9-0.3,1.8-0.6,3.2c-35.5-12.8-66.3-32.6-92.9-59.4C179,646.6,201.2,630,223.5,613.2z"/>
		<path class="st2" d="M289.9,274.2c3.6,18.1,7.2,35.8,10.8,53.9c-25,5.2-47.7,15.4-68.2,31.1c-11.1-14.5-22.2-28.8-33.5-43.6
			C226.1,294.8,256.2,281.2,289.9,274.2z"/>
	</g>
	<g>
		<path d="M696.4,836.6H392c-6.5-71.9-13-143.4-19.6-215.1c-26.5,7.7-52.6,7.6-78.9,0c-6.5,71.8-13,143.3-19.5,214.9h-37.4
			c0-0.5,0-0.9,0-1.2c3-27.2,6-54.3,9.1-81.5c0.3-2.3-0.1-3.4-2.5-4.2c-15.6-5.3-30.6-11.9-44.8-20.2c-9.1-5.3-17.9-11-27.1-16.7
			c-16.9,21.1-33.9,42.4-51.4,64.3c0-14.9,0-29.7,0.1-44.6c0-1.2,0.8-2.6,1.7-3.5c9.6-9.8,19.4-19.4,29.1-29.1
			c0.7-0.7,1.4-1.4,1.8-1.9c-9.9-10.1-19.7-19.9-29.5-29.9c-0.8,0.4-1.8,0.9-3.1,1.5c0-9.3,0.1-18.3-0.1-27.2c0-2.2,0.6-3.4,2.6-4.6
			c33.2-18.9,66.4-37.9,99.6-56.9c0.9-0.5,1.8-1.1,2.9-1.7c-9.4-11.4-16.5-23.7-22-37.1c-27.7,11.1-55.2,22.1-83,33.2
			c0-7.8,0.1-15.2-0.1-22.5c0-2,0.7-2.7,2.5-3.3c9.9-3.1,19.7-6.3,29.5-9.5c7.2-2.4,14.5-4.7,21.4-7c-1.8-11.1-3.6-21.9-5.4-32.8
			c-15.8,3.7-31.8,7.3-48,11.1v-3.4c0-23,0-45.9,0-68.9c0-1.8,0.1-3.8,0.7-5.5c3.2-9.6,6.5-19.1,9.7-28.6c0.6-1.7,1.4-3.4,2.2-5.3
			c-3.7-2-7.3-3.8-10.7-5.8c-0.9-0.5-1.8-1.9-1.8-2.9c-0.1-8.8-0.1-17.5-0.1-26.3c0-0.5-0.1-1.2,0.2-1.6c3.3-4.8,6.6-9.5,10-14.3
			c2.8-3.9,5.6-7.7,8.5-11.6c-5.7-5-11.4-9.8-16.9-14.9c-0.9-0.9-1.7-2.4-1.7-3.7c-0.2-6.2-0.1-12.5-0.1-18.8v-11.6
			c10.5,12,20.5,23.4,30.7,35c22.9-24.8,49.5-44.1,80.1-58.2c-19.9-33.4-39.6-66.5-59.6-100h3.3c14.3,0,28.6,0.1,42.8-0.1
			c2.3,0,3.4,0.7,4.3,2.8c12.4,27.5,24.9,54.9,37.3,82.3c0.5,1.2,1.1,2.3,1.7,3.4c9.2-2.3,18.2-4.5,27.4-6.7
			c-4.5-27.2-9-54.3-13.6-81.6h9.2c0-0.2,0-0.5,0-0.7c-54.7,0-109.5,0-164.2,0v673.1h577.3C696.5,837,696.4,836.8,696.4,836.6z
			 M138.6,835.5c-0.3,0.5-0.9,1.1-1.4,1.1c-5.7,0.1-11.5,0-17.2,0c-0.1-0.8-0.1-1.1-0.1-1.5c0-19.3,0-38.6,0-57.9
			c12.8,8.3,25.2,16.4,37.8,24.5C151.3,812.9,145,824.2,138.6,835.5z"/>
		<path d="M463.8,164.1c0,0.2,0,0.5-0.1,0.7h31.2c-38.9,65.2-77.6,130.1-116.4,195.3c25.8,9.3,47,24.7,63.8,46.3
			c0.9-1,1.7-1.8,2.4-2.7c69-78.9,138.1-157.7,207-236.6c1.6-1.9,3.2-2.6,5.7-2.6c77.2,0,154.4,0,231.6,0c0-0.2,0-0.4,0-0.5
			C747.3,164.1,605.6,164.1,463.8,164.1z"/>
		<path d="M855.1,649.4c7.7-10.9,15.6-21.6,22.3-33.1c5.1-8.7,9.8-18.2,11.2-28.3c-94.3-21.4-188.5-42.8-282.8-64.3
			c-4.5,35.2-15.2,67.9-32.2,98.9c79.7,34.2,159.4,68.3,239,102.4C826.1,699.6,838.5,673.1,855.1,649.4z"/>
		<path d="M871.8,655.3c-0.4,1.5-0.8,2.9-1.2,4.4c0.3-0.3,0.6-0.7,0.8-1c0.5-1.1,1-2.2,1.5-3.3c1.9-5.2,3.9-10.3,6-15.4
			c3.4-8.2,7-16.4,10.4-24.6c-1.2,2.3-2.5,4.5-3.8,6.7c-5.5,9.4-11.9,18.3-18.2,27.1C870.2,649.4,872.7,651.8,871.8,655.3z"/>
		<path d="M223.1,489.8c0-60.6,49.3-109.9,109.9-110c60.7,0,110,49.3,110,110.1c0,60.6-49.3,109.8-110,109.8
			C272.3,599.7,223,550.5,223.1,489.8z"/>
		<path d="M488.1,426.1c-4.9-9.3-9.6-18.3-14.5-27.6c56.7-62.4,113.7-125.1,171-188.1c15.5,17.2,29.3,35.4,41.7,55
			c-31.5,22.9-62.8,45.7-94,68.4c5.6,10.7,11,21,16.7,31.9C568.4,385.9,528.2,406,488.1,426.1z"/>
		<path d="M438.2,594.1c26.1-26.9,40.5-59.5,42.8-97.7c2.2,0.5,4.3,0.9,6.3,1.4c29.5,6.8,59,13.7,88.6,20.5c2.2,0.5,2.8,1.2,2.5,3.5
			c-7.5,53.9-29.9,100.6-67.5,140c-0.9,0.9-1.7,2-2.4,2.7C484.9,640.9,461.6,617.6,438.2,594.1z"/>
		<path d="M431,622.5c23.9,27.8,47.6,55.6,71.6,83.6c-11.3,9-23.2,16.8-35.8,23.9c8.2,16.4,16.3,32.6,24.6,49.2
			c-24.4,13.4-49.9,23.4-77,30.3c-0.8-6.6-1.5-12.9-2.2-19.2c-3.3-29.8-6.6-59.5-9.9-89.3c-2.1-18.7-4.2-37.5-6.2-56.2
			c-0.1-1.3-0.5-2.4,1.3-3.2C409.2,636.7,420.4,630.3,431,622.5z"/>
		<path d="M525.7,482.4c-1.1-8.8-1.8-17.2-3.3-25.6c-1.4-8.2-3.6-16.4-5.5-24.9c34.7-10.4,69.7-20.9,104.6-31.4
			c8.4,17.3,16.7,81,13.3,101.7C598.3,495.6,561.9,489,525.7,482.4z"/>
		<path d="M409.4,254.6c-9.8,19.5-19.3,38.6-28.9,57.7c-6.7,13.4-13.5,26.8-20.1,40.3c-0.9,1.8-1.8,2.2-3.8,2
			c-9.5-0.8-18.9-1.4-28.4-2c-1.4-0.1-2.2-0.2-2.4-1.9c-2.9-23.9-5.9-47.8-8.9-71.6c-1.5-11.7-2.9-23.5-4.4-35.7
			C345.6,240.6,377.7,244.4,409.4,254.6z"/>
		<path d="M169.6,388.2c-8.2-4.5-16.1-8.8-24-13.1c5.1-9.6,21.7-31.1,28.4-36.8c19.8,18.8,39.5,37.7,59.5,56.7
			c-21.4,22.9-33.8,49.9-37.3,81.1c-18.3-1.8-36.3-3.6-54.6-5.5C144.7,441,154,413.7,169.6,388.2z"/>
		<path d="M223.5,613.2c11,9.7,22.7,17.7,35.6,24c1.8,0.9,1.4,2.2,1.2,3.5c-1.5,11.6-3,23.1-4.5,34.7c-1.9,14.7-3.8,29.4-5.7,44.1
			c-0.1,0.9-0.3,1.8-0.6,3.2c-35.5-12.8-66.3-32.6-92.9-59.4C179,646.6,201.2,630,223.5,613.2z"/>
		<path d="M289.9,274.2c3.6,18.1,7.2,35.8,10.8,53.9c-25,5.2-47.7,15.4-68.2,31.1c-11.1-14.5-22.2-28.8-33.5-43.6
			C226.1,294.8,256.2,281.2,289.9,274.2z"/>
	</g>
	<g class="st1">
		<path class="st2" d="M119.8,298.5v-10.6c10.5,12,20.5,23.4,30.7,35c22.9-24.8,49.5-44.1,80.1-58.2c-19.9-33.4-39.6-66.5-59.6-100
			h3.3c4.2,0,8.5,0,12.7,0c-0.1-0.2-0.1-0.4-0.2-0.6c-22.5,0-45,0-67.5,0v134C119.5,298.2,119.7,298.4,119.8,298.5z"/>
		<path class="st2" d="M119.8,373.9c0-3.2,0-6.3,0-9.5c0-0.5-0.1-1.2,0.2-1.6c3.3-4.8,6.6-9.5,10-14.3c2.8-3.9,5.6-7.7,8.5-11.6
			c-5.7-5-11.4-9.8-16.9-14.9c-0.9-0.9-1.7-2.4-1.7-3.7c-0.1-2.6-0.1-5.1-0.1-7.7c-0.2-0.1-0.4-0.2-0.5-0.4v63.7
			C119.5,373.9,119.6,373.9,119.8,373.9z"/>
		<path class="st2" d="M119.8,490c0-17.1,0-34.1,0-51.2c0-1.8,0.1-3.8,0.7-5.5c3.2-9.6,6.5-19.1,9.7-28.6c0.6-1.7,1.4-3.4,2.2-5.3
			c-3.7-2-7.3-3.8-10.7-5.8c-0.9-0.5-1.8-1.9-1.8-2.9c0-2.3-0.1-4.6-0.1-6.8c-0.2,0-0.4,0-0.6,0V490C119.5,490,119.7,490,119.8,490z
			"/>
		<path class="st2" d="M119.5,747.7c0.1-0.4,0.2-0.7,0.4-1.1c0-4.7,0-9.5,0-14.2c0-1.2,0.8-2.6,1.7-3.5c9.6-9.8,19.4-19.4,29.1-29.1
			c0.7-0.7,1.4-1.4,1.8-1.9c-9.9-10.1-19.7-19.9-29.5-29.9c-0.8,0.4-1.8,0.9-3.1,1.5c0-9.3,0.1-18.3-0.1-27.2c0-2.2,0.6-3.4,2.6-4.6
			c33.2-18.9,66.4-37.9,99.6-56.9c0.9-0.5,1.8-1.1,2.9-1.7c-9.4-11.4-16.5-23.7-22-37.1c-27.7,11.1-55.2,22.1-83,33.2
			c0-7.8,0.1-15.2-0.1-22.5c0-2,0.7-2.7,2.5-3.3c9.9-3.1,19.7-6.3,29.5-9.5c7.2-2.4,14.5-4.7,21.4-7c-1.8-11.1-3.6-21.9-5.4-32.8
			c-15.8,3.7-31.8,7.3-48,11.1v-3.4c0-2.6,0-5.2,0-7.8c-0.2,0-0.4,0-0.6,0v248.5C119.4,748.1,119.4,747.9,119.5,747.7z"/>
		<path class="st2" d="M414.9,837.2h281.6c-0.1-0.2-0.1-0.4-0.1-0.6H415C415,836.8,414.9,837,414.9,837.2z"/>
		<path class="st2" d="M252.1,836.5h-15.5c0-0.5,0-0.9,0-1.2c3-27.2,6-54.3,9.1-81.5c0.3-2.3-0.1-3.4-2.5-4.2
			c-15.6-5.3-30.6-11.9-44.8-20.2c-9.1-5.3-17.9-11-27.1-16.7c-16.9,21.1-33.9,42.4-51.4,64.3c0-4.4,0-8.8,0-13.1
			c-0.2,0.2-0.4,0.3-0.6,0.5v72.9h132.9C252.2,837,252.2,836.7,252.1,836.5z M138.6,835.5c-0.3,0.5-0.9,1.1-1.4,1.1
			c-5.7,0.1-11.5,0-17.2,0c-0.1-0.8-0.1-1.1-0.1-1.5c0-19.3,0-38.6,0-57.9c12.8,8.3,25.2,16.4,37.8,24.5
			C151.3,812.9,145,824.2,138.6,835.5z"/>
		<path class="st2" d="M481.8,164.1c0,0.2,0.1,0.5,0.1,0.7h13.1c-38.9,65.2-77.6,130.1-116.4,195.3c25.8,9.3,47,24.7,63.8,46.3
			c0.9-1,1.7-1.8,2.4-2.7c69-78.9,138.1-157.7,207-236.6c1.6-1.9,3.2-2.6,5.7-2.6c77.2,0,154.4,0,231.6,0c0-0.2,0-0.4,0-0.5
			C753.3,164.1,617.5,164.1,481.8,164.1z"/>
		<path class="st2" d="M871.8,655.3c-0.4,1.5-0.8,2.9-1.2,4.4c0.3-0.3,0.6-0.7,0.8-1c0.5-1.1,1-2.2,1.5-3.3c1.9-5.2,3.9-10.3,6-15.4
			c3.4-8.2,7-16.4,10.4-24.6c-1.2,2.3-2.5,4.5-3.8,6.7c-5.5,9.4-11.9,18.3-18.2,27.1C870.2,649.4,872.7,651.8,871.8,655.3z"/>
		<path class="st2" d="M223.1,489.8c0-60.6,49.3-109.9,109.9-110c60.7,0,110,49.3,110,110.1c0,60.6-49.3,109.8-110,109.8
			C272.3,599.7,223,550.5,223.1,489.8z"/>
		<path class="st2" d="M488.1,426.1c-4.9-9.3-9.6-18.3-14.5-27.6c56.7-62.4,113.7-125.1,171-188.1c15.5,17.2,29.3,35.4,41.7,55
			c-31.5,22.9-62.8,45.7-94,68.4c5.6,10.7,11,21,16.7,31.9C568.4,385.9,528.2,406,488.1,426.1z"/>
		<path class="st2" d="M438.2,594.1c26.1-26.9,40.5-59.5,42.8-97.7c2.2,0.5,4.3,0.9,6.3,1.4c29.5,6.8,59,13.7,88.6,20.5
			c2.2,0.5,2.8,1.2,2.5,3.5c-7.5,53.9-29.9,100.6-67.5,140c-0.9,0.9-1.7,2-2.4,2.7C484.9,640.9,461.6,617.6,438.2,594.1z"/>
		<path class="st2" d="M431,622.5c23.9,27.8,47.6,55.6,71.6,83.6c-11.3,9-23.2,16.8-35.8,23.9c8.2,16.4,16.3,32.6,24.6,49.2
			c-24.4,13.4-49.9,23.4-77,30.3c-0.8-6.6-1.5-12.9-2.2-19.2c-3.3-29.8-6.6-59.5-9.9-89.3c-2.1-18.7-4.2-37.5-6.2-56.2
			c-0.1-1.3-0.5-2.4,1.3-3.2C409.2,636.7,420.4,630.3,431,622.5z"/>
		<path class="st2" d="M525.7,482.4c-1.1-8.8-1.8-17.2-3.3-25.6c-1.4-8.2-3.6-16.4-5.5-24.9c34.7-10.4,69.7-20.9,104.6-31.4
			c8.4,17.3,16.7,81,13.3,101.7C598.3,495.6,561.9,489,525.7,482.4z"/>
		<path class="st2" d="M409.4,254.6c-9.8,19.5-19.3,38.6-28.9,57.7c-6.7,13.4-13.5,26.8-20.1,40.3c-0.9,1.8-1.8,2.2-3.8,2
			c-9.5-0.8-18.9-1.4-28.4-2c-1.4-0.1-2.2-0.2-2.4-1.9c-2.9-23.9-5.9-47.8-8.9-71.6c-1.5-11.7-2.9-23.5-4.4-35.7
			C345.6,240.6,377.7,244.4,409.4,254.6z"/>
		<path class="st2" d="M169.6,388.2c-8.2-4.5-16.1-8.8-24-13.1c5.1-9.6,21.7-31.1,28.4-36.8c19.8,18.8,39.5,37.7,59.5,56.7
			c-21.4,22.9-33.8,49.9-37.3,81.1c-18.3-1.8-36.3-3.6-54.6-5.5C144.7,441,154,413.7,169.6,388.2z"/>
		<path class="st2" d="M223.5,613.2c11,9.7,22.7,17.7,35.6,24c1.8,0.9,1.4,2.2,1.2,3.5c-1.5,11.6-3,23.1-4.5,34.7
			c-1.9,14.7-3.8,29.4-5.7,44.1c-0.1,0.9-0.3,1.8-0.6,3.2c-35.5-12.8-66.3-32.6-92.9-59.4C179,646.6,201.2,630,223.5,613.2z"/>
		<path class="st2" d="M289.9,274.2c3.6,18.1,7.2,35.8,10.8,53.9c-25,5.2-47.7,15.4-68.2,31.1c-11.1-14.5-22.2-28.8-33.5-43.6
			C226.1,294.8,256.2,281.2,289.9,274.2z"/>
		<path class="st2" d="M275.9,700.6c4.7-17.8,9.2-35.3,13.9-53.2c24.8,6.3,49.6,7,75,1.9c3.7,17.9,7.3,35.7,11.1,53.8
			C342.3,710,309.2,709.1,275.9,700.6z"/>
	</g>
	<g class="st1">
		<path class="st2" d="M119.8,288.1v-0.2c0.1,0.1,0.1,0.1,0.2,0.2c1.9,0,3.8,1.1,4.1,3.6c0.1,0.4,0.1,0.9,0.2,1.3
			c8.9,10.2,17.5,19.9,26.2,29.9c22.9-24.8,49.5-44.1,80.1-58.2c-19.1-32.1-38.2-64-57.4-96.3c-2.1-0.5-3.3-2.3-3.5-4.3
			c-16.8,0-33.6,0-50.4,0v124C119.5,288.1,119.7,288.1,119.8,288.1z"/>
		<path class="st2" d="M120.2,362.5c3.2-4.7,6.5-9.4,9.8-14c2.8-3.9,5.6-7.7,8.5-11.6c-5-4.4-10-8.7-14.9-13.1
			c-0.4,2.5-2.3,3.8-4.3,4v34.8C119.6,362.5,119.9,362.5,120.2,362.5z"/>
		<path class="st2" d="M122.4,637.6c33.2-18.9,66.4-37.9,99.6-56.9c0.9-0.5,1.8-1.1,2.9-1.7c-9.4-11.4-16.5-23.7-22-37.1
			c-27.7,11.1-55.2,22.1-83,33.2c0-7.8,0.1-15.2-0.1-22.5c0-2,0.7-2.7,2.5-3.3c9.9-3.1,19.7-6.3,29.5-9.5c7.2-2.4,14.5-4.7,21.4-7
			c-1.8-11.1-3.6-21.9-5.4-32.8c-15.8,3.7-31.8,7.3-48,11.1v-3.4c0-23,0-45.9,0-68.9c0-1.8,0.1-3.8,0.7-5.5
			c3.2-9.6,6.5-19.1,9.7-28.6c0.6-1.7,1.4-3.4,2.2-5.3c-3.7-2-7.3-3.8-10.7-5.8c-0.6-0.3-1.2-1-1.5-1.7c-0.3,0.2-0.6,0.3-1,0.4
			v341.6c0.2-0.1,0.4-0.2,0.6-0.3c0-0.4,0-0.8,0-1.2c0-1.2,0.8-2.6,1.7-3.5c9.6-9.8,19.4-19.4,29.1-29.1c0.7-0.7,1.4-1.4,1.8-1.9
			c-9.9-10.1-19.7-19.9-29.5-29.9c-0.8,0.4-1.8,0.9-3.1,1.5c0-9.3,0.1-18.3-0.1-27.2C119.8,640,120.4,638.8,122.4,637.6z"/>
		<path class="st2" d="M860.8,164.1c0,0.2,0,0.4,0.1,0.5c9.4,0,18.8,0,28.2,0c0-0.2,0-0.4,0-0.5
			C879.7,164.1,870.2,164.1,860.8,164.1z"/>
		<path class="st2" d="M871.8,655.3c-0.4,1.5-0.8,2.9-1.2,4.4c0.3-0.3,0.6-0.7,0.8-1c0.5-1.1,1-2.2,1.5-3.3c1.9-5.2,3.9-10.3,6-15.4
			c3.4-8.2,7-16.4,10.4-24.6c-1.2,2.3-2.5,4.5-3.8,6.7c-5.5,9.4-11.9,18.3-18.2,27.1C870.2,649.4,872.7,651.8,871.8,655.3z"/>
		<path class="st2" d="M223.1,489.8c0-60.6,49.3-109.9,109.9-110c60.7,0,110,49.3,110,110.1c0,60.6-49.3,109.8-110,109.8
			C272.3,599.7,223,550.5,223.1,489.8z"/>
		<path class="st2" d="M589.6,331.6c-4.7-6.5-10.6-12.2-16.2-17.9c-3.9-4-8-7.9-12-11.8c-29.3,32.3-58.6,64.4-87.7,96.5
			c4.9,9.3,9.6,18.3,14.5,27.6c40.1-20.1,80.4-40.2,120.9-60.5c-3.4-6.5-6.7-12.9-10.1-19.2C596,341.3,593,336.3,589.6,331.6z"/>
		<path class="st2" d="M438.2,594.1c26.1-26.9,40.5-59.5,42.8-97.7c2.2,0.5,4.3,0.9,6.3,1.4c29.5,6.8,59,13.7,88.6,20.5
			c2.2,0.5,2.8,1.2,2.5,3.5c-7.5,53.9-29.9,100.6-67.5,140c-0.9,0.9-1.7,2-2.4,2.7C484.9,640.9,461.6,617.6,438.2,594.1z"/>
		<path class="st2" d="M431,622.5c23.9,27.8,47.6,55.6,71.6,83.6c-11.3,9-23.2,16.8-35.8,23.9c8.2,16.4,16.3,32.6,24.6,49.2
			c-24.4,13.4-49.9,23.4-77,30.3c-0.8-6.6-1.5-12.9-2.2-19.2c-3.3-29.8-6.6-59.5-9.9-89.3c-2.1-18.7-4.2-37.5-6.2-56.2
			c-0.1-1.3-0.5-2.4,1.3-3.2C409.2,636.7,420.4,630.3,431,622.5z"/>
		<path class="st2" d="M525.7,482.4c-1.1-8.8-1.8-17.2-3.3-25.6c-1.4-8.2-3.6-16.4-5.5-24.9c34.7-10.4,69.7-20.9,104.6-31.4
			c8.4,17.3,16.7,81,13.3,101.7C598.3,495.6,561.9,489,525.7,482.4z"/>
		<path class="st2" d="M409.4,254.6c-9.8,19.5-19.3,38.6-28.9,57.7c-6.7,13.4-13.5,26.8-20.1,40.3c-0.9,1.8-1.8,2.2-3.8,2
			c-9.5-0.8-18.9-1.4-28.4-2c-1.4-0.1-2.2-0.2-2.4-1.9c-2.9-23.9-5.9-47.8-8.9-71.6c-1.5-11.7-2.9-23.5-4.4-35.7
			C345.6,240.6,377.7,244.4,409.4,254.6z"/>
		<path class="st2" d="M169.6,388.2c-8.2-4.5-16.1-8.8-24-13.1c5.1-9.6,21.7-31.1,28.4-36.8c19.8,18.8,39.5,37.7,59.5,56.7
			c-21.4,22.9-33.8,49.9-37.3,81.1c-18.3-1.8-36.3-3.6-54.6-5.5C144.7,441,154,413.7,169.6,388.2z"/>
		<path class="st2" d="M223.5,613.2c11,9.7,22.7,17.7,35.6,24c1.8,0.9,1.4,2.2,1.2,3.5c-1.5,11.6-3,23.1-4.5,34.7
			c-1.9,14.7-3.8,29.4-5.7,44.1c-0.1,0.9-0.3,1.8-0.6,3.2c-35.5-12.8-66.3-32.6-92.9-59.4C179,646.6,201.2,630,223.5,613.2z"/>
		<path class="st2" d="M289.9,274.2c3.6,18.1,7.2,35.8,10.8,53.9c-25,5.2-47.7,15.4-68.2,31.1c-11.1-14.5-22.2-28.8-33.5-43.6
			C226.1,294.8,256.2,281.2,289.9,274.2z"/>
		<path class="st2" d="M498.4,336.7c-12.6,13.4-25,26.6-37.6,40c-18.7-17.4-40.2-29.9-64.9-37.5c5.3-17.5,10.6-34.8,16-52.6
			C444.6,296.7,473.2,313.3,498.4,336.7z"/>
		<path class="st2" d="M275.9,700.6c4.7-17.8,9.2-35.3,13.9-53.2c24.8,6.3,49.6,7,75,1.9c3.7,17.9,7.3,35.7,11.1,53.8
			C342.3,710,309.2,709.1,275.9,700.6z"/>
	</g>
	<g>
		<g>
			<path d="M162.2,387.3c0.2,0.5,0.3,1,0.5,1.5c0.4,1.2,1.1,2.3,2.3,3c1.1,0.6,2.7,0.9,3.9,0.5c1.2-0.4,2.4-1.1,3-2.3
				c0.6-1.1,0.9-2.6,0.5-3.9c-0.2-0.5-0.3-1-0.5-1.5c-0.4-1.2-1.1-2.3-2.3-3c-1.1-0.6-2.7-0.9-3.9-0.5c-1.2,0.4-2.4,1.1-3,2.3
				C162.1,384.6,161.8,386,162.2,387.3L162.2,387.3z"/>
		</g>
	</g>
</g>
</svg>
