<?xml version="1.0" encoding="utf-8"?>
<!-- Generator: Adobe Illustrator 19.2.1, SVG Export Plug-In . SVG Version: 6.00 Build 0)  -->
<svg version="1.1" id="Calque_1" xmlns="http://www.w3.org/2000/svg" xmlns:xlink="http://www.w3.org/1999/xlink" x="0px" y="0px"
	 viewBox="0 0 200 200" style="enable-background:new 0 0 200 200;" xml:space="preserve">
<style type="text/css">
	.st0{fill:#010202;stroke:#000000;stroke-miterlimit:10;}
	.st1{fill:#FFFFFF;}
</style>
<rect class="st0" width="200" height="200"/>
<g>
	<path class="st1" d="M146.6,18c4,6.5,8.1,13,12.1,19.5s8.1,13,12,19.6l11.9,19.6l11.9,19.6l0.7,1.1l-0.7,1.2l-11.1,20.1l-11.2,20
		l-11.2,20l-11.3,20l-1,1.8h-2.1l-22.9,0.2c-7.6,0.1-15.3,0.1-22.9,0.1l-46,0.2h-2.3l-1.2-2l-22.8-39.8l-11.4-19.9l-11.3-20l-1-1.8
		l1-1.8l11.6-19.8l11.7-19.7l11.7-19.7c4-6.6,8-13.1,11.9-19.7l0.7-1.2h1.3L77.6,16l22.9,0.6c7.6,0.2,15.3,0.4,22.9,0.6
		C131.3,17.5,138.9,17.8,146.6,18z M146.6,18c-7.6,0.3-15.3,0.6-22.9,0.8c-7.6,0.2-15.3,0.5-22.9,0.6L77.9,20l-23.1,0.4l2.1-1.2
		c-3.7,6.7-7.4,13.4-11.1,20.1l-11.2,20l-11.3,20L12,99.3v-3.6l11.6,19.8l11.6,19.8l23,39.7l-3.5-2l45.9,0.1c7.6,0,15.3,0,22.9,0.1
		l22.9,0.2l-3.1,1.8l11.6-19.8l11.7-19.7l11.7-19.7l12.1-19.7v2.4l-11.1-20.1l-11-20.1c-3.7-6.7-7.3-13.5-10.9-20.2
		C153.7,31.6,150.2,24.8,146.6,18z"/>
</g>
<g>
	<line class="st1" x1="60" y1="149.5" x2="146.9" y2="149.5"/>
	<path class="st1" d="M60,149.5l3.7-0.1c2.4-0.1,5.8-0.2,9.8-0.3s8.8-0.2,13.9-0.2l7.8,0h8.1h8.1l7.8,0.1c5.1,0,9.8,0.1,13.9,0.2
		c4.1,0.1,7.5,0.2,9.8,0.3l3.7,0.1l-3.7,0.1c-2.4,0.1-5.8,0.2-9.8,0.3c-4.1,0.1-8.8,0.2-13.9,0.2l-7.8,0.1h-8.1h-8.1l-7.8-0.1
		c-5.1,0-9.8-0.1-13.9-0.2c-4.1-0.1-7.5-0.2-9.8-0.3L60,149.5z"/>
</g>
<g>
	<path class="st1" d="M93.3,48.2h3v-8.5c0-0.3,0-0.7,0-1l-2.1,1.7c-0.1,0.1-0.2,0.1-0.4,0.2c-0.1,0-0.2,0-0.3,0
		c-0.1,0-0.2-0.1-0.3-0.1c-0.1,0-0.1-0.1-0.2-0.2l-0.8-1.1l4.5-3.8h2v12.9h2.6v1.9h-8.1L93.3,48.2L93.3,48.2z"/>
	<path class="st1" d="M112.8,36.4c0,0.3-0.1,0.6-0.3,0.9c-0.3,0.3-0.7,0.4-1.1,0.3h-4.1l-0.5,3.1c0.6-0.1,1.2-0.2,1.8-0.2
		c0.7,0,1.4,0.1,2,0.3c0.6,0.2,1.1,0.5,1.5,1c0.4,0.4,0.7,0.9,0.9,1.4c0.2,0.6,0.3,1.2,0.3,1.8c0,0.7-0.1,1.5-0.4,2.1
		c-0.3,0.6-0.7,1.2-1.1,1.7c-0.5,0.5-1.1,0.8-1.7,1.1c-0.7,0.3-1.4,0.4-2.2,0.4c-0.4,0-0.9,0-1.3-0.1c-0.8-0.2-1.5-0.5-2.2-0.9
		c-0.3-0.2-0.6-0.4-0.8-0.7l0.8-1.1c0.1-0.2,0.4-0.3,0.6-0.3c0.2,0,0.4,0.1,0.5,0.2l0.6,0.4c0.3,0.1,0.5,0.3,0.8,0.4
		c0.4,0.1,0.7,0.2,1.1,0.2c0.4,0,0.8-0.1,1.2-0.2c0.3-0.1,0.6-0.4,0.9-0.6c0.2-0.3,0.4-0.6,0.5-1c0.1-0.4,0.2-0.8,0.2-1.2
		c0-0.7-0.2-1.4-0.7-1.9c-0.6-0.5-1.3-0.7-2-0.7c-0.7,0-1.5,0.1-2.1,0.4l-1.6-0.4l1.2-7.1h7.3L112.8,36.4L112.8,36.4z"/>
</g>
<path class="st1" d="M132.9,98.8l7.5-6l-8.1-5.1l4.9-8.2l-9.4-1.9l1.6-9.5l-9.4,1.6l-1.9-9.4l-9.1,5l-6.2-8.3l-5.6,7.8l-8-5.3
	l-2.4,9.3l-9.4-2.1l1.1,9.5L69,77.7l4.4,8.5l-8.3,4.7l7.2,6.3l-6.1,7.4l9,3.3l-3.1,9.1l9.6-0.1l0.4,9.6L91,123l3.8,8.8l7.1-6.5
	l6.7,6.8l4.3-8.6l8.7,4l0.9-9.5l9.6,0.6l-2.6-9.2l9.1-2.9L132.9,98.8z M79.4,94.6c0-12.9,10.5-23.4,23.4-23.4
	c12.9,0,23.4,10.5,23.4,23.4S115.7,118,102.8,118c0,0,0,0,0,0C89.9,118,79.4,107.5,79.4,94.6L79.4,94.6z"/>
</svg>
