<svg id="Calque_1" data-name="Calque 1" xmlns="http://www.w3.org/2000/svg" viewBox="0 0 235.43 204.21">
  <title>Succ5</title>
  <g>
    <polygon points="175.8 1.82 233.36 101.51 175.8 201.21 60.68 201.21 3.12 101.51 60.68 1.82 175.8 1.82" style="fill: #fff"/>
    <path d="M421.31,137.25c5,8.22,10,16.4,14.88,24.64L451,186.59l14.78,24.7L480.43,236l0.52,0.87-0.52.92L466.3,262.92l-14.19,25-14.2,25-14.27,25-0.76,1.34h-1.57l-28.78.14-28.78.07-57.56.09h-1.73l-0.86-1.5-28.7-49.89-14.33-25-14.27-25-0.78-1.37,0.78-1.33,14.51-24.85,14.58-24.82L290,161.12l14.65-24.77,0.54-.91h1L335,135.78l28.78,0.45,28.78,0.45C402.13,136.81,411.72,137.06,421.31,137.25Zm0,0c-9.59.19-19.19,0.44-28.78,0.57l-28.78.45-28.78.45-28.78.33,1.56-.9-14.13,25.08-14.19,25-14.2,25L251,238.3v-2.7l14.51,24.85,14.45,24.89,28.86,49.8-2.6-1.5,57.56,0.09,28.78,0.07L421.31,334,419,335.3l14.51-24.85,14.58-24.81,14.59-24.81L477.32,236v1.8l-14.1-25.09-14-25.15-14-25.15C430.53,154.08,425.95,145.65,421.31,137.25Z" transform="translate(-245.52 -135.43)" style="fill: #1d1d1b"/>
  </g>
  <path d="M393.11,194.67a10.55,10.55,0,0,1-.66,3.81,7.76,7.76,0,0,1-2.07,3,9.52,9.52,0,0,1-3.71,2,19.38,19.38,0,0,1-5.52.69H358.27L355.58,220q2.69-.46,5.19-0.69t4.86-.23a35.93,35.93,0,0,1,13.34,2.3,28.16,28.16,0,0,1,9.73,6.28,26.07,26.07,0,0,1,5.95,9.33,32.47,32.47,0,0,1,2,11.47,35.16,35.16,0,0,1-2.73,14,32.61,32.61,0,0,1-7.59,10.94,34.12,34.12,0,0,1-11.6,7.13A41.69,41.69,0,0,1,360,283.07a39.21,39.21,0,0,1-8.91-1,42.68,42.68,0,0,1-14.82-6.54,45.25,45.25,0,0,1-5.72-4.7l6.31-8.41a6.86,6.86,0,0,1,2.3-2,6,6,0,0,1,2.83-.69,6.91,6.91,0,0,1,3.71,1.08l3.81,2.37a28.3,28.3,0,0,0,4.83,2.33,19.3,19.3,0,0,0,6.84,1.05,16.4,16.4,0,0,0,7-1.35,12.5,12.5,0,0,0,4.7-3.68,15,15,0,0,0,2.63-5.45,26.12,26.12,0,0,0,.82-6.67q0-7-3.94-10.62t-11.17-3.65a34.19,34.19,0,0,0-12.62,2.43l-12.62-3.42,8.15-47.92h49v8.41Z" transform="translate(-245.52 -135.43)" style="fill: #1d1d1b"/>
  <g>
    <line x1="54.12" y1="156.51" x2="182.35" y2="156.51" style="fill: #1d1d1b"/>
    <path d="M299.64,291.95l5.51-.19c3.51-.09,8.51-0.27,14.53-0.38s13-.24,20.54-0.31L351.8,291l12,0,12,0,11.58,0.09c7.51,0.07,14.53.18,20.54,0.31s11,0.29,14.53.38l5.51,0.19-5.51.19c-3.51.09-8.51,0.27-14.53,0.38s-13,.24-20.54.31l-11.58.09-12,0-12,0-11.58-.09c-7.51-.07-14.53-0.18-20.54-0.31s-11-.29-14.53-0.38Z" transform="translate(-245.52 -135.43)" style="fill: #1d1d1b"/>
  </g>
</svg>
