<svg id="Calque_1" data-name="Calque 1" xmlns="http://www.w3.org/2000/svg" viewBox="0 0 235.43 204.21">
  <title>SuccBat5</title>
  <g>
    <polygon points="175.8 1.82 233.36 101.51 175.8 201.21 60.68 201.21 3.12 101.51 60.68 1.82 175.8 1.82" style="fill: #fff"/>
    <path d="M421.31,137.25c5,8.22,10,16.4,14.88,24.64L451,186.59l14.78,24.7L480.43,236l0.52,0.87-0.52.92L466.3,262.92l-14.19,25-14.2,25-14.27,25-0.76,1.34h-1.57l-28.78.14-28.78.07-57.56.09h-1.73l-0.86-1.5-28.7-49.89-14.33-25-14.27-25-0.78-1.37,0.78-1.33,14.51-24.85,14.58-24.82L290,161.12l14.65-24.77,0.54-.91h1L335,135.78l28.78,0.45,28.78,0.45C402.13,136.81,411.72,137.06,421.31,137.25Zm0,0c-9.59.19-19.19,0.44-28.78,0.57l-28.78.45-28.78.45-28.78.33,1.56-.9-14.13,25.08-14.19,25-14.2,25L251,238.3v-2.7l14.51,24.85,14.45,24.89,28.86,49.8-2.6-1.5,57.56,0.09,28.78,0.07L421.31,334,419,335.3l14.51-24.85,14.58-24.81,14.59-24.81L477.32,236v1.8l-14.1-25.09-14-25.15-14-25.15C430.53,154.08,425.95,145.65,421.31,137.25Z" transform="translate(-245.52 -135.43)" style="fill: #1d1d1b"/>
  </g>
  <g>
    <line x1="54.12" y1="156.51" x2="182.35" y2="156.51" style="fill: #1d1d1b"/>
    <path d="M299.64,291.95l5.51-.19c3.51-.09,8.51-0.27,14.53-0.38s13-.24,20.54-0.31L351.8,291l12,0,12,0,11.58,0.09c7.51,0.07,14.53.18,20.54,0.31s11,0.29,14.53.38l5.51,0.19-5.51.19c-3.51.09-8.51,0.27-14.53,0.38s-13,.24-20.54.31l-11.58.09-12,0-12,0-11.58-.09c-7.51-.07-14.53-0.18-20.54-0.31s-11-.29-14.53-0.38Z" transform="translate(-245.52 -135.43)" style="fill: #1d1d1b"/>
  </g>
  <path d="M369.64,147.26a1.74,1.74,0,0,1-.5,1.29,2.33,2.33,0,0,1-1.68.5h-6l-0.78,4.53a13.44,13.44,0,0,1,2.67-.3,8.25,8.25,0,0,1,3,.51,6.18,6.18,0,0,1,2.19,1.41,5.92,5.92,0,0,1,1.33,2.11,7.4,7.4,0,0,1,.45,2.6,8,8,0,0,1-.61,3.15,7.14,7.14,0,0,1-1.69,2.44,7.62,7.62,0,0,1-2.56,1.57,9.08,9.08,0,0,1-3.22.56,8.61,8.61,0,0,1-1.93-.21,9.6,9.6,0,0,1-3.2-1.37,9.4,9.4,0,0,1-1.22-1l1.14-1.57A1.11,1.11,0,0,1,358,163a1.46,1.46,0,0,1,.77.24l0.89,0.52a7.32,7.32,0,0,0,1.18.52,5,5,0,0,0,1.64.24,4.59,4.59,0,0,0,1.8-.33,3.5,3.5,0,0,0,1.3-.92,4,4,0,0,0,.78-1.41,5.79,5.79,0,0,0,.26-1.78,3.68,3.68,0,0,0-1-2.77,4.19,4.19,0,0,0-3-1,9.51,9.51,0,0,0-3.17.57l-2.31-.66,1.8-10.53h10.71v1.57Z" transform="translate(-245.52 -135.43)" style="fill: #1d1d1b"/>
  <path d="M417.49,227.9l-16.3-15.13V188H382.42v7.36l-18.77-17.43-53.84,50a1.88,1.88,0,0,0,2.56,2.75l6.23-5.79v62.6h90.1v-62.6l6.23,5.79A1.88,1.88,0,0,0,417.49,227.9Zm-31.31-36.17h11.26v17.55l-11.26-10.46v-7.09Zm-33.79,92V244.18a1.76,1.76,0,0,1,1.76-1.76h19a1.76,1.76,0,0,1,1.76,1.76v39.54H352.39Zm52.56,0H378.67V244.18a5.52,5.52,0,0,0-5.51-5.51h-19a5.52,5.52,0,0,0-5.51,5.51v39.54H322.36V221.38L363.65,183l26.81,24.89,10.74,10h0l3.75,3.49v62.34Z" transform="translate(-245.52 -135.43)" style="fill: #000100"/>
</svg>
