<?xml version="1.0" encoding="utf-8"?>
<!-- Generator: Adobe Illustrator 19.2.1, SVG Export Plug-In . SVG Version: 6.00 Build 0)  -->
<svg version="1.1" xmlns="http://www.w3.org/2000/svg" xmlns:xlink="http://www.w3.org/1999/xlink" x="0px" y="0px"
	 viewBox="0 0 200 200" style="enable-background:new 0 0 200 200;" xml:space="preserve">
<style type="text/css">
	.st0{fill:#010202;stroke:#000000;stroke-miterlimit:10;}
	.st1{fill:#FFFFFF;}
	.st2{font-family:'Lato-Black';}
	.st3{font-size:104.7986px;}
</style>
<g id="Calque_2">
	<rect x="1" class="st0" width="200" height="200"/>
</g>
<g id="Calque_1">
	<g>
		<path class="st1" d="M143.8,18.7c4,6.5,8.1,13,12.1,19.5c4,6.5,8.1,13,12,19.6l11.9,19.6L191.7,97l0.7,1.1l-0.7,1.2l-11.1,20.1
			l-11.2,20l-11.2,20l-11.3,20l-1,1.8l-2.1,0l-22.9,0.2c-7.6,0.1-15.3,0.1-22.9,0.1L52,181.7l-2.3,0l-1.2-2l-22.8-39.8L14.3,120
			L3,100l-1-1.8l1-1.8l11.6-19.8l11.7-19.7l11.7-19.7C42,30.6,46,24.1,49.9,17.5l0.7-1.2l1.3,0l22.9,0.4l22.9,0.6
			c7.6,0.2,15.3,0.4,22.9,0.6C128.5,18.2,136.1,18.5,143.8,18.7z M143.8,18.7c-7.6,0.3-15.3,0.6-22.9,0.8
			c-7.6,0.2-15.3,0.5-22.9,0.6l-22.9,0.6L52,21.1l2.1-1.2C50.4,26.6,46.7,33.3,43,40L31.8,60L20.5,80L9.2,100l0-3.6l11.6,19.8
			L32.4,136l23,39.7l-3.5-2l45.9,0.1c7.6,0,15.3,0,22.9,0.1l22.9,0.2l-3.1,1.8l11.6-19.8l11.7-19.7l11.7-19.7L187.6,97v2.4
			l-11.1-20.1l-11-20.1c-3.7-6.7-7.3-13.5-10.9-20.2C150.9,32.3,147.4,25.5,143.8,18.7z"/>
	</g>
	<text transform="matrix(1 0 0 1 37.1057 134.1419)" class="st1 st2 st3">15</text>
	<g>
		<line x1="46.8" y1="142.1" x2="149" y2="142.1"/>
		<path class="st1" d="M46.8,142.1c0,0,1.6-0.1,4.4-0.2c2.8-0.1,6.8-0.3,11.6-0.4c4.8-0.1,10.4-0.2,16.4-0.3c3,0,6.1-0.1,9.2-0.1
			c3.1,0,6.3,0,9.5,0c3.2,0,6.4,0,9.5,0c3.1,0,6.2,0.1,9.2,0.1c6,0.1,11.6,0.2,16.4,0.3c4.8,0.1,8.8,0.3,11.6,0.4
			c2.8,0.1,4.4,0.2,4.4,0.2s-1.6,0.1-4.4,0.2c-2.8,0.1-6.8,0.3-11.6,0.4c-4.8,0.1-10.4,0.2-16.4,0.3c-3,0-6.1,0.1-9.2,0.1
			c-3.1,0-6.3,0-9.5,0c-3.2,0-6.4,0-9.5,0c-3.1,0-6.2-0.1-9.2-0.1c-6-0.1-11.6-0.2-16.4-0.3c-4.8-0.1-8.8-0.3-11.6-0.4
			C48.4,142.1,46.8,142.1,46.8,142.1z"/>
	</g>
</g>
</svg>
