<svg id="Calque_1" data-name="Calque 1" xmlns="http://www.w3.org/2000/svg" viewBox="0 0 235.43 204.21">
  <title>SuccSunMin5</title>
  <g>
    <polygon points="175.8 1.82 233.36 101.51 175.8 201.21 60.68 201.21 3.12 101.51 60.68 1.82 175.8 1.82" style="fill: #fff"/>
    <path d="M421.31,137.25c5,8.22,10,16.4,14.88,24.64L451,186.59l14.78,24.7L480.43,236l0.52,0.87-0.52.92L466.3,262.92l-14.19,25-14.2,25-14.27,25-0.76,1.34h-1.57l-28.78.14-28.78.07-57.56.09h-1.73l-0.86-1.5-28.7-49.89-14.33-25-14.27-25-0.78-1.37,0.78-1.33,14.51-24.85,14.58-24.82L290,161.12l14.65-24.77,0.54-.91h1L335,135.78l28.78,0.45,28.78,0.45C402.13,136.81,411.72,137.06,421.31,137.25Zm0,0c-9.59.19-19.19,0.44-28.78,0.57l-28.78.45-28.78.45-28.78.33,1.56-.9-14.13,25.08-14.19,25-14.2,25L251,238.3v-2.7l14.51,24.85,14.45,24.89,28.86,49.8-2.6-1.5,57.56,0.09,28.78,0.07L421.31,334,419,335.3l14.51-24.85,14.58-24.81,14.59-24.81L477.32,236v1.8l-14.1-25.09-14-25.15-14-25.15C430.53,154.08,425.95,145.65,421.31,137.25Z" transform="translate(-245.52 -135.43)" style="fill: #1d1d1b"/>
  </g>
  <g>
    <line x1="54.12" y1="156.51" x2="182.35" y2="156.51" style="fill: #1d1d1b"/>
    <path d="M299.64,291.95l5.51-.19c3.51-.09,8.51-0.27,14.53-0.38s13-.24,20.54-0.31L351.8,291l12,0,12,0,11.58,0.09c7.51,0.07,14.53.18,20.54,0.31s11,0.29,14.53.38l5.51,0.19-5.51.19c-3.51.09-8.51,0.27-14.53,0.38s-13,.24-20.54.31l-11.58.09-12,0-12,0-11.58-.09c-7.51-.07-14.53-0.18-20.54-0.31s-11-.29-14.53-0.38Z" transform="translate(-245.52 -135.43)" style="fill: #1d1d1b"/>
  </g>
  <path d="M369.64,147.26a1.74,1.74,0,0,1-.5,1.29,2.33,2.33,0,0,1-1.68.5h-6l-0.78,4.53a13.44,13.44,0,0,1,2.67-.3,8.25,8.25,0,0,1,3,.51,6.18,6.18,0,0,1,2.19,1.41,5.92,5.92,0,0,1,1.33,2.11,7.4,7.4,0,0,1,.45,2.6,8,8,0,0,1-.61,3.15,7.14,7.14,0,0,1-1.69,2.44,7.62,7.62,0,0,1-2.56,1.57,9.08,9.08,0,0,1-3.22.56,8.61,8.61,0,0,1-1.93-.21,9.6,9.6,0,0,1-3.2-1.37,9.4,9.4,0,0,1-1.22-1l1.14-1.57A1.11,1.11,0,0,1,358,163a1.46,1.46,0,0,1,.77.24l0.89,0.52a7.32,7.32,0,0,0,1.18.52,5,5,0,0,0,1.64.24,4.59,4.59,0,0,0,1.8-.33,3.5,3.5,0,0,0,1.3-.92,4,4,0,0,0,.78-1.41,5.79,5.79,0,0,0,.26-1.78,3.68,3.68,0,0,0-1-2.77,4.19,4.19,0,0,0-3-1,9.51,9.51,0,0,0-3.17.57l-2.31-.66,1.8-10.53h10.71v1.57Z" transform="translate(-245.52 -135.43)" style="fill: #1d1d1b"/>
  <g>
    <path d="M363.14,204.61a27.18,27.18,0,1,0,27.18,27.18A27.21,27.21,0,0,0,363.14,204.61Z" transform="translate(-245.52 -135.43)" style="fill: #000100"/>
    <path d="M363.14,197.35a4.19,4.19,0,0,0,4.19-4.19V181a4.19,4.19,0,0,0-8.39,0v12.12A4.19,4.19,0,0,0,363.14,197.35Z" transform="translate(-245.52 -135.43)" style="fill: #000100"/>
    <path d="M390.45,208.66a4.18,4.18,0,0,0,3-1.23l8.57-8.57a4.19,4.19,0,0,0-5.93-5.93l-8.57,8.57A4.19,4.19,0,0,0,390.45,208.66Z" transform="translate(-245.52 -135.43)" style="fill: #000100"/>
    <path d="M413.88,227.59H401.76a4.19,4.19,0,0,0,0,8.39h12.12A4.19,4.19,0,1,0,413.88,227.59Z" transform="translate(-245.52 -135.43)" style="fill: #000100"/>
    <path d="M393.42,256.13a4.19,4.19,0,0,0-5.93,5.93l8.57,8.57A4.19,4.19,0,0,0,402,264.7Z" transform="translate(-245.52 -135.43)" style="fill: #000100"/>
    <path d="M363.14,266.22a4.19,4.19,0,0,0-4.19,4.19v12.12a4.19,4.19,0,0,0,8.39,0V270.41A4.19,4.19,0,0,0,363.14,266.22Z" transform="translate(-245.52 -135.43)" style="fill: #000100"/>
    <path d="M332.86,256.13l-8.57,8.57a4.19,4.19,0,1,0,5.93,5.93l8.57-8.57A4.19,4.19,0,0,0,332.86,256.13Z" transform="translate(-245.52 -135.43)" style="fill: #000100"/>
    <path d="M328.7,231.78a4.19,4.19,0,0,0-4.19-4.19H312.39a4.19,4.19,0,0,0,0,8.39h12.12A4.19,4.19,0,0,0,328.7,231.78Z" transform="translate(-245.52 -135.43)" style="fill: #000100"/>
    <path d="M332.86,207.43a4.19,4.19,0,1,0,5.93-5.93l-8.57-8.57a4.19,4.19,0,0,0-5.93,5.93Z" transform="translate(-245.52 -135.43)" style="fill: #000100"/>
  </g>
</svg>
