<svg id="Calque_1" data-name="Calque 1" xmlns="http://www.w3.org/2000/svg" viewBox="0 0 235.43 204.21">
  <title>Succ10</title>
  <g>
    <polygon points="175.8 1.82 233.36 101.51 175.8 201.21 60.68 201.21 3.12 101.51 60.68 1.82 175.8 1.82" style="fill: #fff"/>
    <path d="M421.31,137.25c5,8.22,10,16.4,14.88,24.64L451,186.59l14.78,24.7L480.43,236l0.52,0.87-0.52.92L466.3,262.92l-14.19,25-14.2,25-14.27,25-0.76,1.34h-1.57l-28.78.14-28.78.07-57.56.09h-1.73l-0.86-1.5-28.7-49.89-14.33-25-14.27-25-0.78-1.37,0.78-1.33,14.51-24.85,14.58-24.82L290,161.12l14.65-24.77,0.54-.91h1L335,135.78l28.78,0.45,28.78,0.45C402.13,136.81,411.72,137.06,421.31,137.25Zm0,0c-9.59.19-19.19,0.44-28.78,0.57l-28.78.45-28.78.45-28.78.33,1.56-.9-14.13,25.08-14.19,25-14.2,25L251,238.3v-2.7l14.51,24.85,14.45,24.89,28.86,49.8-2.6-1.5,57.56,0.09,28.78,0.07L421.31,334,419,335.3l14.51-24.85,14.58-24.81,14.59-24.81L477.32,236v1.8l-14.1-25.09-14-25.15-14-25.15C430.53,154.08,425.95,145.65,421.31,137.25Z" transform="translate(-245.52 -135.43)" style="fill: #1d1d1b"/>
  </g>
  <g>
    <path d="M304.07,267.3h18.4V219q0-3.55.2-7.43l-10.85,9a6.94,6.94,0,0,1-2.1,1.22,6.25,6.25,0,0,1-2,.36,6.14,6.14,0,0,1-3.06-.76,6.48,6.48,0,0,1-2-1.61l-6.44-8.54,29.84-25h16.83V267.3h15.77V282H304.07V267.3Z" transform="translate(-245.52 -135.43)" style="fill: #1d1d1b"/>
    <path d="M437.37,234.1a77.9,77.9,0,0,1-2.7,21.76,44.64,44.64,0,0,1-7.46,15.25,30.08,30.08,0,0,1-11.31,9,34,34,0,0,1-14.16,3,33.52,33.52,0,0,1-14.1-3,30,30,0,0,1-11.21-9A44.56,44.56,0,0,1,369,255.86a78.79,78.79,0,0,1-2.66-21.76A78.8,78.8,0,0,1,369,212.35a44.59,44.59,0,0,1,7.39-15.25,29.66,29.66,0,0,1,11.21-9,33.85,33.85,0,0,1,14.1-2.92,34.31,34.31,0,0,1,14.16,2.92,29.79,29.79,0,0,1,11.31,9,44.67,44.67,0,0,1,7.46,15.25A77.91,77.91,0,0,1,437.37,234.1Zm-21,0a86.85,86.85,0,0,0-1.25-16.27,33.37,33.37,0,0,0-3.32-10,12,12,0,0,0-4.7-5,11.57,11.57,0,0,0-5.32-1.35,11.37,11.37,0,0,0-5.29,1.35,11.74,11.74,0,0,0-4.6,5,34.2,34.2,0,0,0-3.22,10,89,89,0,0,0-1.22,16.27,88.91,88.91,0,0,0,1.22,16.3,34.65,34.65,0,0,0,3.22,10,11.71,11.71,0,0,0,4.6,5,11.36,11.36,0,0,0,5.29,1.35,11.57,11.57,0,0,0,5.32-1.35,12,12,0,0,0,4.7-5,33.81,33.81,0,0,0,3.32-10A86.74,86.74,0,0,0,416.34,234.1Z" transform="translate(-245.52 -135.43)" style="fill: #1d1d1b"/>
  </g>
  <g>
    <line x1="54.12" y1="156.51" x2="182.35" y2="156.51" style="fill: #1d1d1b"/>
    <path d="M299.64,291.95l5.51-.19c3.51-.09,8.51-0.27,14.53-0.38s13-.24,20.54-0.31L351.8,291l12,0,12,0,11.58,0.09c7.51,0.07,14.53.18,20.54,0.31s11,0.29,14.53.38l5.51,0.19-5.51.19c-3.51.09-8.51,0.27-14.53,0.38s-13,.24-20.54.31l-11.58.09-12,0-12,0-11.58-.09c-7.51-.07-14.53-0.18-20.54-0.31s-11-.29-14.53-0.38Z" transform="translate(-245.52 -135.43)" style="fill: #1d1d1b"/>
  </g>
</svg>
