<?xml version="1.0" encoding="utf-8"?>
<!-- Generator: Adobe Illustrator 19.2.1, SVG Export Plug-In . SVG Version: 6.00 Build 0)  -->
<svg version="1.1" id="Calque_1" xmlns="http://www.w3.org/2000/svg" xmlns:xlink="http://www.w3.org/1999/xlink" x="0px" y="0px"
	 viewBox="0 0 200 200" style="enable-background:new 0 0 200 200;" xml:space="preserve">
<style type="text/css">
	.st0{fill:#010202;stroke:#000000;stroke-miterlimit:10;}
	.st1{fill:#FFFFFF;}
</style>
<rect class="st0" width="200" height="200"/>
<g>
	<path class="st1" d="M146.6,18c4,6.5,8.1,13,12.1,19.5s8.1,13,12,19.6l11.9,19.6l11.9,19.6l0.7,1.1l-0.7,1.2l-11.1,20.1l-11.2,20
		l-11.2,20l-11.3,20l-1,1.8h-2.1l-22.9,0.2c-7.6,0.1-15.3,0.1-22.9,0.1l-46,0.2h-2.3l-1.2-2l-22.8-39.8l-11.4-19.9l-11.3-20l-1-1.8
		l1-1.8l11.6-19.8l11.7-19.7l11.7-19.7c4-6.6,8-13.1,11.9-19.7l0.7-1.2h1.3L77.6,16l22.9,0.6c7.6,0.2,15.3,0.4,22.9,0.6
		C131.3,17.5,138.9,17.8,146.6,18z M146.6,18c-7.6,0.3-15.3,0.6-22.9,0.8c-7.6,0.2-15.3,0.5-22.9,0.6L77.9,20l-23.1,0.4l2.1-1.2
		c-3.7,6.7-7.4,13.4-11.1,20.1l-11.2,20l-11.3,20L12,99.3v-3.6l11.6,19.8l11.6,19.8l23,39.7l-3.5-2l45.9,0.1c7.6,0,15.3,0,22.9,0.1
		l22.9,0.2l-3.1,1.8l11.6-19.8l11.7-19.7l11.7-19.7l12.1-19.7v2.4l-11.1-20.1l-11-20.1c-3.7-6.7-7.3-13.5-10.9-20.2
		C153.7,31.6,150.2,24.8,146.6,18z"/>
</g>
<g>
	<line class="st1" x1="53.4" y1="145.4" x2="153.4" y2="145.4"/>
	<path class="st1" d="M53.4,145.4l4.3-0.1c2.7-0.1,6.6-0.2,11.3-0.3c4.7-0.1,10.1-0.2,16-0.2l9-0.1h9.4h9.4l9,0.1
		c5.9,0.1,11.3,0.1,16,0.2c4.7,0.1,8.6,0.2,11.3,0.3l4.3,0.1l-4.3,0.1c-2.7,0.1-6.6,0.2-11.3,0.3c-4.7,0.1-10.1,0.2-16,0.2l-9,0.1
		h-9.4h-9.4l-9-0.1c-5.9-0.1-11.3-0.1-16-0.2c-4.7-0.1-8.6-0.2-11.3-0.3L53.4,145.4z"/>
</g>
<g>
	<path class="st1" d="M92.2,38.7h3.4v-9.8c0-0.4,0-0.8,0-1.2l-2.4,2c-0.1,0.1-0.3,0.2-0.4,0.2c-0.1,0-0.3,0-0.4,0
		c-0.1,0-0.2-0.1-0.3-0.1c-0.1,0-0.2-0.1-0.2-0.2l-0.9-1.2l5.2-4.4h2.3v14.8h3v2.2h-9.4L92.2,38.7L92.2,38.7z"/>
	<path class="st1" d="M116,32.4c0,1.3-0.1,2.6-0.5,3.8c-0.3,1-0.7,1.9-1.3,2.7c-0.5,0.7-1.2,1.2-2,1.6c-0.8,0.4-1.6,0.5-2.5,0.5
		c-0.8,0-1.7-0.2-2.4-0.5c-0.8-0.4-1.4-0.9-2-1.6c-0.6-0.8-1-1.7-1.3-2.7c-0.6-2.5-0.6-5.2,0-7.7c0.3-1,0.7-1.9,1.3-2.7
		c0.5-0.7,1.2-1.2,2-1.6c0.8-0.4,1.6-0.5,2.4-0.5c0.8,0,1.7,0.2,2.5,0.5c0.8,0.4,1.5,0.9,2,1.6c0.6,0.8,1,1.7,1.3,2.7
		C115.8,29.8,116,31.1,116,32.4z M113,32.4c0-1-0.1-2-0.3-3c-0.1-0.7-0.4-1.3-0.7-1.9c-0.2-0.4-0.6-0.8-1-1
		c-0.4-0.2-0.8-0.3-1.2-0.3c-0.4,0-0.8,0.1-1.2,0.3c-0.4,0.2-0.8,0.6-1,1c-0.3,0.6-0.6,1.2-0.7,1.9c-0.4,2-0.4,4.1,0,6.1
		c0.1,0.7,0.4,1.3,0.7,1.9c0.2,0.4,0.6,0.8,1,1c0.4,0.2,0.8,0.3,1.2,0.3c0.4,0,0.8-0.1,1.2-0.3c0.4-0.2,0.8-0.6,1-1
		c0.3-0.6,0.6-1.2,0.7-1.9C112.9,34.4,113,33.4,113,32.4L113,32.4z"/>
</g>
<g>
	<path class="st1" d="M103.6,116.4c-13,0-23.6-10.5-23.6-23.5s10.5-23.6,23.5-23.6c13,0,23.6,10.5,23.6,23.5c0,0,0,0,0,0
		C127.1,105.9,116.5,116.4,103.6,116.4z M103.6,71.8c-11.6,0-21.1,9.4-21.1,21.1s9.4,21.1,21.1,21.1s21.1-9.4,21.1-21.1
		S115.2,71.8,103.6,71.8C103.6,71.8,103.6,71.8,103.6,71.8L103.6,71.8z"/>
	<g>
		<path class="st1" d="M103.6,61.6c-0.7,0-1.3-0.6-1.3-1.3v-10c0-0.7,0.6-1.3,1.3-1.3c0.7,0,1.3,0.6,1.3,1.3v10
			C104.8,61,104.3,61.6,103.6,61.6C103.6,61.6,103.6,61.6,103.6,61.6z"/>
		<path class="st1" d="M103.6,136.7c-0.7,0-1.3-0.6-1.3-1.3v-10c0-0.7,0.6-1.3,1.3-1.3c0.7,0,1.3,0.6,1.3,1.3v10
			C104.8,136.1,104.3,136.7,103.6,136.7C103.6,136.7,103.6,136.7,103.6,136.7z"/>
	</g>
	<g>
		<path class="st1" d="M71,94.1H61c-0.7,0-1.3-0.6-1.3-1.3c0-0.7,0.6-1.3,1.3-1.3h10c0.7,0,1.3,0.6,1.3,1.3
			C72.3,93.6,71.7,94.1,71,94.1z"/>
		<path class="st1" d="M146.1,94.1h-10c-0.7,0-1.3-0.6-1.3-1.3c0-0.7,0.6-1.3,1.3-1.3h10c0.7,0,1.3,0.6,1.3,1.3
			C147.4,93.6,146.8,94.1,146.1,94.1z"/>
	</g>
	<g>
		<path class="st1" d="M80.5,71.1c-0.3,0-0.7-0.1-0.9-0.4l-7.1-7.1c-0.5-0.5-0.5-1.3,0-1.8c0.5-0.5,1.3-0.5,1.8,0l7.1,7.1
			c0.5,0.5,0.5,1.3,0,1.8c0,0,0,0,0,0C81.2,71,80.9,71.1,80.5,71.1z"/>
		<path class="st1" d="M133.7,124.2c-0.3,0-0.7-0.1-0.9-0.4l-7.1-7.1c-0.5-0.5-0.5-1.3,0-1.8c0.5-0.5,1.3-0.5,1.8,0l7.1,7.1
			c0.5,0.5,0.5,1.3,0,1.8C134.3,124.1,134,124.3,133.7,124.2z"/>
	</g>
	<g>
		<path class="st1" d="M73.5,124.2c-0.7,0-1.3-0.6-1.3-1.3c0-0.3,0.1-0.7,0.4-0.9l7.1-7.1c0.5-0.5,1.3-0.5,1.8,0
			c0.5,0.5,0.5,1.3,0,1.8l-7.1,7.1C74.1,124.1,73.8,124.2,73.5,124.2z"/>
		<path class="st1" d="M126.6,71.1c-0.7,0-1.3-0.6-1.3-1.3c0-0.3,0.1-0.7,0.4-0.9l7.1-7.1c0.5-0.5,1.3-0.5,1.8,0
			c0.5,0.5,0.5,1.3,0,1.8l-7.1,7.1C127.2,71,126.9,71.1,126.6,71.1z"/>
	</g>
</g>
</svg>
