<?xml version="1.0" encoding="utf-8"?>
<!-- Generator: Adobe Illustrator 19.2.1, SVG Export Plug-In . SVG Version: 6.00 Build 0)  -->
<svg version="1.1" id="Calque_1" xmlns="http://www.w3.org/2000/svg" xmlns:xlink="http://www.w3.org/1999/xlink" x="0px" y="0px"
	 viewBox="0 0 200 200" style="enable-background:new 0 0 200 200;" xml:space="preserve">
<style type="text/css">
	.st0{fill:#010202;stroke:#000000;stroke-miterlimit:10;}
	.st1{fill:#FFFFFF;}
</style>
<rect class="st0" width="200" height="200"/>
<g>
	<path class="st1" d="M146.6,18c4,6.5,8.1,13,12.1,19.5s8.1,13,12,19.6l11.9,19.6l11.9,19.6l0.7,1.1l-0.7,1.2l-11.1,20.1l-11.2,20
		l-11.2,20l-11.3,20l-1,1.8h-2.1l-22.9,0.2c-7.6,0.1-15.3,0.1-22.9,0.1l-46,0.2h-2.3l-1.2-2l-22.8-39.8l-11.4-19.9l-11.3-20l-1-1.8
		l1-1.8l11.6-19.8l11.7-19.7l11.7-19.7c4-6.6,8-13.1,11.9-19.7l0.7-1.2h1.3L77.6,16l22.9,0.6c7.6,0.2,15.3,0.4,22.9,0.6
		C131.3,17.5,138.9,17.8,146.6,18z M146.6,18c-7.6,0.3-15.3,0.6-22.9,0.8c-7.6,0.2-15.3,0.5-22.9,0.6L77.9,20l-23.1,0.4l2.1-1.2
		c-3.7,6.7-7.4,13.4-11.1,20.1l-11.2,20l-11.3,20L12,99.3v-3.6l11.6,19.8l11.6,19.8l23,39.7l-3.5-2l45.9,0.1c7.6,0,15.3,0,22.9,0.1
		l22.9,0.2l-3.1,1.8l11.6-19.8l11.7-19.7l11.7-19.7l12.1-19.7v2.4l-11.1-20.1l-11-20.1c-3.7-6.7-7.3-13.5-10.9-20.2
		C153.7,31.6,150.2,24.8,146.6,18z"/>
</g>
<g>
	<line class="st1" x1="53.1" y1="144.4" x2="151.8" y2="144.4"/>
	<path class="st1" d="M53.1,144.4l4.2-0.1c2.7-0.1,6.5-0.2,11.2-0.3c4.6-0.1,10-0.2,15.8-0.2l8.9-0.1h9.2h9.2l8.9,0.1
		c5.8,0.1,11.2,0.1,15.8,0.2c4.6,0.1,8.5,0.2,11.2,0.3l4.2,0.1l-4.2,0.1c-2.7,0.1-6.5,0.2-11.2,0.3c-4.6,0.1-10,0.2-15.8,0.2
		l-8.9,0.1h-9.2h-9.2l-8.9-0.1c-5.8-0.1-11.2-0.1-15.8-0.2c-4.6-0.1-8.5-0.2-11.2-0.3L53.1,144.4z"/>
</g>
<path class="st1" d="M107.5,29.6c0,0.4-0.1,0.7-0.4,1c-0.4,0.3-0.8,0.4-1.3,0.4h-4.6l-0.6,3.5c0.7-0.1,1.4-0.2,2.1-0.2
	c0.8,0,1.6,0.1,2.3,0.4c0.6,0.2,1.2,0.6,1.7,1.1c0.5,0.5,0.8,1,1,1.6c0.2,0.6,0.4,1.3,0.3,2c0,0.8-0.2,1.7-0.5,2.4
	c-0.3,0.7-0.7,1.3-1.3,1.9c-0.6,0.5-1.2,0.9-2,1.2c-0.8,0.3-1.6,0.4-2.5,0.4c-0.5,0-1-0.1-1.5-0.2c-0.9-0.2-1.7-0.6-2.5-1.1
	c-0.3-0.2-0.6-0.5-0.9-0.8l0.9-1.2c0.2-0.2,0.5-0.4,0.7-0.4c0.2,0,0.4,0.1,0.6,0.2l0.7,0.4c0.3,0.2,0.6,0.3,0.9,0.4
	c0.4,0.1,0.8,0.2,1.3,0.2c0.5,0,0.9-0.1,1.4-0.3c0.4-0.2,0.7-0.4,1-0.7c0.3-0.3,0.5-0.7,0.6-1.1c0.1-0.4,0.2-0.9,0.2-1.4
	c0.1-0.8-0.2-1.6-0.8-2.1c-0.6-0.5-1.5-0.8-2.3-0.8c-0.8,0-1.7,0.2-2.4,0.4l-1.8-0.5l1.4-8.1h8.2L107.5,29.6L107.5,29.6z"/>
<g>
	<path class="st1" d="M102.5,71.9c-11.5,0-20.9,9.4-20.9,20.9c0,11.5,9.4,20.9,20.9,20.9c11.5,0,20.9-9.4,20.9-20.9l0,0
		C123.4,81.3,114,71.9,102.5,71.9z"/>
	<path class="st1" d="M102.5,66.3c1.8,0,3.2-1.4,3.2-3.2l0,0v-9.4c0-1.8-1.4-3.2-3.2-3.2s-3.2,1.4-3.2,3.2l0,0v9.3
		C99.2,64.8,100.7,66.3,102.5,66.3C102.4,66.3,102.5,66.3,102.5,66.3z"/>
	<path class="st1" d="M123.5,75c0.9,0,1.7-0.3,2.3-0.9l6.6-6.6c1.3-1.3,1.3-3.3,0-4.6c-1.3-1.3-3.3-1.3-4.6,0l-6.6,6.6
		c-1.3,1.3-1.3,3.3,0,4.6C121.8,74.7,122.6,75,123.5,75z"/>
	<path class="st1" d="M141.5,89.6h-9.3c-1.8,0-3.2,1.4-3.2,3.2c0,1.8,1.4,3.2,3.2,3.2h9.3c1.8,0,3.2-1.4,3.2-3.2
		C144.7,91,143.3,89.6,141.5,89.6L141.5,89.6z"/>
	<path class="st1" d="M125.8,111.5c-1.3-1.3-3.3-1.3-4.6,0c-1.3,1.3-1.3,3.3,0,4.6l6.6,6.6c1.3,1.3,3.3,1.3,4.6,0
		c1.3-1.3,1.3-3.3,0-4.6L125.8,111.5z"/>
	<path class="st1" d="M102.5,119.3c-1.8,0-3.2,1.4-3.2,3.2l0,0v9.3c0,1.8,1.4,3.2,3.2,3.2s3.2-1.4,3.2-3.2v-9.3
		C105.7,120.7,104.3,119.3,102.5,119.3C102.5,119.3,102.5,119.3,102.5,119.3z"/>
	<path class="st1" d="M79.2,111.5l-6.6,6.6c-1.3,1.3-1.3,3.3,0,4.6s3.3,1.3,4.6,0l6.6-6.6c1.3-1.3,1.3-3.3,0-4.6
		C82.5,110.3,80.4,110.3,79.2,111.5z"/>
	<path class="st1" d="M76,92.8c0-1.8-1.4-3.2-3.2-3.2l0,0h-9.3c-1.8,0-3.2,1.4-3.2,3.2c0,1.8,1.4,3.2,3.2,3.2h9.3
		C74.5,96,76,94.6,76,92.8C76,92.8,76,92.8,76,92.8z"/>
	<path class="st1" d="M79.2,74.1c1.3,1.3,3.3,1.3,4.6,0c1.3-1.3,1.3-3.3,0-4.6l-6.6-6.6c-1.3-1.3-3.3-1.3-4.6,0s-1.3,3.3,0,4.6l0,0
		L79.2,74.1z"/>
</g>
</svg>
