<svg id="Calque_1" data-name="Calque 1" xmlns="http://www.w3.org/2000/svg" viewBox="0 0 235.43 204.21">
  <title>SuccBat15</title>
  <g>
    <polygon points="175.8 1.82 233.36 101.51 175.8 201.21 60.68 201.21 3.12 101.51 60.68 1.82 175.8 1.82" style="fill: #fff"/>
    <path d="M421.31,137.25c5,8.22,10,16.4,14.88,24.64L451,186.59l14.78,24.7L480.43,236l0.52,0.87-0.52.92L466.3,262.92l-14.19,25-14.2,25-14.27,25-0.76,1.34h-1.57l-28.78.14-28.78.07-57.56.09h-1.73l-0.86-1.5-28.7-49.89-14.33-25-14.27-25-0.78-1.37,0.78-1.33,14.51-24.85,14.58-24.82L290,161.12l14.65-24.77,0.54-.91h1L335,135.78l28.78,0.45,28.78,0.45C402.13,136.81,411.72,137.06,421.31,137.25Zm0,0c-9.59.19-19.19,0.44-28.78,0.57l-28.78.45-28.78.45-28.78.33,1.56-.9-14.13,25.08-14.19,25-14.2,25L251,238.3v-2.7l14.51,24.85,14.45,24.89,28.86,49.8-2.6-1.5,57.56,0.09,28.78,0.07L421.31,334,419,335.3l14.51-24.85,14.58-24.81,14.59-24.81L477.32,236v1.8l-14.1-25.09-14-25.15-14-25.15C430.53,154.08,425.95,145.65,421.31,137.25Z" transform="translate(-245.52 -135.43)" style="fill: #1d1d1b"/>
  </g>
  <g>
    <line x1="54.12" y1="156.51" x2="182.35" y2="156.51" style="fill: #1d1d1b"/>
    <path d="M299.64,291.95l5.51-.19c3.51-.09,8.51-0.27,14.53-0.38s13-.24,20.54-0.31L351.8,291l12,0,12,0,11.58,0.09c7.51,0.07,14.53.18,20.54,0.31s11,0.29,14.53.38l5.51,0.19-5.51.19c-3.51.09-8.51,0.27-14.53,0.38s-13,.24-20.54.31l-11.58.09-12,0-12,0-11.58-.09c-7.51-.07-14.53-0.18-20.54-0.31s-11-.29-14.53-0.38Z" transform="translate(-245.52 -135.43)" style="fill: #1d1d1b"/>
  </g>
  <g>
    <path d="M414.58,283.51h-3.33V179a2,2,0,0,0-2-2H372a2,2,0,0,0-2,2v8.66h-4V179a2,2,0,0,0-2-2h-8.66v-6a2,2,0,1,0-4,0v6h-8.66a2,2,0,0,0-2,2v8.66h-6a2,2,0,0,0-2,2v16.65H316a2,2,0,0,0-2,2v75.25h-3.33a2,2,0,0,0,0,4H414.58A2,2,0,0,0,414.58,283.51ZM344.65,181H362v6.66H344.65V181ZM338,283.51h-1.33v-3.33a2,2,0,0,0-4,0v3.33h-1.33v-6.66H338v6.66Zm13.32-51.28v51.28H342v-8.66a2,2,0,0,0-2-2H329.34a2,2,0,0,0-2,2v8.66H318V210.26h33.3v22h0Zm2-26H336.66V191.61H370v38.62H355.31v-6.66h6a2,2,0,1,0,0-4h-6v-6.66h6a2,2,0,1,0,0-4h-6v-0.67A2,2,0,0,0,353.31,206.26Zm35.29,77.25h-33.3V234.23h33.3v49.28Zm18.65,0H392.6V229.57a2,2,0,1,0-4,0v0.67h-4v-0.67a2,2,0,1,0-4,0v0.67H374V181h33.3V283.51h0Z" transform="translate(-245.52 -135.43)" style="fill: #000100"/>
    <path d="M364,279.51a2,2,0,0,0,2-2V240.22a2,2,0,0,0-4,0v37.29A2,2,0,0,0,364,279.51Z" transform="translate(-245.52 -135.43)" style="fill: #000100"/>
    <path d="M372,279.51a2,2,0,0,0,2-2V240.22a2,2,0,0,0-4,0v37.29A2,2,0,0,0,372,279.51Z" transform="translate(-245.52 -135.43)" style="fill: #000100"/>
    <path d="M379.95,279.51a2,2,0,0,0,2-2V240.22a2,2,0,1,0-4,0v37.29A2,2,0,0,0,379.95,279.51Z" transform="translate(-245.52 -135.43)" style="fill: #000100"/>
    <path d="M382.61,194.27a2,2,0,0,0,2-2v-2.66a2,2,0,0,0-4,0v2.66A2,2,0,0,0,382.61,194.27Z" transform="translate(-245.52 -135.43)" style="fill: #000100"/>
    <path d="M390.6,194.27a2,2,0,0,0,2-2v-2.66a2,2,0,1,0-4,0v2.66A2,2,0,0,0,390.6,194.27Z" transform="translate(-245.52 -135.43)" style="fill: #000100"/>
    <path d="M398.59,194.27a2,2,0,0,0,2-2v-2.66a2,2,0,0,0-4,0v2.66A2,2,0,0,0,398.59,194.27Z" transform="translate(-245.52 -135.43)" style="fill: #000100"/>
    <path d="M382.61,207.59a2,2,0,0,0,2-2v-2.66a2,2,0,0,0-4,0v2.66A2,2,0,0,0,382.61,207.59Z" transform="translate(-245.52 -135.43)" style="fill: #000100"/>
    <path d="M390.6,207.59a2,2,0,0,0,2-2v-2.66a2,2,0,1,0-4,0v2.66A2,2,0,0,0,390.6,207.59Z" transform="translate(-245.52 -135.43)" style="fill: #000100"/>
    <path d="M398.59,207.59a2,2,0,0,0,2-2v-2.66a2,2,0,0,0-4,0v2.66A2,2,0,0,0,398.59,207.59Z" transform="translate(-245.52 -135.43)" style="fill: #000100"/>
    <path d="M382.61,220.91a2,2,0,0,0,2-2v-2.66a2,2,0,0,0-4,0v2.66A2,2,0,0,0,382.61,220.91Z" transform="translate(-245.52 -135.43)" style="fill: #000100"/>
    <path d="M390.6,220.91a2,2,0,0,0,2-2v-2.66a2,2,0,0,0-4,0v2.66A2,2,0,0,0,390.6,220.91Z" transform="translate(-245.52 -135.43)" style="fill: #000100"/>
    <path d="M398.59,220.91a2,2,0,0,0,2-2v-2.66a2,2,0,0,0-4,0v2.66A2,2,0,0,0,398.59,220.91Z" transform="translate(-245.52 -135.43)" style="fill: #000100"/>
    <path d="M326.67,226.24a2,2,0,0,0,2-2v-2.66a2,2,0,0,0-4,0v2.66A2,2,0,0,0,326.67,226.24Z" transform="translate(-245.52 -135.43)" style="fill: #000100"/>
    <path d="M334.66,226.24a2,2,0,0,0,2-2v-2.66a2,2,0,1,0-4,0v2.66A2,2,0,0,0,334.66,226.24Z" transform="translate(-245.52 -135.43)" style="fill: #000100"/>
    <path d="M342.65,226.24a2,2,0,0,0,2-2v-2.66a2,2,0,0,0-4,0v2.66A2,2,0,0,0,342.65,226.24Z" transform="translate(-245.52 -135.43)" style="fill: #000100"/>
    <path d="M326.67,239.56a2,2,0,0,0,2-2V234.9a2,2,0,0,0-4,0v2.66A2,2,0,0,0,326.67,239.56Z" transform="translate(-245.52 -135.43)" style="fill: #000100"/>
    <path d="M334.66,239.56a2,2,0,0,0,2-2V234.9a2,2,0,0,0-4,0v2.66A2,2,0,0,0,334.66,239.56Z" transform="translate(-245.52 -135.43)" style="fill: #000100"/>
    <path d="M342.65,239.56a2,2,0,0,0,2-2V234.9a2,2,0,0,0-4,0v2.66A2,2,0,0,0,342.65,239.56Z" transform="translate(-245.52 -135.43)" style="fill: #000100"/>
    <path d="M326.67,252.88a2,2,0,0,0,2-2v-2.66a2,2,0,0,0-4,0v2.66A2,2,0,0,0,326.67,252.88Z" transform="translate(-245.52 -135.43)" style="fill: #000100"/>
    <path d="M334.66,252.88a2,2,0,0,0,2-2v-2.66a2,2,0,0,0-4,0v2.66A2,2,0,0,0,334.66,252.88Z" transform="translate(-245.52 -135.43)" style="fill: #000100"/>
    <path d="M342.65,252.88a2,2,0,0,0,2-2v-2.66a2,2,0,0,0-4,0v2.66A2,2,0,0,0,342.65,252.88Z" transform="translate(-245.52 -135.43)" style="fill: #000100"/>
    <path d="M326.67,266.2a2,2,0,0,0,2-2v-2.66a2,2,0,1,0-4,0v2.66A2,2,0,0,0,326.67,266.2Z" transform="translate(-245.52 -135.43)" style="fill: #000100"/>
    <path d="M334.66,266.2a2,2,0,0,0,2-2v-2.66a2,2,0,1,0-4,0v2.66A2,2,0,0,0,334.66,266.2Z" transform="translate(-245.52 -135.43)" style="fill: #000100"/>
    <path d="M342.65,266.2a2,2,0,0,0,2-2v-2.66a2,2,0,1,0-4,0v2.66A2,2,0,0,0,342.65,266.2Z" transform="translate(-245.52 -135.43)" style="fill: #000100"/>
    <path d="M398.59,234.23a2,2,0,0,0,2-2v-2.66a2,2,0,0,0-4,0v2.66A2,2,0,0,0,398.59,234.23Z" transform="translate(-245.52 -135.43)" style="fill: #000100"/>
    <path d="M398.59,247.55a2,2,0,0,0,2-2v-2.66a2,2,0,0,0-4,0v2.66A2,2,0,0,0,398.59,247.55Z" transform="translate(-245.52 -135.43)" style="fill: #000100"/>
    <path d="M398.59,260.87a2,2,0,0,0,2-2v-2.66a2,2,0,0,0-4,0v2.66A2,2,0,0,0,398.59,260.87Z" transform="translate(-245.52 -135.43)" style="fill: #000100"/>
    <path d="M398.59,274.19a2,2,0,0,0,2-2v-2.66a2,2,0,1,0-4,0v2.66A2,2,0,0,0,398.59,274.19Z" transform="translate(-245.52 -135.43)" style="fill: #000100"/>
    <path d="M363.3,200.27a2,2,0,0,0-2-2h-16a2,2,0,0,0,0,4h16A2,2,0,0,0,363.3,200.27Z" transform="translate(-245.52 -135.43)" style="fill: #000100"/>
  </g>
  <g>
    <path d="M351.29,164.6h4.39V152q0-.73,0-1.54L352.61,153a1.29,1.29,0,0,1-.53.26,1.28,1.28,0,0,1-.5,0,1.2,1.2,0,0,1-.41-0.16,0.87,0.87,0,0,1-.27-0.25l-1.17-1.6,6.62-5.62h3V164.6h3.9v2.77h-12V164.6Z" transform="translate(-245.52 -135.43)" style="fill: #1d1d1b"/>
    <path d="M380.15,147.26a1.74,1.74,0,0,1-.5,1.29,2.33,2.33,0,0,1-1.68.5h-6l-0.78,4.53a13.44,13.44,0,0,1,2.67-.3,8.25,8.25,0,0,1,3,.51,6.18,6.18,0,0,1,2.19,1.41,5.92,5.92,0,0,1,1.33,2.11,7.4,7.4,0,0,1,.45,2.6,8,8,0,0,1-.61,3.15,7.14,7.14,0,0,1-1.69,2.44,7.62,7.62,0,0,1-2.56,1.57,9.09,9.09,0,0,1-3.22.56,8.61,8.61,0,0,1-1.93-.21,9.6,9.6,0,0,1-3.2-1.37,9.4,9.4,0,0,1-1.22-1l1.14-1.57a1.11,1.11,0,0,1,.94-0.51,1.46,1.46,0,0,1,.77.24l0.89,0.52a7.32,7.32,0,0,0,1.18.52,5,5,0,0,0,1.64.24,4.59,4.59,0,0,0,1.8-.33,3.5,3.5,0,0,0,1.3-.92,4,4,0,0,0,.78-1.41,5.79,5.79,0,0,0,.26-1.78,3.68,3.68,0,0,0-1-2.77,4.19,4.19,0,0,0-3-1,9.51,9.51,0,0,0-3.17.57l-2.31-.66,1.8-10.53h10.71v1.57Z" transform="translate(-245.52 -135.43)" style="fill: #1d1d1b"/>
  </g>
</svg>
