<?xml version="1.0" encoding="utf-8"?>
<!-- Generator: Adobe Illustrator 19.2.1, SVG Export Plug-In . SVG Version: 6.00 Build 0)  -->
<svg version="1.1" xmlns="http://www.w3.org/2000/svg" xmlns:xlink="http://www.w3.org/1999/xlink" x="0px" y="0px"
	 viewBox="0 0 200 200" style="enable-background:new 0 0 200 200;" xml:space="preserve">
<style type="text/css">
	.st0{fill:#010202;stroke:#000000;stroke-miterlimit:10;}
	.st1{fill:#FFFFFF;}
</style>
<g id="Calque_1">
	<rect class="st0" width="200" height="200"/>
	<g>
		<path class="st1" d="M146.6,18c4,6.5,8.1,13,12.1,19.5s8.1,13,12,19.6l11.9,19.6l11.9,19.6l0.7,1.1l-0.7,1.2l-11.1,20.1l-11.2,20
			l-11.2,20l-11.3,20l-1,1.8h-2.1l-22.9,0.2c-7.6,0.1-15.3,0.1-22.9,0.1l-46,0.2h-2.3l-1.2-2l-22.8-39.8l-11.4-19.9l-11.3-20l-1-1.8
			l1-1.8l11.6-19.8l11.7-19.7l11.7-19.7c4-6.6,8-13.1,11.9-19.7l0.7-1.2h1.3L77.6,16l22.9,0.6c7.6,0.2,15.3,0.4,22.9,0.6
			C131.3,17.5,138.9,17.8,146.6,18z M146.6,18c-7.6,0.3-15.3,0.6-22.9,0.8c-7.6,0.2-15.3,0.5-22.9,0.6L77.9,20l-23.1,0.4l2.1-1.2
			c-3.7,6.7-7.4,13.4-11.1,20.1l-11.2,20l-11.3,20L12,99.3v-3.6l11.6,19.8l11.6,19.8l23,39.7l-3.5-2l45.9,0.1c7.6,0,15.3,0,22.9,0.1
			l22.9,0.2l-3.1,1.8l11.6-19.8l11.7-19.7l11.7-19.7l12.1-19.7v2.4l-11.1-20.1l-11-20.1c-3.7-6.7-7.3-13.5-10.9-20.2
			C153.7,31.6,150.2,24.8,146.6,18z"/>
	</g>
</g>
<g id="Calque_2">
	<g>
		<line class="st1" x1="59.6" y1="147.3" x2="150.2" y2="147.3"/>
		<path class="st1" d="M59.6,147.3l3.9-0.1c2.5-0.1,6-0.2,10.3-0.3c4.3-0.1,9.2-0.2,14.5-0.2l8.2,0h8.5h8.5l8.2,0.1
			c5.3,0,10.3,0.1,14.5,0.2c4.2,0.1,7.8,0.2,10.3,0.3l3.9,0.1l-3.9,0.1c-2.5,0.1-6,0.2-10.3,0.3c-4.3,0.1-9.2,0.2-14.5,0.2l-8.2,0.1
			h-8.5h-8.5l-8.2-0.1c-5.3,0-10.3-0.1-14.5-0.2c-4.2-0.1-7.8-0.2-10.3-0.3L59.6,147.3z"/>
	</g>
	<g>
		<path class="st1" d="M89.8,40.7h3.1v-8.9c0-0.3,0-0.7,0-1.1l-2.2,1.8c-0.1,0.1-0.2,0.2-0.4,0.2c-0.1,0-0.2,0-0.4,0
			c-0.1,0-0.2-0.1-0.3-0.1c-0.1,0-0.1-0.1-0.2-0.2l-0.8-1.1l4.7-4h2.1v13.4h2.8v2h-8.5L89.8,40.7L89.8,40.7z"/>
		<path class="st1" d="M111.3,35c0,1.2-0.1,2.3-0.4,3.5c-0.2,0.9-0.6,1.7-1.2,2.4c-0.5,0.6-1.1,1.1-1.8,1.4
			c-0.7,0.3-1.5,0.5-2.2,0.5c-0.8,0-1.5-0.2-2.2-0.5c-0.7-0.3-1.3-0.8-1.8-1.4c-0.5-0.7-0.9-1.6-1.2-2.4c-0.6-2.3-0.6-4.7,0-7
			c0.2-0.9,0.6-1.7,1.2-2.4c0.5-0.6,1.1-1.1,1.8-1.4c0.7-0.3,1.5-0.5,2.2-0.5c0.8,0,1.5,0.2,2.2,0.5c0.7,0.3,1.3,0.8,1.8,1.4
			c0.5,0.7,0.9,1.6,1.2,2.4C111.2,32.7,111.3,33.9,111.3,35z M108.6,35c0-0.9-0.1-1.8-0.2-2.8c-0.1-0.6-0.3-1.2-0.6-1.7
			c-0.2-0.4-0.5-0.7-0.9-0.9c-0.3-0.2-0.7-0.3-1.1-0.3c-0.4,0-0.8,0.1-1.1,0.3c-0.4,0.2-0.7,0.5-0.9,0.9c-0.3,0.5-0.5,1.1-0.6,1.7
			c-0.3,1.8-0.3,3.7,0,5.5c0.1,0.6,0.3,1.2,0.6,1.7c0.2,0.4,0.5,0.7,0.9,0.9c0.3,0.2,0.7,0.3,1.1,0.3c0.4,0,0.8-0.1,1.1-0.3
			c0.4-0.2,0.7-0.5,0.9-0.9c0.3-0.5,0.5-1.1,0.6-1.7C108.6,36.9,108.6,36,108.6,35L108.6,35z"/>
	</g>
	<path class="st1" d="M138.7,71.5h-24.9V53.2c0-0.9-0.7-1.6-1.6-1.6c0,0,0,0,0,0H67.4c-0.9,0-1.6,0.7-1.6,1.6c0,0,0,0,0,0v77.1
		c0,0.9,0.7,1.6,1.6,1.6c0,0,0,0,0,0h71.3c0.9,0,1.6-0.7,1.6-1.6c0,0,0,0,0,0V73.1C140.3,72.2,139.6,71.5,138.7,71.5z M110.6,73.1
		v55.6H69V54.8h41.5V73.1L110.6,73.1z M137.1,128.7h-23.3v-54h23.3V128.7L137.1,128.7z"/>
	<path class="st1" d="M121,83.1h11.3c1,0,1.7-0.8,1.7-1.7c0-1-0.8-1.7-1.7-1.7H121c-1,0-1.7,0.8-1.7,1.7
		C119.2,82.3,120,83.1,121,83.1L121,83.1z"/>
	<path class="st1" d="M121,91.8h11.3c1,0,1.7-0.8,1.7-1.7c0-1-0.8-1.7-1.7-1.7H121c-1,0-1.7,0.8-1.7,1.7C119.2,91,120,91.8,121,91.8
		L121,91.8z"/>
	<path class="st1" d="M121,100.4h11.3c1,0,1.7-0.8,1.7-1.7c0-1-0.8-1.7-1.7-1.7H121c-1,0-1.7,0.8-1.7,1.7
		C119.2,99.7,120,100.4,121,100.4L121,100.4z"/>
	<path class="st1" d="M121,109.1h11.3c1,0,1.7-0.8,1.7-1.7c0-1-0.8-1.7-1.7-1.7H121c-1,0-1.7,0.8-1.7,1.7
		C119.2,108.3,120,109.1,121,109.1L121,109.1z"/>
	<path class="st1" d="M121,117.8h11.3c1,0,1.7-0.8,1.7-1.7c0-1-0.8-1.7-1.7-1.7H121c-1,0-1.7,0.8-1.7,1.7
		C119.2,117,120,117.8,121,117.8L121,117.8z"/>
	<path class="st1" d="M121,126.4h11.3c1,0,1.7-0.8,1.7-1.7c0-1-0.8-1.7-1.7-1.7H121c-1,0-1.7,0.8-1.7,1.7
		C119.2,125.7,120,126.4,121,126.4L121,126.4z"/>
	<path class="st1" d="M74.6,66.6c1,0,1.7-0.8,1.7-1.7c0,0,0,0,0,0v-3.8c0-1-0.8-1.7-1.7-1.7c-1,0-1.7,0.8-1.7,1.7l0,0v3.8
		C72.8,65.9,73.6,66.6,74.6,66.6C74.6,66.6,74.6,66.6,74.6,66.6z"/>
	<path class="st1" d="M84,66.6c1,0,1.7-0.8,1.7-1.7c0,0,0,0,0,0v-3.8c0-1-0.8-1.7-1.7-1.7c-1,0-1.7,0.8-1.7,1.7l0,0v3.8
		C82.2,65.9,83,66.6,84,66.6C84,66.6,84,66.6,84,66.6z"/>
	<path class="st1" d="M93.3,66.6c1,0,1.7-0.8,1.7-1.7c0,0,0,0,0,0v-3.8c0-1-0.8-1.7-1.7-1.7c-1,0-1.7,0.8-1.7,1.7l0,0v3.8
		C91.6,65.9,92.4,66.6,93.3,66.6z"/>
	<path class="st1" d="M102.7,66.6c1,0,1.7-0.8,1.7-1.7c0,0,0,0,0,0v-3.8c0-1-0.8-1.7-1.7-1.7c-1,0-1.7,0.8-1.7,1.7l0,0v3.8
		C101,65.9,101.8,66.6,102.7,66.6C102.7,66.6,102.7,66.6,102.7,66.6z"/>
	<path class="st1" d="M74.6,78.5c1,0,1.7-0.8,1.7-1.7c0,0,0,0,0,0v-3.8c0-1-0.8-1.7-1.7-1.7c-1,0-1.7,0.8-1.7,1.7v3.8
		C72.8,77.7,73.6,78.5,74.6,78.5z"/>
	<path class="st1" d="M84,78.5c1,0,1.7-0.8,1.7-1.7c0,0,0,0,0,0v-3.8c0-1-0.8-1.7-1.7-1.7c-1,0-1.7,0.8-1.7,1.7v3.8
		C82.2,77.7,83,78.5,84,78.5z"/>
	<path class="st1" d="M93.3,78.5c1,0,1.7-0.8,1.7-1.7c0,0,0,0,0,0v-3.8c0-1-0.8-1.7-1.7-1.7c-1,0-1.7,0.8-1.7,1.7v3.8
		C91.6,77.7,92.4,78.5,93.3,78.5z"/>
	<path class="st1" d="M102.7,78.5c1,0,1.7-0.8,1.7-1.7c0,0,0,0,0,0v-3.8c0-1-0.8-1.7-1.7-1.7c-1,0-1.7,0.8-1.7,1.7v3.8
		C101,77.7,101.8,78.5,102.7,78.5z"/>
	<path class="st1" d="M74.6,90.3c1,0,1.7-0.8,1.7-1.7c0,0,0,0,0,0v-3.8c0-1-0.8-1.7-1.7-1.7c-1,0-1.7,0.8-1.7,1.7v3.8
		C72.8,89.5,73.6,90.3,74.6,90.3C74.6,90.3,74.6,90.3,74.6,90.3z"/>
	<path class="st1" d="M84,90.3c1,0,1.7-0.8,1.7-1.7c0,0,0,0,0,0v-3.8c0-1-0.8-1.7-1.7-1.7c-1,0-1.7,0.8-1.7,1.7v3.8
		C82.2,89.5,83,90.3,84,90.3C84,90.3,84,90.3,84,90.3z"/>
	<path class="st1" d="M93.3,89.3c1,0,1.7-0.8,1.7-1.7c0,0,0,0,0,0v-3.8c0-1-0.8-1.7-1.7-1.7c-1,0-1.7,0.8-1.7,1.7v3.8
		C91.6,88.5,92.4,89.3,93.3,89.3z"/>
	<path class="st1" d="M102.7,89.3c1,0,1.7-0.8,1.7-1.7c0,0,0,0,0,0v-3.8c0-1-0.8-1.7-1.7-1.7c-1,0-1.7,0.8-1.7,1.7v3.8
		C101,88.5,101.8,89.3,102.7,89.3C102.7,89.3,102.7,89.3,102.7,89.3z"/>
	<path class="st1" d="M74.6,101.1c1,0,1.7-0.8,1.7-1.7c0,0,0,0,0,0v-3.8c0-1-0.8-1.7-1.7-1.7c-1,0-1.7,0.8-1.7,1.7v3.8
		C72.8,100.3,73.6,101.1,74.6,101.1C74.6,101.1,74.6,101.1,74.6,101.1z"/>
	<path class="st1" d="M84,101.1c1,0,1.7-0.8,1.7-1.8c0,0,0,0,0,0v-3.8c0-1-0.8-1.7-1.7-1.7c-1,0-1.7,0.8-1.7,1.7v3.8
		C82.2,100.3,83,101.1,84,101.1C83.9,101.1,83.9,101.1,84,101.1z"/>
	<path class="st1" d="M93.3,101.1c1,0,1.7-0.8,1.7-1.7c0,0,0,0,0,0v-3.8c0-1-0.8-1.7-1.7-1.7c-1,0-1.7,0.8-1.7,1.7v3.8
		C91.6,100.3,92.4,101.1,93.3,101.1z"/>
	<path class="st1" d="M102.7,101.1c1,0,1.7-0.8,1.7-1.7c0,0,0,0,0,0v-3.8c0-1-0.8-1.7-1.7-1.7c-1,0-1.7,0.8-1.7,1.7v3.8
		C101,100.3,101.7,101.1,102.7,101.1C102.7,101.1,102.7,101.1,102.7,101.1z"/>
	<path class="st1" d="M74.6,112.9c1,0,1.7-0.8,1.7-1.7c0,0,0,0,0,0v-3.8c0-1-0.8-1.7-1.7-1.7c-1,0-1.7,0.8-1.7,1.7v3.8
		C72.8,112.1,73.6,112.9,74.6,112.9C74.6,112.9,74.6,112.9,74.6,112.9z"/>
	<path class="st1" d="M84,112.9c1,0,1.7-0.8,1.7-1.7c0,0,0,0,0,0v-3.8c0-1-0.8-1.7-1.7-1.7c-1,0-1.7,0.8-1.7,1.7v3.8
		C82.2,112.1,83,112.9,84,112.9C84,112.9,84,112.9,84,112.9z"/>
	<path class="st1" d="M93.3,112.9c1,0,1.7-0.8,1.7-1.7c0,0,0,0,0,0v-3.8c0-1-0.8-1.7-1.7-1.7c-1,0-1.7,0.8-1.7,1.7v3.8
		C91.6,112.1,92.4,112.9,93.3,112.9z"/>
	<path class="st1" d="M102.7,112.9c1,0,1.7-0.8,1.7-1.7c0,0,0,0,0,0v-3.8c0-1-0.8-1.7-1.7-1.7c-1,0-1.7,0.8-1.7,1.7v3.8
		C101,112.1,101.8,112.9,102.7,112.9C102.7,112.9,102.7,112.9,102.7,112.9z"/>
	<path class="st1" d="M74.6,124.8c1,0,1.7-0.8,1.7-1.7c0,0,0,0,0,0v-3.8c0-1-0.8-1.7-1.7-1.7c-1,0-1.7,0.8-1.7,1.7v3.8
		C72.8,124,73.6,124.7,74.6,124.8z"/>
	<path class="st1" d="M84,124.8c1,0,1.7-0.8,1.7-1.7c0,0,0,0,0,0v-3.8c0-1-0.8-1.7-1.7-1.7c-1,0-1.7,0.8-1.7,1.7v3.8
		C82.2,124,83,124.7,84,124.8z"/>
	<path class="st1" d="M93.3,124.8c1,0,1.7-0.8,1.7-1.7c0,0,0,0,0,0v-3.8c0-1-0.8-1.7-1.7-1.7c-1,0-1.7,0.8-1.7,1.7v3.8
		C91.6,124,92.4,124.7,93.3,124.8z"/>
	<path class="st1" d="M102.7,124.8c1,0,1.7-0.8,1.7-1.7c0,0,0,0,0,0v-3.8c0-1-0.8-1.7-1.7-1.7c-1,0-1.7,0.8-1.7,1.7v3.8
		C101,124,101.8,124.7,102.7,124.8z"/>
</g>
</svg>
