<svg id="Calque_1" data-name="Calque 1" xmlns="http://www.w3.org/2000/svg" viewBox="0 0 235.43 204.21">
  <title>SuccBat10</title>
  <g>
    <polygon points="175.8 1.82 233.36 101.51 175.8 201.21 60.68 201.21 3.12 101.51 60.68 1.82 175.8 1.82" style="fill: #fff"/>
    <path d="M421.31,137.25c5,8.22,10,16.4,14.88,24.64L451,186.59l14.78,24.7L480.43,236l0.52,0.87-0.52.92L466.3,262.92l-14.19,25-14.2,25-14.27,25-0.76,1.34h-1.57l-28.78.14-28.78.07-57.56.09h-1.73l-0.86-1.5-28.7-49.89-14.33-25-14.27-25-0.78-1.37,0.78-1.33,14.51-24.85,14.58-24.82L290,161.12l14.65-24.77,0.54-.91h1L335,135.78l28.78,0.45,28.78,0.45C402.13,136.81,411.72,137.06,421.31,137.25Zm0,0c-9.59.19-19.19,0.44-28.78,0.57l-28.78.45-28.78.45-28.78.33,1.56-.9-14.13,25.08-14.19,25-14.2,25L251,238.3v-2.7l14.51,24.85,14.45,24.89,28.86,49.8-2.6-1.5,57.56,0.09,28.78,0.07L421.31,334,419,335.3l14.51-24.85,14.58-24.81,14.59-24.81L477.32,236v1.8l-14.1-25.09-14-25.15-14-25.15C430.53,154.08,425.95,145.65,421.31,137.25Z" transform="translate(-245.52 -135.43)" style="fill: #1d1d1b"/>
  </g>
  <g>
    <line x1="54.12" y1="156.51" x2="182.35" y2="156.51" style="fill: #1d1d1b"/>
    <path d="M299.64,291.95l5.51-.19c3.51-.09,8.51-0.27,14.53-0.38s13-.24,20.54-0.31L351.8,291l12,0,12,0,11.58,0.09c7.51,0.07,14.53.18,20.54,0.31s11,0.29,14.53.38l5.51,0.19-5.51.19c-3.51.09-8.51,0.27-14.53,0.38s-13,.24-20.54.31l-11.58.09-12,0-12,0-11.58-.09c-7.51-.07-14.53-0.18-20.54-0.31s-11-.29-14.53-0.38Z" transform="translate(-245.52 -135.43)" style="fill: #1d1d1b"/>
  </g>
  <g>
    <path d="M351.29,164.6h4.39V152q0-.73,0-1.54L352.61,153a1.29,1.29,0,0,1-.53.26,1.28,1.28,0,0,1-.5,0,1.2,1.2,0,0,1-.41-0.16,0.87,0.87,0,0,1-.27-0.25l-1.17-1.6,6.62-5.62h3V164.6h3.9v2.77h-12V164.6Z" transform="translate(-245.52 -135.43)" style="fill: #1d1d1b"/>
    <path d="M381.81,156.53a17.8,17.8,0,0,1-.61,4.93,10.1,10.1,0,0,1-1.68,3.46,6.78,6.78,0,0,1-2.54,2,7.51,7.51,0,0,1-3.16.67,7.41,7.41,0,0,1-3.14-.67,6.76,6.76,0,0,1-2.51-2,10.09,10.09,0,0,1-1.67-3.46,20.58,20.58,0,0,1,0-9.86,10.09,10.09,0,0,1,1.67-3.45,6.77,6.77,0,0,1,2.51-2,7.42,7.42,0,0,1,3.14-.67,7.51,7.51,0,0,1,3.16.67,6.8,6.8,0,0,1,2.54,2,10.11,10.11,0,0,1,1.68,3.45A17.78,17.78,0,0,1,381.81,156.53Zm-3.83,0a18.38,18.38,0,0,0-.34-3.9,7.87,7.87,0,0,0-.92-2.46,3.37,3.37,0,0,0-1.33-1.28,3.51,3.51,0,0,0-1.56-.37,3.42,3.42,0,0,0-1.54.37,3.34,3.34,0,0,0-1.31,1.28,7.86,7.86,0,0,0-.91,2.46,22.74,22.74,0,0,0,0,7.8,7.85,7.85,0,0,0,.91,2.46,3.33,3.33,0,0,0,1.31,1.28,3.42,3.42,0,0,0,1.54.37,3.51,3.51,0,0,0,1.56-.37,3.37,3.37,0,0,0,1.33-1.28,7.86,7.86,0,0,0,.92-2.46A18.37,18.37,0,0,0,378,156.53Z" transform="translate(-245.52 -135.43)" style="fill: #1d1d1b"/>
  </g>
  <path d="M414.23,201.73H379V175.85a2.29,2.29,0,0,0-2.3-2.3H313.28a2.29,2.29,0,0,0-2.3,2.3V285.07a2.29,2.29,0,0,0,2.3,2.3H414.23a2.29,2.29,0,0,0,2.3-2.3V204A2.29,2.29,0,0,0,414.23,201.73ZM374.4,204v78.76H315.58V178.15H374.4V204h0Zm37.53,78.73H379V206.31h32.93v76.46Z" transform="translate(-245.52 -135.43)" style="fill: #2d3034"/>
  <path d="M388,218h15a2.3,2.3,0,1,0,0-4.6H388A2.3,2.3,0,1,0,388,218Z" transform="translate(-245.52 -135.43)" style="fill: #2d3034"/>
  <path d="M388,229.55h15a2.3,2.3,0,1,0,0-4.6H388A2.3,2.3,0,1,0,388,229.55Z" transform="translate(-245.52 -135.43)" style="fill: #2d3034"/>
  <path d="M388,241.08h15a2.3,2.3,0,1,0,0-4.6H388A2.3,2.3,0,1,0,388,241.08Z" transform="translate(-245.52 -135.43)" style="fill: #2d3034"/>
  <path d="M388,252.63h15a2.3,2.3,0,1,0,0-4.6H388A2.3,2.3,0,1,0,388,252.63Z" transform="translate(-245.52 -135.43)" style="fill: #2d3034"/>
  <path d="M388,264.15h15a2.3,2.3,0,1,0,0-4.6H388A2.3,2.3,0,1,0,388,264.15Z" transform="translate(-245.52 -135.43)" style="fill: #2d3034"/>
  <path d="M388,275.7h15a2.3,2.3,0,1,0,0-4.6H388A2.3,2.3,0,1,0,388,275.7Z" transform="translate(-245.52 -135.43)" style="fill: #2d3034"/>
  <path d="M326.25,196.09a2.29,2.29,0,0,0,2.3-2.3V188.7a2.3,2.3,0,0,0-4.6,0v5.09A2.29,2.29,0,0,0,326.25,196.09Z" transform="translate(-245.52 -135.43)" style="fill: #2d3034"/>
  <path d="M338.75,196.09a2.29,2.29,0,0,0,2.3-2.3V188.7a2.3,2.3,0,1,0-4.6,0v5.09A2.29,2.29,0,0,0,338.75,196.09Z" transform="translate(-245.52 -135.43)" style="fill: #2d3034"/>
  <path d="M351.23,196.09a2.29,2.29,0,0,0,2.3-2.3V188.7a2.3,2.3,0,1,0-4.6,0v5.09A2.31,2.31,0,0,0,351.23,196.09Z" transform="translate(-245.52 -135.43)" style="fill: #2d3034"/>
  <path d="M363.73,196.09a2.29,2.29,0,0,0,2.3-2.3V188.7a2.3,2.3,0,1,0-4.6,0v5.09A2.29,2.29,0,0,0,363.73,196.09Z" transform="translate(-245.52 -135.43)" style="fill: #2d3034"/>
  <path d="M326.25,211.84a2.29,2.29,0,0,0,2.3-2.3v-5.11a2.3,2.3,0,0,0-4.6,0v5.11A2.31,2.31,0,0,0,326.25,211.84Z" transform="translate(-245.52 -135.43)" style="fill: #2d3034"/>
  <path d="M338.75,211.84a2.29,2.29,0,0,0,2.3-2.3v-5.11a2.3,2.3,0,1,0-4.6,0v5.11A2.31,2.31,0,0,0,338.75,211.84Z" transform="translate(-245.52 -135.43)" style="fill: #2d3034"/>
  <path d="M351.23,211.84a2.29,2.29,0,0,0,2.3-2.3v-5.11a2.3,2.3,0,1,0-4.6,0v5.11A2.32,2.32,0,0,0,351.23,211.84Z" transform="translate(-245.52 -135.43)" style="fill: #2d3034"/>
  <path d="M363.73,211.84a2.29,2.29,0,0,0,2.3-2.3v-5.11a2.3,2.3,0,1,0-4.6,0v5.11A2.31,2.31,0,0,0,363.73,211.84Z" transform="translate(-245.52 -135.43)" style="fill: #2d3034"/>
  <path d="M326.25,227.58a2.29,2.29,0,0,0,2.3-2.3v-5.09a2.3,2.3,0,0,0-4.6,0v5.09A2.29,2.29,0,0,0,326.25,227.58Z" transform="translate(-245.52 -135.43)" style="fill: #2d3034"/>
  <path d="M338.75,227.58a2.29,2.29,0,0,0,2.3-2.3v-5.09a2.3,2.3,0,0,0-4.6,0v5.09A2.29,2.29,0,0,0,338.75,227.58Z" transform="translate(-245.52 -135.43)" style="fill: #2d3034"/>
  <path d="M351.23,227.58a2.29,2.29,0,0,0,2.3-2.3v-5.09a2.3,2.3,0,0,0-4.6,0v5.09A2.31,2.31,0,0,0,351.23,227.58Z" transform="translate(-245.52 -135.43)" style="fill: #2d3034"/>
  <path d="M363.73,227.58a2.29,2.29,0,0,0,2.3-2.3v-5.09a2.3,2.3,0,0,0-4.6,0v5.09A2.29,2.29,0,0,0,363.73,227.58Z" transform="translate(-245.52 -135.43)" style="fill: #2d3034"/>
  <path d="M326.25,243.33a2.29,2.29,0,0,0,2.3-2.3v-5.09a2.3,2.3,0,0,0-4.6,0V241A2.31,2.31,0,0,0,326.25,243.33Z" transform="translate(-245.52 -135.43)" style="fill: #2d3034"/>
  <path d="M338.75,243.33A2.29,2.29,0,0,0,341,241v-5.09a2.3,2.3,0,0,0-4.6,0V241A2.31,2.31,0,0,0,338.75,243.33Z" transform="translate(-245.52 -135.43)" style="fill: #2d3034"/>
  <path d="M351.23,243.33a2.29,2.29,0,0,0,2.3-2.3v-5.09a2.3,2.3,0,0,0-4.6,0V241A2.32,2.32,0,0,0,351.23,243.33Z" transform="translate(-245.52 -135.43)" style="fill: #2d3034"/>
  <path d="M363.73,243.33A2.29,2.29,0,0,0,366,241v-5.09a2.3,2.3,0,0,0-4.6,0V241A2.31,2.31,0,0,0,363.73,243.33Z" transform="translate(-245.52 -135.43)" style="fill: #2d3034"/>
  <path d="M326.25,259.06a2.29,2.29,0,0,0,2.3-2.3v-5.09a2.3,2.3,0,0,0-4.6,0v5.09A2.29,2.29,0,0,0,326.25,259.06Z" transform="translate(-245.52 -135.43)" style="fill: #2d3034"/>
  <path d="M338.75,259.06a2.29,2.29,0,0,0,2.3-2.3v-5.09a2.3,2.3,0,0,0-4.6,0v5.09A2.29,2.29,0,0,0,338.75,259.06Z" transform="translate(-245.52 -135.43)" style="fill: #2d3034"/>
  <path d="M351.23,259.06a2.29,2.29,0,0,0,2.3-2.3v-5.09a2.3,2.3,0,0,0-4.6,0v5.09A2.31,2.31,0,0,0,351.23,259.06Z" transform="translate(-245.52 -135.43)" style="fill: #2d3034"/>
  <path d="M363.73,259.06a2.29,2.29,0,0,0,2.3-2.3v-5.09a2.3,2.3,0,0,0-4.6,0v5.09A2.29,2.29,0,0,0,363.73,259.06Z" transform="translate(-245.52 -135.43)" style="fill: #2d3034"/>
  <path d="M326.25,274.82a2.29,2.29,0,0,0,2.3-2.3v-5.11a2.3,2.3,0,0,0-4.6,0v5.11A2.31,2.31,0,0,0,326.25,274.82Z" transform="translate(-245.52 -135.43)" style="fill: #2d3034"/>
  <path d="M338.75,274.82a2.29,2.29,0,0,0,2.3-2.3v-5.11a2.3,2.3,0,0,0-4.6,0v5.11A2.31,2.31,0,0,0,338.75,274.82Z" transform="translate(-245.52 -135.43)" style="fill: #2d3034"/>
  <path d="M351.23,274.82a2.29,2.29,0,0,0,2.3-2.3v-5.11a2.3,2.3,0,0,0-4.6,0v5.11A2.32,2.32,0,0,0,351.23,274.82Z" transform="translate(-245.52 -135.43)" style="fill: #2d3034"/>
  <path d="M363.73,274.82a2.29,2.29,0,0,0,2.3-2.3v-5.11a2.3,2.3,0,0,0-4.6,0v5.11A2.31,2.31,0,0,0,363.73,274.82Z" transform="translate(-245.52 -135.43)" style="fill: #2d3034"/>
</svg>
