<?xml version="1.0" encoding="utf-8"?>
<!-- Generator: Adobe Illustrator 19.2.1, SVG Export Plug-In . SVG Version: 6.00 Build 0)  -->
<svg version="1.1" xmlns="http://www.w3.org/2000/svg" xmlns:xlink="http://www.w3.org/1999/xlink" x="0px" y="0px"
	 viewBox="0 0 200 200" style="enable-background:new 0 0 200 200;" xml:space="preserve">
<style type="text/css">
	.st0{fill:#010202;stroke:#000000;stroke-miterlimit:10;}
	.st1{fill:#FFFFFF;}
</style>
<g id="Calque_1">
	<rect class="st0" width="200" height="200"/>
	<g>
		<path class="st1" d="M146.6,18c4,6.5,8.1,13,12.1,19.5s8.1,13,12,19.6l11.9,19.6l11.9,19.6l0.7,1.1l-0.7,1.2l-11.1,20.1l-11.2,20
			l-11.2,20l-11.3,20l-1,1.8h-2.1l-22.9,0.2c-7.6,0.1-15.3,0.1-22.9,0.1l-46,0.2h-2.3l-1.2-2l-22.8-39.8l-11.4-19.9l-11.3-20l-1-1.8
			l1-1.8l11.6-19.8l11.7-19.7l11.7-19.7c4-6.6,8-13.1,11.9-19.7l0.7-1.2h1.3L77.6,16l22.9,0.6c7.6,0.2,15.3,0.4,22.9,0.6
			C131.3,17.5,138.9,17.8,146.6,18z M146.6,18c-7.6,0.3-15.3,0.6-22.9,0.8c-7.6,0.2-15.3,0.5-22.9,0.6L77.9,20l-23.1,0.4l2.1-1.2
			c-3.7,6.7-7.4,13.4-11.1,20.1l-11.2,20l-11.3,20L12,99.3v-3.6l11.6,19.8l11.6,19.8l23,39.7l-3.5-2l45.9,0.1c7.6,0,15.3,0,22.9,0.1
			l22.9,0.2l-3.1,1.8l11.6-19.8l11.7-19.7l11.7-19.7l12.1-19.7v2.4l-11.1-20.1l-11-20.1c-3.7-6.7-7.3-13.5-10.9-20.2
			C153.7,31.6,150.2,24.8,146.6,18z"/>
	</g>
</g>
<g id="Calque_2">
	<g>
		<line class="st1" x1="56" y1="143.8" x2="153.4" y2="143.8"/>
		<path class="st1" d="M54.6,153.1l4.2-0.1c2.7-0.1,6.5-0.2,11-0.3c4.6-0.1,9.9-0.2,15.6-0.2l8.8-0.1h9.1h9.1l8.8,0.1
			c5.7,0.1,11,0.1,15.6,0.2s8.4,0.2,11,0.3l4.2,0.1l-4.2,0.1c-2.7,0.1-6.5,0.2-11,0.3s-9.9,0.2-15.6,0.2l-8.8,0.1h-9.1h-9.1
			l-8.8-0.1c-5.7-0.1-11-0.1-15.6-0.2c-4.6-0.1-8.4-0.2-11-0.3L54.6,153.1z"/>
	</g>
	<g>
		<path class="st1" d="M141.3,137.4h-2.5V58c0-0.8-0.7-1.5-1.5-1.5H109c-0.8,0-1.5,0.7-1.5,1.5v6.6h-3V58c0-0.8-0.7-1.5-1.5-1.5
			h-6.6v-4.6c0-0.8-0.7-1.5-1.5-1.5c-0.8,0-1.5,0.7-1.5,1.5v4.6h-6.6c-0.8,0-1.5,0.7-1.5,1.5v6.6h-4.6c-0.8,0-1.5,0.7-1.5,1.5v12.7
			H66.4c-0.8,0-1.5,0.7-1.5,1.5v57.2h-2.5c-0.8,0-1.5,0.7-1.5,1.5c0,0.8,0.7,1.5,1.5,1.5h79c0.8,0,1.5-0.7,1.5-1.5
			C142.9,138.1,142.2,137.4,141.3,137.4z M88.2,59.5h13.2v5.1H88.2V59.5z M83.1,137.4h-1v-2.5c0-0.8-0.7-1.5-1.5-1.5
			c-0.8,0-1.5,0.7-1.5,1.5v2.5h-1v-5.1h5.1V137.4z M93.2,98.5v39h-7.1v-6.6c0-0.8-0.7-1.5-1.5-1.5h-8.1c-0.8,0-1.5,0.7-1.5,1.5v6.6
			h-7.1V81.8h25.3L93.2,98.5L93.2,98.5L93.2,98.5z M94.8,78.7H82.1V67.6h25.3v29.3H96.3v-5.1h4.6c0.8,0,1.5-0.7,1.5-1.5
			s-0.7-1.5-1.5-1.5h-4.6v-5.1h4.6c0.8,0,1.5-0.7,1.5-1.5c0-0.8-0.7-1.5-1.5-1.5h-4.6v-0.5C96.3,79.4,95.6,78.7,94.8,78.7L94.8,78.7
			z M121.6,137.4H96.3V100h25.3V137.4L121.6,137.4z M135.8,137.4h-11.1v-41c0-0.8-0.7-1.5-1.5-1.5c-0.8,0-1.5,0.7-1.5,1.5v0.5h-3
			v-0.5c0-0.8-0.7-1.5-1.5-1.5c-0.8,0-1.5,0.7-1.5,1.5v0.5h-5V59.5h25.3L135.8,137.4L135.8,137.4L135.8,137.4z"/>
		<path class="st1" d="M102.9,134.4c0.8,0,1.5-0.7,1.5-1.5v-28.3c0-0.8-0.7-1.5-1.5-1.5c-0.8,0-1.5,0.7-1.5,1.5v28.3
			C101.4,133.7,102,134.4,102.9,134.4z"/>
		<path class="st1" d="M109,134.4c0.8,0,1.5-0.7,1.5-1.5v-28.3c0-0.8-0.7-1.5-1.5-1.5c-0.8,0-1.5,0.7-1.5,1.5v28.3
			C107.4,133.7,108.1,134.4,109,134.4z"/>
		<path class="st1" d="M115,134.4c0.8,0,1.5-0.7,1.5-1.5v-28.3c0-0.8-0.7-1.5-1.5-1.5s-1.5,0.7-1.5,1.5v28.3
			C113.5,133.7,114.2,134.4,115,134.4z"/>
		<path class="st1" d="M117,69.6c0.8,0,1.5-0.7,1.5-1.5v-2c0-0.8-0.7-1.5-1.5-1.5c-0.8,0-1.5,0.7-1.5,1.5v2
			C115.5,68.9,116.2,69.6,117,69.6z"/>
		<path class="st1" d="M123.1,69.6c0.8,0,1.5-0.7,1.5-1.5v-2c0-0.8-0.7-1.5-1.5-1.5c-0.8,0-1.5,0.7-1.5,1.5v2
			C121.6,68.9,122.3,69.6,123.1,69.6z"/>
		<path class="st1" d="M129.2,69.6c0.8,0,1.5-0.7,1.5-1.5v-2c0-0.8-0.7-1.5-1.5-1.5s-1.5,0.7-1.5,1.5v2
			C127.6,68.9,128.3,69.6,129.2,69.6z"/>
		<path class="st1" d="M117,79.7c0.8,0,1.5-0.7,1.5-1.5v-2c0-0.8-0.7-1.5-1.5-1.5c-0.8,0-1.5,0.7-1.5,1.5v2
			C115.5,79,116.2,79.7,117,79.7z"/>
		<path class="st1" d="M123.1,79.7c0.8,0,1.5-0.7,1.5-1.5v-2c0-0.8-0.7-1.5-1.5-1.5c-0.8,0-1.5,0.7-1.5,1.5v2
			C121.6,79,122.3,79.7,123.1,79.7z"/>
		<path class="st1" d="M129.2,79.7c0.8,0,1.5-0.7,1.5-1.5v-2c0-0.8-0.7-1.5-1.5-1.5s-1.5,0.7-1.5,1.5v2
			C127.6,79,128.3,79.7,129.2,79.7z"/>
		<path class="st1" d="M117,89.8c0.8,0,1.5-0.7,1.5-1.5v-2c0-0.8-0.7-1.5-1.5-1.5c-0.8,0-1.5,0.7-1.5,1.5v2
			C115.5,89.2,116.2,89.8,117,89.8z"/>
		<path class="st1" d="M123.1,89.8c0.8,0,1.5-0.7,1.5-1.5v-2c0-0.8-0.7-1.5-1.5-1.5c-0.8,0-1.5,0.7-1.5,1.5v2
			C121.6,89.2,122.3,89.8,123.1,89.8z"/>
		<path class="st1" d="M129.2,89.8c0.8,0,1.5-0.7,1.5-1.5v-2c0-0.8-0.7-1.5-1.5-1.5s-1.5,0.7-1.5,1.5v2
			C127.6,89.2,128.3,89.8,129.2,89.8z"/>
		<path class="st1" d="M74.5,93.9c0.8,0,1.5-0.7,1.5-1.5v-2c0-0.8-0.7-1.5-1.5-1.5c-0.8,0-1.5,0.7-1.5,1.5v2
			C73,93.2,73.7,93.9,74.5,93.9z"/>
		<path class="st1" d="M80.6,93.9c0.8,0,1.5-0.7,1.5-1.5v-2c0-0.8-0.7-1.5-1.5-1.5c-0.8,0-1.5,0.7-1.5,1.5v2
			C79.1,93.2,79.7,93.9,80.6,93.9z"/>
		<path class="st1" d="M86.7,93.9c0.8,0,1.5-0.7,1.5-1.5v-2c0-0.8-0.7-1.5-1.5-1.5c-0.8,0-1.5,0.7-1.5,1.5v2
			C85.1,93.2,85.8,93.9,86.7,93.9z"/>
		<path class="st1" d="M74.5,104c0.8,0,1.5-0.7,1.5-1.5v-2c0-0.8-0.7-1.5-1.5-1.5c-0.8,0-1.5,0.7-1.5,1.5v2
			C73,103.3,73.7,104,74.5,104z"/>
		<path class="st1" d="M80.6,104c0.8,0,1.5-0.7,1.5-1.5v-2c0-0.8-0.7-1.5-1.5-1.5c-0.8,0-1.5,0.7-1.5,1.5v2
			C79.1,103.3,79.7,104,80.6,104z"/>
		<path class="st1" d="M86.7,104c0.8,0,1.5-0.7,1.5-1.5v-2c0-0.8-0.7-1.5-1.5-1.5c-0.8,0-1.5,0.7-1.5,1.5v2
			C85.1,103.3,85.8,104,86.7,104z"/>
		<path class="st1" d="M74.5,114.1c0.8,0,1.5-0.7,1.5-1.5v-2c0-0.8-0.7-1.5-1.5-1.5c-0.8,0-1.5,0.7-1.5,1.5v2
			C73,113.5,73.7,114.1,74.5,114.1z"/>
		<path class="st1" d="M80.6,114.1c0.8,0,1.5-0.7,1.5-1.5v-2c0-0.8-0.7-1.5-1.5-1.5c-0.8,0-1.5,0.7-1.5,1.5v2
			C79.1,113.5,79.7,114.1,80.6,114.1z"/>
		<path class="st1" d="M86.7,114.1c0.8,0,1.5-0.7,1.5-1.5v-2c0-0.8-0.7-1.5-1.5-1.5c-0.8,0-1.5,0.7-1.5,1.5v2
			C85.1,113.5,85.8,114.1,86.7,114.1z"/>
		<path class="st1" d="M74.5,124.3c0.8,0,1.5-0.7,1.5-1.5v-2c0-0.8-0.7-1.5-1.5-1.5c-0.8,0-1.5,0.7-1.5,1.5v2
			C73,123.6,73.7,124.3,74.5,124.3z"/>
		<path class="st1" d="M80.6,124.3c0.8,0,1.5-0.7,1.5-1.5v-2c0-0.8-0.7-1.5-1.5-1.5c-0.8,0-1.5,0.7-1.5,1.5v2
			C79.1,123.6,79.7,124.3,80.6,124.3z"/>
		<path class="st1" d="M86.7,124.3c0.8,0,1.5-0.7,1.5-1.5v-2c0-0.8-0.7-1.5-1.5-1.5c-0.8,0-1.5,0.7-1.5,1.5v2
			C85.1,123.6,85.8,124.3,86.7,124.3z"/>
		<path class="st1" d="M129.2,100c0.8,0,1.5-0.7,1.5-1.5v-2c0-0.8-0.7-1.5-1.5-1.5s-1.5,0.7-1.5,1.5v2
			C127.6,99.3,128.3,100,129.2,100z"/>
		<path class="st1" d="M129.2,110.1c0.8,0,1.5-0.7,1.5-1.5v-2c0-0.8-0.7-1.5-1.5-1.5s-1.5,0.7-1.5,1.5v2
			C127.6,109.4,128.3,110.1,129.2,110.1z"/>
		<path class="st1" d="M129.2,120.2c0.8,0,1.5-0.7,1.5-1.5v-2c0-0.8-0.7-1.5-1.5-1.5s-1.5,0.7-1.5,1.5v2
			C127.6,119.5,128.3,120.2,129.2,120.2z"/>
		<path class="st1" d="M129.2,130.3c0.8,0,1.5-0.7,1.5-1.5v-2c0-0.8-0.7-1.5-1.5-1.5s-1.5,0.7-1.5,1.5v2
			C127.6,129.7,128.3,130.3,129.2,130.3z"/>
		<path class="st1" d="M102.3,74.2c0-0.8-0.7-1.5-1.5-1.5H88.7c-0.8,0-1.5,0.7-1.5,1.5s0.7,1.5,1.5,1.5h12.2
			C101.7,75.7,102.3,75,102.3,74.2z"/>
	</g>
	<g>
		<path class="st1" d="M92.9,43.6h3.3V34c0-0.4,0-0.8,0-1.2l-2.3,1.9c-0.1,0.1-0.3,0.2-0.4,0.2c-0.1,0-0.3,0-0.4,0
			c-0.1,0-0.2-0.1-0.3-0.1c-0.1,0-0.2-0.1-0.2-0.2l-0.9-1.2l5-4.3H99v14.4h3v2.1h-9.1L92.9,43.6L92.9,43.6z"/>
		<path class="st1" d="M114.8,30.4c0,0.4-0.1,0.7-0.4,1c-0.4,0.3-0.8,0.4-1.3,0.4h-4.6l-0.6,3.4c0.7-0.1,1.3-0.2,2-0.2
			c0.8,0,1.6,0.1,2.3,0.4c0.6,0.2,1.2,0.6,1.7,1.1c0.4,0.5,0.8,1,1,1.6c0.2,0.6,0.3,1.3,0.3,2c0,0.8-0.1,1.6-0.5,2.4
			c-0.3,0.7-0.7,1.3-1.3,1.9c-0.6,0.5-1.2,0.9-1.9,1.2c-0.8,0.3-1.6,0.4-2.4,0.4c-0.5,0-1-0.1-1.5-0.2c-0.9-0.2-1.7-0.5-2.4-1
			c-0.3-0.2-0.6-0.5-0.9-0.8l0.9-1.2c0.2-0.2,0.4-0.4,0.7-0.4c0.2,0,0.4,0.1,0.6,0.2l0.7,0.4c0.3,0.2,0.6,0.3,0.9,0.4
			c0.4,0.1,0.8,0.2,1.2,0.2c0.5,0,0.9-0.1,1.4-0.3c0.4-0.2,0.7-0.4,1-0.7c0.3-0.3,0.5-0.7,0.6-1.1c0.1-0.4,0.2-0.9,0.2-1.4
			c0.1-0.8-0.2-1.5-0.8-2.1c-0.6-0.5-1.4-0.8-2.3-0.8c-0.8,0-1.6,0.2-2.4,0.4l-1.8-0.5l1.4-8h8.1L114.8,30.4L114.8,30.4z"/>
	</g>
</g>
</svg>
