<?xml version="1.0" encoding="utf-8"?>
<!-- Generator: Adobe Illustrator 19.2.1, SVG Export Plug-In . SVG Version: 6.00 Build 0)  -->
<svg version="1.1" id="Calque_1" xmlns="http://www.w3.org/2000/svg" xmlns:xlink="http://www.w3.org/1999/xlink" x="0px" y="0px"
	 viewBox="0 0 200 200" style="enable-background:new 0 0 200 200;" xml:space="preserve">
<style type="text/css">
	.st0{fill:#010202;stroke:#000000;stroke-miterlimit:10;}
	.st1{fill:#FFFFFF;}
</style>
<rect class="st0" width="200" height="200"/>
<g>
	<path class="st1" d="M146.6,18c4,6.5,8.1,13,12.1,19.5s8.1,13,12,19.6l11.9,19.6l11.9,19.6l0.7,1.1l-0.7,1.2l-11.1,20.1l-11.2,20
		l-11.2,20l-11.3,20l-1,1.8h-2.1l-22.9,0.2c-7.6,0.1-15.3,0.1-22.9,0.1l-46,0.2h-2.3l-1.2-2l-22.8-39.8l-11.4-19.9l-11.3-20l-1-1.8
		l1-1.8l11.6-19.8l11.7-19.7l11.7-19.7c4-6.6,8-13.1,11.9-19.7l0.7-1.2h1.3L77.6,16l22.9,0.6c7.6,0.2,15.3,0.4,22.9,0.6
		C131.3,17.5,138.9,17.8,146.6,18z M146.6,18c-7.6,0.3-15.3,0.6-22.9,0.8c-7.6,0.2-15.3,0.5-22.9,0.6L77.9,20l-23.1,0.4l2.1-1.2
		c-3.7,6.7-7.4,13.4-11.1,20.1l-11.2,20l-11.3,20L12,99.3v-3.6l11.6,19.8l11.6,19.8l23,39.7l-3.5-2l45.9,0.1c7.6,0,15.3,0,22.9,0.1
		l22.9,0.2l-3.1,1.8l11.6-19.8l11.7-19.7l11.7-19.7l12.1-19.7v2.4l-11.1-20.1l-11-20.1c-3.7-6.7-7.3-13.5-10.9-20.2
		C153.7,31.6,150.2,24.8,146.6,18z"/>
</g>
<path class="st1" d="M123.1,54c0,1-0.2,1.9-0.5,2.8c-0.3,0.9-0.9,1.6-1.5,2.2c-0.8,0.7-1.7,1.2-2.8,1.5c-1.3,0.4-2.7,0.5-4.1,0.5
	h-17l-2,11.7c1.3-0.2,2.6-0.4,3.9-0.5c1.2-0.1,2.4-0.2,3.6-0.2c3.4-0.1,6.7,0.5,9.9,1.7c2.7,1,5.2,2.6,7.2,4.7
	c1.9,2,3.5,4.3,4.4,6.9c1,2.7,1.5,5.6,1.5,8.5c0,3.6-0.6,7.1-2,10.4c-1.3,3.1-3.2,5.8-5.6,8.1c-2.5,2.3-5.4,4.1-8.6,5.3
	c-3.5,1.3-7.2,1.9-10.9,1.9c-2.2,0-4.4-0.2-6.6-0.7c-3.9-0.9-7.7-2.5-11-4.9c-1.5-1-2.9-2.2-4.2-3.5l4.7-6.2c0.5-0.6,1-1.1,1.7-1.5
	c0.6-0.3,1.4-0.5,2.1-0.5c1,0,1.9,0.3,2.8,0.8l2.8,1.8c1.1,0.7,2.3,1.3,3.6,1.7c1.6,0.6,3.3,0.8,5.1,0.8c1.8,0.1,3.6-0.3,5.2-1
	c1.4-0.6,2.6-1.6,3.5-2.7c0.9-1.2,1.6-2.6,2-4c0.4-1.6,0.6-3.3,0.6-4.9c0-3.5-1-6.1-2.9-7.9c-1.9-1.8-4.7-2.7-8.3-2.7
	c-3.2,0-6.4,0.6-9.4,1.8l-9.4-2.5l6-35.5h36.3L123.1,54L123.1,54z"/>
<g>
	<line class="st1" x1="52.4" y1="135.8" x2="147.5" y2="135.8"/>
	<path class="st1" d="M52.4,135.9l4.1-0.1c2.6-0.1,6.3-0.2,10.8-0.3c4.5-0.1,9.6-0.2,15.2-0.2l8.6-0.1h8.9h8.9l8.6,0.1
		c5.6,0.1,10.8,0.1,15.2,0.2c4.5,0.1,8.2,0.2,10.8,0.3l4.1,0.1l-4.1,0.1c-2.6,0.1-6.3,0.2-10.8,0.3c-4.5,0.1-9.6,0.2-15.2,0.2
		l-8.6,0.1H100h-8.9l-8.6-0.1c-5.6-0.1-10.8-0.1-15.2-0.2c-4.5-0.1-8.2-0.2-10.8-0.3L52.4,135.9z"/>
</g>
</svg>
