<svg id="Calque_1" data-name="Calque 1" xmlns="http://www.w3.org/2000/svg" viewBox="0 0 235.43 204.21">
  <title>SuccSunMin10</title>
  <g>
    <polygon points="175.8 1.82 233.36 101.51 175.8 201.21 60.68 201.21 3.12 101.51 60.68 1.82 175.8 1.82" style="fill: #fff"/>
    <path d="M421.31,137.25c5,8.22,10,16.4,14.88,24.64L451,186.59l14.78,24.7L480.43,236l0.52,0.87-0.52.92L466.3,262.92l-14.19,25-14.2,25-14.27,25-0.76,1.34h-1.57l-28.78.14-28.78.07-57.56.09h-1.73l-0.86-1.5-28.7-49.89-14.33-25-14.27-25-0.78-1.37,0.78-1.33,14.51-24.85,14.58-24.82L290,161.12l14.65-24.77,0.54-.91h1L335,135.78l28.78,0.45,28.78,0.45C402.13,136.81,411.72,137.06,421.31,137.25Zm0,0c-9.59.19-19.19,0.44-28.78,0.57l-28.78.45-28.78.45-28.78.33,1.56-.9-14.13,25.08-14.19,25-14.2,25L251,238.3v-2.7l14.51,24.85,14.45,24.89,28.86,49.8-2.6-1.5,57.56,0.09,28.78,0.07L421.31,334,419,335.3l14.51-24.85,14.58-24.81,14.59-24.81L477.32,236v1.8l-14.1-25.09-14-25.15-14-25.15C430.53,154.08,425.95,145.65,421.31,137.25Z" transform="translate(-245.52 -135.43)" style="fill: #1d1d1b"/>
  </g>
  <g>
    <line x1="54.12" y1="156.51" x2="182.35" y2="156.51" style="fill: #1d1d1b"/>
    <path d="M299.64,291.95l5.51-.19c3.51-.09,8.51-0.27,14.53-0.38s13-.24,20.54-0.31L351.8,291l12,0,12,0,11.58,0.09c7.51,0.07,14.53.18,20.54,0.31s11,0.29,14.53.38l5.51,0.19-5.51.19c-3.51.09-8.51,0.27-14.53,0.38s-13,.24-20.54.31l-11.58.09-12,0-12,0-11.58-.09c-7.51-.07-14.53-0.18-20.54-0.31s-11-.29-14.53-0.38Z" transform="translate(-245.52 -135.43)" style="fill: #1d1d1b"/>
  </g>
  <g>
    <path d="M349.95,164.6h4.39V152q0-.73,0-1.54L351.27,153a1.29,1.29,0,0,1-.53.26,1.28,1.28,0,0,1-.5,0,1.2,1.2,0,0,1-.41-0.16,0.87,0.87,0,0,1-.27-0.25l-1.17-1.6,6.62-5.62h3V164.6h3.9v2.77h-12V164.6Z" transform="translate(-245.52 -135.43)" style="fill: #1d1d1b"/>
    <path d="M380.47,156.53a17.8,17.8,0,0,1-.61,4.93,10.1,10.1,0,0,1-1.68,3.46,6.78,6.78,0,0,1-2.54,2,7.51,7.51,0,0,1-3.16.67,7.41,7.41,0,0,1-3.14-.67,6.76,6.76,0,0,1-2.51-2,10.09,10.09,0,0,1-1.67-3.46,20.58,20.58,0,0,1,0-9.86,10.09,10.09,0,0,1,1.67-3.45,6.77,6.77,0,0,1,2.51-2,7.42,7.42,0,0,1,3.14-.67,7.51,7.51,0,0,1,3.16.67,6.8,6.8,0,0,1,2.54,2,10.11,10.11,0,0,1,1.68,3.45A17.78,17.78,0,0,1,380.47,156.53Zm-3.83,0a18.38,18.38,0,0,0-.34-3.9,7.87,7.87,0,0,0-.92-2.46,3.37,3.37,0,0,0-1.33-1.28,3.51,3.51,0,0,0-1.56-.37,3.42,3.42,0,0,0-1.54.37,3.34,3.34,0,0,0-1.31,1.28,7.86,7.86,0,0,0-.91,2.46,22.74,22.74,0,0,0,0,7.8,7.85,7.85,0,0,0,.91,2.46,3.33,3.33,0,0,0,1.31,1.28,3.42,3.42,0,0,0,1.54.37,3.51,3.51,0,0,0,1.56-.37,3.37,3.37,0,0,0,1.33-1.28,7.86,7.86,0,0,0,.92-2.46A18.37,18.37,0,0,0,376.65,156.53Z" transform="translate(-245.52 -135.43)" style="fill: #1d1d1b"/>
  </g>
  <g>
    <path d="M363.13,260.95a30.2,30.2,0,1,1,30.19-30.19A30.23,30.23,0,0,1,363.13,260.95Zm0-57.17a27,27,0,1,0,27,27A27,27,0,0,0,363.13,203.78Z" transform="translate(-245.52 -135.43)" style="fill: #000100"/>
    <g>
      <path d="M363.13,190.63a1.61,1.61,0,0,1-1.61-1.61V176.17a1.61,1.61,0,0,1,3.22,0V189A1.61,1.61,0,0,1,363.13,190.63Z" transform="translate(-245.52 -135.43)" style="fill: #000100"/>
      <path d="M363.13,286.95a1.61,1.61,0,0,1-1.61-1.61V272.49a1.61,1.61,0,0,1,3.22,0v12.84A1.61,1.61,0,0,1,363.13,286.95Z" transform="translate(-245.52 -135.43)" style="fill: #000100"/>
    </g>
    <g>
      <path d="M321.4,232.37H308.56a1.61,1.61,0,1,1,0-3.22h12.84A1.61,1.61,0,0,1,321.4,232.37Z" transform="translate(-245.52 -135.43)" style="fill: #000100"/>
      <path d="M417.72,232.37H404.87a1.61,1.61,0,1,1,0-3.22h12.84A1.61,1.61,0,0,1,417.72,232.37Z" transform="translate(-245.52 -135.43)" style="fill: #000100"/>
    </g>
    <g>
      <path d="M333.63,202.84a1.62,1.62,0,0,1-1.14-.47l-9.08-9.07a1.61,1.61,0,0,1,2.28-2.28l9.08,9.07a1.61,1.61,0,0,1,0,2.28A1.59,1.59,0,0,1,333.63,202.84Z" transform="translate(-245.52 -135.43)" style="fill: #000100"/>
      <path d="M401.73,271a1.62,1.62,0,0,1-1.14-.47l-9.08-9.08a1.61,1.61,0,0,1,2.28-2.28l9.08,9.08A1.61,1.61,0,0,1,401.73,271Z" transform="translate(-245.52 -135.43)" style="fill: #000100"/>
    </g>
    <g>
      <path d="M324.55,271a1.61,1.61,0,0,1-1.14-2.75l9.08-9.08a1.61,1.61,0,1,1,2.28,2.28l-9.08,9.08A1.62,1.62,0,0,1,324.55,271Z" transform="translate(-245.52 -135.43)" style="fill: #000100"/>
      <path d="M392.65,202.84a1.61,1.61,0,0,1-1.14-2.75l9.08-9.07a1.61,1.61,0,1,1,2.28,2.28l-9.08,9.07A1.59,1.59,0,0,1,392.65,202.84Z" transform="translate(-245.52 -135.43)" style="fill: #000100"/>
    </g>
  </g>
</svg>
