<?xml version="1.0" encoding="utf-8"?>
<!-- Generator: Adobe Illustrator 19.2.1, SVG Export Plug-In . SVG Version: 6.00 Build 0)  -->
<svg version="1.1" id="Calque_1" xmlns="http://www.w3.org/2000/svg" xmlns:xlink="http://www.w3.org/1999/xlink" x="0px" y="0px"
	 viewBox="0 0 200 200" style="enable-background:new 0 0 200 200;" xml:space="preserve">
<style type="text/css">
	.st0{fill:#010202;stroke:#000000;stroke-miterlimit:10;}
	.st1{fill:#FFFFFF;}
</style>
<rect class="st0" width="200" height="200"/>
<g>
	<path class="st1" d="M146.6,18c4,6.5,8.1,13,12.1,19.5s8.1,13,12,19.6l11.9,19.6l11.9,19.6l0.7,1.1l-0.7,1.2l-11.1,20.1l-11.2,20
		l-11.2,20l-11.3,20l-1,1.8h-2.1l-22.9,0.2c-7.6,0.1-15.3,0.1-22.9,0.1l-46,0.2h-2.3l-1.2-2l-22.8-39.8l-11.4-19.9l-11.3-20l-1-1.8
		l1-1.8l11.6-19.8l11.7-19.7l11.7-19.7c4-6.6,8-13.1,11.9-19.7l0.7-1.2h1.3L77.6,16l22.9,0.6c7.6,0.2,15.3,0.4,22.9,0.6
		C131.3,17.5,138.9,17.8,146.6,18z M146.6,18c-7.6,0.3-15.3,0.6-22.9,0.8c-7.6,0.2-15.3,0.5-22.9,0.6L77.9,20l-23.1,0.4l2.1-1.2
		c-3.7,6.7-7.4,13.4-11.1,20.1l-11.2,20l-11.3,20L12,99.3v-3.6l11.6,19.8l11.6,19.8l23,39.7l-3.5-2l45.9,0.1c7.6,0,15.3,0,22.9,0.1
		l22.9,0.2l-3.1,1.8l11.6-19.8l11.7-19.7l11.7-19.7l12.1-19.7v2.4l-11.1-20.1l-11-20.1c-3.7-6.7-7.3-13.5-10.9-20.2
		C153.7,31.6,150.2,24.8,146.6,18z"/>
</g>
<g>
	<path class="st1" d="M53.7,112h13.9V75.5c0-1.8,0.1-3.7,0.2-5.6l-8.2,6.8c-0.5,0.4-1,0.7-1.6,0.9c-0.5,0.2-1,0.3-1.5,0.3
		c-0.8,0-1.6-0.2-2.3-0.6c-0.6-0.3-1.1-0.7-1.5-1.2l-4.9-6.5l22.6-18.9h12.7V112H95v11.1H53.7V112z"/>
	<path class="st1" d="M154.6,86.9c0.1,5.6-0.6,11.1-2,16.5c-1.1,4.2-3,8.1-5.6,11.5c-2.3,2.9-5.2,5.3-8.6,6.8
		c-3.4,1.5-7,2.3-10.7,2.3c-3.7,0-7.3-0.7-10.7-2.3c-3.3-1.5-6.3-3.9-8.5-6.8c-2.6-3.5-4.5-7.4-5.6-11.5c-1.4-5.4-2.1-10.9-2-16.5
		c-0.1-5.6,0.6-11.1,2-16.5c1.1-4.2,3-8.1,5.6-11.5c2.2-2.9,5.1-5.3,8.5-6.8c3.4-1.5,7-2.2,10.7-2.2c3.7,0,7.3,0.7,10.7,2.2
		c3.4,1.5,6.3,3.9,8.6,6.8c2.6,3.5,4.5,7.4,5.6,11.5C154,75.8,154.7,81.3,154.6,86.9z M138.7,86.9c0.1-4.1-0.2-8.2-0.9-12.3
		c-0.4-2.6-1.3-5.2-2.5-7.6c-0.8-1.6-2-2.9-3.6-3.8c-1.2-0.7-2.6-1-4-1c-1.4,0-2.8,0.4-4,1c-1.5,0.9-2.7,2.2-3.5,3.8
		c-1.2,2.4-2,4.9-2.4,7.6c-0.7,4.1-1,8.2-0.9,12.3c-0.1,4.1,0.2,8.3,0.9,12.3c0.4,2.6,1.2,5.2,2.4,7.6c0.8,1.6,2,2.9,3.5,3.8
		c1.2,0.7,2.6,1,4,1c1.4,0,2.8-0.4,4-1c1.5-0.9,2.8-2.2,3.6-3.8c1.2-2.4,2.1-4.9,2.5-7.6C138.5,95.2,138.8,91,138.7,86.9L138.7,86.9
		z"/>
</g>
<g>
	<line class="st1" x1="52.6" y1="138.3" x2="149.7" y2="138.3"/>
	<path class="st1" d="M52.6,138.3l4.2-0.1c2.7-0.1,6.4-0.2,11-0.3s9.8-0.2,15.5-0.2l8.8-0.1h9.1h9.1l8.8,0.1
		c5.7,0.1,11,0.1,15.5,0.2c4.5,0.1,8.3,0.2,11,0.3l4.2,0.1l-4.2,0.1c-2.7,0.1-6.4,0.2-11,0.3s-9.8,0.2-15.5,0.2l-8.8,0.1h-9.1h-9.1
		l-8.8-0.1c-5.7-0.1-11-0.1-15.5-0.2s-8.3-0.2-11-0.3L52.6,138.3z"/>
</g>
</svg>
