<?xml version="1.0" encoding="utf-8"?>
<!-- Generator: Adobe Illustrator 19.2.1, SVG Export Plug-In . SVG Version: 6.00 Build 0)  -->
<svg version="1.1" xmlns="http://www.w3.org/2000/svg" xmlns:xlink="http://www.w3.org/1999/xlink" x="0px" y="0px"
	 viewBox="0 0 200 200" style="enable-background:new 0 0 200 200;" xml:space="preserve">
<style type="text/css">
	.st0{fill:#010202;stroke:#000000;stroke-miterlimit:10;}
	.st1{fill:#FFFFFF;}
</style>
<g id="Calque_1">
	<rect x="-0.5" y="0" class="st0" width="200" height="200"/>
	<g>
		<path class="st1" d="M146.6,19.7c4,6.5,8.1,13,12.1,19.5s8.1,13,12,19.6l11.9,19.6L194.5,98l0.7,1.1l-0.7,1.2l-11.1,20.1l-11.2,20
			l-11.2,20l-11.3,20l-1,1.8h-2.1l-22.9,0.2c-7.6,0.1-15.3,0.1-22.9,0.1l-46,0.2h-2.3l-1.2-2l-22.8-39.8L17.1,121L5.8,101l-1-1.8
			l1-1.8l11.6-19.8l11.7-19.7l11.7-19.7c4-6.6,8-13.1,11.9-19.7l0.7-1.2h1.3l22.9,0.4l22.9,0.6c7.6,0.2,15.3,0.4,22.9,0.6
			C131.3,19.2,138.9,19.5,146.6,19.7z M146.6,19.7c-7.6,0.3-15.3,0.6-22.9,0.8c-7.6,0.2-15.3,0.5-22.9,0.6l-22.9,0.6l-23.1,0.4
			l2.1-1.2c-3.7,6.7-7.4,13.4-11.1,20.1L34.6,61L23.3,81L12,101v-3.6l11.6,19.8L35.2,137l23,39.7l-3.5-2l45.9,0.1
			c7.6,0,15.3,0,22.9,0.1l22.9,0.2l-3.1,1.8l11.6-19.8l11.7-19.7l11.7-19.7L190.4,98v2.4l-11.1-20.1l-11-20.1
			c-3.7-6.7-7.3-13.5-10.9-20.2C153.7,33.3,150.2,26.5,146.6,19.7z"/>
	</g>
</g>
<g id="Calque_2">
	<g>
		<line class="st1" x1="57.1" y1="150.5" x2="145.2" y2="150.5"/>
		<path class="st1" d="M57.1,150.5l3.8-0.1c2.4-0.1,5.8-0.2,10-0.3c4.1-0.1,8.9-0.2,14.1-0.2l8,0h8.2h8.2l8,0.1
			c5.2,0,10,0.1,14.1,0.2s7.6,0.2,10,0.3l3.8,0.1l-3.8,0.1c-2.4,0.1-5.8,0.2-10,0.3c-4.1,0.1-8.9,0.2-14.1,0.2l-8,0.1h-8.2h-8.2
			l-8-0.1c-5.2,0-10-0.1-14.1-0.2c-4.1-0.1-7.6-0.2-10-0.3L57.1,150.5z"/>
	</g>
	<path class="st1" d="M105.7,42.3c0,0.3-0.1,0.7-0.3,0.9c-0.3,0.3-0.7,0.4-1.2,0.3h-4.1l-0.5,3.1c0.6-0.1,1.2-0.2,1.8-0.2
		c0.7,0,1.4,0.1,2.1,0.4c0.6,0.2,1.1,0.5,1.5,1c0.4,0.4,0.7,0.9,0.9,1.5c0.2,0.6,0.3,1.2,0.3,1.8c0,0.7-0.1,1.5-0.4,2.2
		c-0.3,0.6-0.7,1.2-1.2,1.7c-0.5,0.5-1.1,0.8-1.8,1.1c-0.7,0.3-1.5,0.4-2.2,0.4c-0.4,0-0.9,0-1.3-0.1c-0.8-0.2-1.5-0.5-2.2-0.9
		c-0.3-0.2-0.6-0.4-0.8-0.7l0.8-1.1c0.1-0.2,0.4-0.3,0.7-0.3c0.2,0,0.4,0.1,0.5,0.2l0.6,0.4c0.3,0.1,0.5,0.3,0.8,0.4
		c0.4,0.1,0.7,0.2,1.1,0.2c0.4,0,0.8-0.1,1.2-0.2c0.3-0.1,0.6-0.4,0.9-0.6c0.2-0.3,0.4-0.6,0.5-1c0.1-0.4,0.2-0.8,0.2-1.2
		c0-0.7-0.2-1.4-0.7-1.9c-0.6-0.5-1.3-0.7-2.1-0.7c-0.7,0-1.5,0.1-2.2,0.4l-1.6-0.5l1.2-7.2h7.4L105.7,42.3L105.7,42.3z"/>
	<path class="st1" d="M138.2,98.2L127,87.8v-17h-12.9v5.1l-12.9-12l-37,34.4c-0.5,0.5-0.5,1.3,0,1.8c0.5,0.5,1.2,0.5,1.8,0.1l4.3-4
		v43h61.9v-43l4.3,4c0.5,0.5,1.3,0.5,1.8-0.1C138.7,99.5,138.7,98.7,138.2,98.2z M116.7,73.3h7.7v12.1l-7.7-7.2V73.3z M93.4,136.6
		v-27.2c0-0.7,0.5-1.2,1.2-1.2l0,0h13.1c0.7,0,1.2,0.5,1.2,1.2l0,0v27.2L93.4,136.6L93.4,136.6z M129.6,136.6h-18.1v-27.2
		c0-2.1-1.7-3.8-3.8-3.8H94.7c-2.1,0-3.8,1.7-3.8,3.8v27.2H72.8V93.7l28.4-26.4l18.4,17.1l7.4,6.9l0,0l2.6,2.4V136.6L129.6,136.6z"
		/>
</g>
</svg>
